{
.appVersion = "3151";
.formatVersion = 3;
axes = (
{
name = Burst;
tag = BRST;
}
);
customParameters = (
{
name = vendorID;
value = PfEd;
},
{
name = panose;
value = (
2,
0,
5,
3,
0,
0,
0,
0,
0,
0
);
},
{
name = unicodeRanges;
value = (
0,
1
);
},
{
name = codePageRanges;
value = (
"1252"
);
},
{
name = fsType;
value = (
);
},
{
name = blueScale;
value = 0.04;
},
{
name = glyphOrder;
value = (
.notdef,
space,
ampersand,
A,
B,
C,
D,
E,
F,
G,
H,
I,
J,
K,
L,
M,
N,
O,
P,
Q,
R,
S,
T,
U,
V,
W,
X,
Y,
Z,
a,
b,
c,
d,
e,
f,
g,
h,
i,
j,
k,
l,
m,
n,
o,
p,
q,
r,
s,
t,
u,
v,
w,
x,
y,
z,
acute,
grave,
circumflex,
tilde,
dieresis,
ring,
cedilla,
Aacute,
Agrave,
Acircumflex,
Atilde,
Adieresis,
Aring,
AE,
Ccedilla,
Eacute,
Egrave,
Ecircumflex,
Edieresis,
Iacute,
Igrave,
Icircumflex,
Idieresis,
Ntilde,
Oacute,
Ograve,
Ocircumflex,
Oslash,
Odieresis,
Otilde,
OE,
Uacute,
Ugrave,
Ucircumflex,
Udieresis,
Yacute,
Ydieresis,
aacute,
agrave,
acircumflex,
atilde,
adieresis,
aring,
ae,
ccedilla,
eacute,
egrave,
ecircumflex,
edieresis,
iacute,
igrave,
icircumflex,
idieresis,
dotlessi,
ntilde,
oacute,
ograve,
ocircumflex,
oslash,
odieresis,
otilde,
oe,
germandbls,
uacute,
ugrave,
ucircumflex,
udieresis,
yacute,
ydieresis,
period,
comma,
colon,
semicolon,
ellipsis,
hyphen,
exclam,
question,
exclamdown,
questiondown,
quoteleft,
quoteright,
quotedblleft,
quotedblright,
quotesinglbase,
quotedblbase,
quotesingle,
quotedbl,
guillemotleft,
guillemotright,
parenleft,
parenright,
braceleft,
braceright,
bracketleft,
bracketright,
underscore,
endash,
emdash,
bullet,
periodcentered,
asterisk,
paragraph,
section,
dagger,
daggerdbl,
at,
uni2116,
numbersign,
backslash,
slash,
bar,
brokenbar,
asciicircum,
asciitilde,
Euro,
dollar,
cent,
sterling,
yen,
copyright,
registered,
zero,
one,
two,
three,
four,
five,
six,
seven,
eight,
nine,
percent,
perthousand,
onehalf,
onequarter,
threequarters,
plus,
minus,
plusminus,
multiply,
divide,
equal,
approxequal,
less,
greater,
lessequal,
greaterequal,
degree,
velvetyne,

glyphs = (
{
glyphname = .notdef;
lastChange = "2024-02-26 21:22:18 +0000";
layers = (
{
hints = (
{
horizontal = 1;
place = (0, 680);
place = (0, 680);
type = Stem;
},
{
place = (80, 160);
place = (80, 160);
type = Stem;
}
);
layerId = m01;
shapes = (
{
closed = 1;
nodes = (
(40,680,l),
(280,680,l),
(280,0,l),
(40,0,l)
);
},
{
closed = 1;
nodes = (
(240,40,l),
(240,640,l),
(80,640,l),
(80,40,l)
);
}
);
width = 360;
},
{
hints = (
{
horizontal = 1;
place = (0, 680);
place = (0, 680);
type = Stem;
},
{
place = (80, 160);
place = (80, 160);
type = Stem;
}
);
layerId = "45DABB71-BDAF-41D9-9CB5-36007FEF02C0";
shapes = (
{
closed = 1;
nodes = (
(40,680,l),
(280,680,l),
(280,0,l),
(40,0,l)
);
},
{
closed = 1;
nodes = (
(240,40,l),
(240,640,l),
(80,640,l),
(80,40,l)
);
}
);
width = 360;
}
);
note = ".notdef";
},
{
glyphname = ampersand;
kernRight = ampersand;
lastChange = "2024-04-03 16:37:03 +0000";
layers = (
{
hints = (
{
horizontal = 1;
place = (0, 80);
place = (0, 80);
type = Stem;
},
{
horizontal = 1;
place = (400, 40);
place = (400, 40);
type = Stem;
},
{
horizontal = 1;
place = (640, 40);
place = (640, 40);
type = Stem;
},
{
horizontal = 1;
place = (760, 40);
place = (760, 40);
type = Stem;
},
{
place = (40, 800);
place = (40, 800);
type = Stem;
},
{
horizontal = 1;
place = (600, 80);
place = (600, 80);
type = Stem;
}
);
layerId = m01;
shapes = (
{
closed = 1;
nodes = (
(381,681,l),
(480,760,l),
(520,760,l),
(560,720,l),
(600,600,l),
(640,600,l),
(680,640,l),
(640,760,l),
(520,800,l),
(440,800,l),
(335,747,l)
);
},
{
closed = 1;
nodes = (
(200,289,l),
(200,360,l),
(280,600,l),
(381,681,l),
(335,747,l),
(280,720,l),
(160,600,l),
(80,480,l),
(40,280,l),
(64,219,l)
);
},
{
closed = 1;
nodes = (
(627,294,l),
(680,400,l),
(840,400,l),
(840,440,l),
(680,440,l),
(800,680,l),
(720,680,l),
(640,480,l),
(560,440,l),
(240,440,l),
(240,400,l),
(560,400,l),
(530,340,l)
);
},
{
closed = 1;
nodes = (
(530,340,l),
(520,320,l),
(440,200,l),
(320,80,l),
(280,80,l),
(200,240,l),
(200,289,l),
(64,219,l),
(120,80,l),
(240,0,l),
(280,0,l),
(360,40,l),
(440,120,l),
(440,40,l),
(480,0,l),
(520,0,l),
(600,40,l),
(800,240,l),
(760,280,l),
(560,80,l),
(520,80,l),
(627,294,l)
);
}
);
width = 800;
},
{
hints = (
{
horizontal = 1;
place = (0, 80);
place = (0, 80);
type = Stem;
},
{
horizontal = 1;
place = (400, 40);
place = (400, 40);
type = Stem;
},
{
horizontal = 1;
place = (640, 40);
place = (640, 40);
type = Stem;
},
{
horizontal = 1;
place = (760, 40);
place = (760, 40);
type = Stem;
},
{
place = (40, 800);
place = (40, 800);
type = Stem;
},
{
horizontal = 1;
place = (600, 80);
place = (600, 80);
type = Stem;
}
);
layerId = "45DABB71-BDAF-41D9-9CB5-36007FEF02C0";
shapes = (
{
closed = 1;
nodes = (
(696,2871,l),
(766,2977,l),
(803,2990,l),
(854,2964,l),
(930,2863,l),
(967,2876,l),
(994,2926,l),
(917,3028,l),
(790,3028,l),
(715,3002,l),
(632,2919,l)
);
},
{
closed = 1;
nodes = (
(-1098,1013,l),
(-1141,1070,l),
(-1221,1310,l),
(-1188,1436,l),
(-1265,1461,l),
(-1292,1406,l),
(-1314,1175,l),
(-1309,1094,l),
(-1221,910,l),
(-1165,876,l)
);
},
{
closed = 1;
nodes = (
(3227,914,l),
(3336,959,l),
(3457,854,l),
(3483,884,l),
(3363,989,l),
(3611,1091,l),
(3551,1143,l),
(3359,1046,l),
(3272,1068,l),
(3031,1279,l),
(3005,1249,l),
(3246,1038,l),
(3184,1013,l)
);
},
{
closed = 1;
nodes = (
(1275,-1706,l),
(1276,-1729,l),
(1260,-1872,l),
(1209,-2034,l),
(1174,-2052,l),
(1029,-1947,l),
(1006,-1904,l),
(918,-2029,l),
(1032,-2126,l),
(1175,-2142,l),
(1210,-2123,l),
(1263,-2051,l),
(1297,-1943,l),
(1334,-2014,l),
(1388,-2031,l),
(1423,-2013,l),
(1476,-1940,l),
(1561,-1670,l),
(1507,-1653,l),
(1422,-1923,l),
(1386,-1942,l),
(1383,-1702,l)
);
}
);
width = 800;
}
);
note = ampersand;
unicode = 38;
},
{
glyphname = A;
kernLeft = A;
kernRight = A;
lastChange = "2024-02-26 21:24:15 +0000";
layers = (
{
hints = (
{
horizontal = 1;
place = (0, 840);
place = (0, 840);
type = Stem;
},
{
place = (-40, 800);
place = (-40, 800);
type = Stem;
}
);
layerId = m01;
shapes = (
{
closed = 1;
nodes = (
(207,142,l),
(160,80,l),
(240,0,l),
(-40,0,l),
(80,80,l),
(151,174,l)
);
},
{
closed = 1;
nodes = (
(680,219,l),
(680,80,l),
(760,0,l),
(480,0,l),
(560,80,l),
(560,172,l)
);
},
{
closed = 1;
nodes = (
(680,475,l),
(680,219,l),
(560,172,l),
(560,200,l),
(520,240,l),
(280,240,l),
(207,142,l),
(151,174,l),
(395,500,l),
(427,454,l),
(360,360,l),
(320,280,l),
(520,280,l),
(560,320,l),
(560,518,l)
);
},
{
closed = 1;
nodes = (
(560,518,l),
(560,640,l),
(427,454,l),
(395,500,l),
(560,720,l),
(560,760,l),
(680,840,l),
(680,475,l)
);
}
);
width = 800;
},
{
hints = (
{
horizontal = 1;
place = (0, 840);
place = (0, 840);
type = Stem;
},
{
place = (-40, 800);
place = (-40, 800);
type = Stem;
}
);
layerId = "45DABB71-BDAF-41D9-9CB5-36007FEF02C0";
shapes = (
{
closed = 1;
nodes = (
(-834,-2729,l),
(-833,-2807,l),
(-721,-2821,l),
(-942,-2993,l),
(-896,-2856,l),
(-898,-2738,l)
);
},
{
closed = 1;
nodes = (
(2530,-1024,l),
(2603,-1142,l),
(2713,-1168,l),
(2475,-1316,l),
(2501,-1205,l),
(2452,-1127,l)
);
},
{
closed = 1;
nodes = (
(-3417,875,l),
(-3608,705,l),
(-3723,763,l),
(-3702,782,l),
(-3699,838,l),
(-3858,1018,l),
(-3980,1008,l),
(-3993,1071,l),
(-3587,1104,l),
(-3600,1050,l),
(-3715,1038,l),
(-3802,1015,l),
(-3669,865,l),
(-3612,862,l),
(-3464,993,l)
);
},
{
closed = 1;
nodes = (
(1782,1776,l),
(1834,1886,l),
(1634,1776,l),
(1625,1831,l),
(1869,1959,l),
(1886,1995,l),
(2029,2015,l),
(1871,1686,l)
);
}
);
width = 800;
}
);
note = A;
unicode = 65;
},
{
glyphname = B;
kernRight = B;
lastChange = "2024-04-03 16:37:30 +0000";
layers = (
{
hints = (
{
horizontal = 1;
place = (40, 40);
place = (40, 40);
type = Stem;
},
{
horizontal = 1;
place = (600, -20);
target = down;
type = TopGhost;
},
{
place = (0, 760);
place = (0, 760);
type = Stem;
}
);
layerId = m01;
shapes = (
{
closed = 1;
nodes = (
(693,346,l),
(720,240,l),
(600,80,l),
(400,0,l),
(0,0,l),
(80,80,l),
(126,228,l),
(233,187,l),
(200,80,l),
(240,40,l),
(320,40,l),
(480,120,l),
(560,240,l),
(548,276,l)
);
},
{
closed = 1;
nodes = (
(126,228,l),
(246,611,l),
(361,596,l),
(233,187,l)
);
},
{
closed = 1;
nodes = (
(559,792,l),
(720,760,l),
(760,600,l),
(640,480,l),
(560,440,l),
(680,400,l),
(693,346,l),
(548,276,l),
(520,360,l),
(440,400,l),
(320,400,l),
(320,440,l),
(400,440,l),
(520,480,l),
(600,600,l),
(600,720,l),
(545,748,l)
);
},
{
closed = 1;
nodes = (
(545,748,l),
(520,760,l),
(440,760,l),
(400,720,l),
(361,596,l),
(246,611,l),
(280,720,l),
(200,800,l),
(520,800,l),
(559,792,l)
);
}
);
width = 760;
},
{
hints = (
{
horizontal = 1;
place = (40, 40);
place = (40, 40);
type = Stem;
},
{
horizontal = 1;
place = (600, -20);
target = down;
type = TopGhost;
},
{
place = (0, 760);
place = (0, 760);
type = Stem;
}
);
layerId = "45DABB71-BDAF-41D9-9CB5-36007FEF02C0";
shapes = (
{
closed = 1;
nodes = (
(1667,-1752,l),
(1728,-1843,l),
(1668,-2034,l),
(1506,-2176,l),
(1129,-2310,l),
(1178,-2208,l),
(1172,-2053,l),
(1286,-2056,l),
(1291,-2168,l),
(1342,-2192,l),
(1417,-2165,l),
(1541,-2036,l),
(1577,-1897,l),
(1553,-1867,l)
);
},
{
closed = 1;
nodes = (
(-1920,385,l),
(-1924,786,l),
(-1810,807,l),
(-1806,379,l)
);
},
{
closed = 1;
nodes = (
(3124,1907,l),
(3288,1914,l),
(3363,1767,l),
(3275,1623,l),
(3206,1565,l),
(3332,1554,l),
(3357,1504,l),
(3232,1403,l),
(3186,1478,l),
(3098,1498,l),
(2982,1471,l),
(2972,1510,l),
(3050,1528,l),
(3158,1595,l),
(3208,1730,l),
(3180,1847,l),
(3120,1861,l)
);
},
{
closed = 1;
nodes = (
(-50,2435,l),
(-71,2453,l),
(-147,2478,l),
(-197,2452,l),
(-271,2345,l),
(-376,2394,l),
(-311,2488,l),
(-364,2588,l),
(-59,2492,l),
(-24,2472,l)
);
}
);
width = 760;
}
);
note = B;
unicode = 66;
},
{
glyphname = C;
kernRight = C;
lastChange = "2024-04-03 16:37:49 +0000";
layers = (
{
hints = (
{
horizontal = 1;
place = (0, 40);
place = (0, 40);
type = Stem;
},
{
horizontal = 1;
place = (760, 40);
place = (760, 40);
type = Stem;
},
{
place = (640, 80);
place = (640, 80);
type = Stem;
}
);
layerId = m01;
shapes = (
{
closed = 1;
nodes = (
(386,685,l),
(480,760,l),
(560,760,l),
(640,680,l),
(640,560,l),
(720,560,l),
(800,640,l),
(760,720,l),
(560,800,l),
(440,800,l),
(341,750,l)
);
},
{
closed = 1;
nodes = (
(215,181,l),
(200,240,l),
(200,360,l),
(280,600,l),
(386,685,l),
(341,750,l),
(280,720,l),
(160,600,l),
(80,480,l),
(40,280,l),
(94,145,l)
);
},
{
closed = 1;
nodes = (
(514,49,l),
(560,80,l),
(680,200,l),
(640,240,l),
(520,120,l),
(476,90,l)
);
},
{
closed = 1;
nodes = (
(476,90,l),
(400,40,l),
(320,40,l),
(240,80,l),
(215,181,l),
(94,145,l),
(120,80,l),
(280,0,l),
(440,0,l),
(514,49,l)
);
}
);
width = 720;
},
{
hints = (
{
horizontal = 1;
place = (0, 40);
place = (0, 40);
type = Stem;
},
{
horizontal = 1;
place = (760, 40);
place = (760, 40);
type = Stem;
},
{
place = (640, 80);
place = (640, 80);
type = Stem;
}
);
layerId = "45DABB71-BDAF-41D9-9CB5-36007FEF02C0";
shapes = (
{
closed = 1;
nodes = (
(2175,2928,l),
(2278,2989,l),
(2357,2979,l),
(2426,2889,l),
(2410,2770,l),
(2489,2759,l),
(2579,2828,l),
(2550,2912,l),
(2363,3018,l),
(2244,3034,l),
(2139,2998,l)
);
},
{
closed = 1;
nodes = (
(-2768,1531,l),
(-2759,1591,l),
(-2712,1701,l),
(-2544,1890,l),
(-2413,1927,l),
(-2429,2004,l),
(-2496,2001,l),
(-2654,1937,l),
(-2775,1859,l),
(-2890,1690,l),
(-2894,1545,l)
);
},
{
closed = 1;
nodes = (
(3406,-728,l),
(3443,-686,l),
(3527,-538,l),
(3477,-510,l),
(3393,-658,l),
(3359,-698,l)
);
},
{
closed = 1;
nodes = (
(-800,-2018,l),
(-890,-2030,l),
(-962,-1996,l),
(-1017,-1925,l),
(-996,-1823,l),
(-1120,-1803,l),
(-1125,-1873,l),
(-1016,-2014,l),
(-872,-2084,l),
(-784,-2072,l)
);
}
);
width = 720;
}
);
note = C;
unicode = 67;
},
{
glyphname = D;
kernRight = D;
lastChange = "2024-02-26 21:23:39 +0000";
layers = (
{
hints = (
{
horizontal = 1;
place = (40, 40);
place = (40, 40);
type = Stem;
},
{
place = (-40, 880);
place = (-40, 880);
type = Stem;
}
);
layerId = m01;
shapes = (
{
closed = 1;
nodes = (
(645,125,l),
(600,80,l),
(440,0,l),
(-40,0,l),
(80,80,l),
(124,220,l),
(230,177,l),
(200,80,l),
(240,40,l),
(400,40,l),
(480,80,l),
(560,160,l)
);
},
{
closed = 1;
nodes = (
(822,566,l),
(840,520,l),
(800,320,l),
(720,200,l),
(645,125,l),
(560,160,l),
(600,200,l),
(680,440,l),
(680,513,l)
);
},
{
closed = 1;
nodes = (
(419,739,l),
(400,720,l),
(230,177,l),
(124,220,l),
(280,720,l),
(200,800,l),
(366,800,l)
);
},
{
closed = 1;
nodes = (
(366,800,l),
(560,800,l),
(760,720,l),
(822,566,l),
(680,513,l),
(680,560,l),
(640,720,l),
(560,760,l),
(440,760,l),
(419,739,l)
);
}
);
width = 840;
},
{
hints = (
{
horizontal = 1;
place = (40, 40);
place = (40, 40);
type = Stem;
},
{
place = (-40, 880);
place = (-40, 880);
type = Stem;
}
);
layerId = "45DABB71-BDAF-41D9-9CB5-36007FEF02C0";
shapes = (
{
closed = 1;
nodes = (
(-196,-2762,l),
(-255,-2785,l),
(-434,-2791,l),
(-871,-2593,l),
(-729,-2570,l),
(-631,-2461,l),
(-552,-2544,l),
(-620,-2619,l),
(-600,-2672,l),
(-454,-2738,l),
(-365,-2735,l),
(-259,-2695,l)
);
},
{
closed = 1;
nodes = (
(3317,-79,l),
(3358,-106,l),
(3441,-292,l),
(3445,-436,l),
(3428,-541,l),
(3338,-562,l),
(3348,-506,l),
(3274,-264,l),
(3232,-204,l)
);
},
{
closed = 1;
nodes = (
(-2727,2388,l),
(-2752,2376,l),
(-3096,1923,l),
(-3181,2000,l),
(-2864,2417,l),
(-2913,2519,l),
(-2756,2463,l)
);
},
{
closed = 1;
nodes = (
(695,3469,l),
(874,3543,l),
(1089,3546,l),
(1206,3428,l),
(1095,3325,l),
(1077,3368,l),
(978,3500,l),
(889,3507,l),
(778,3460,l),
(767,3433,l)
);
}
);
width = 840;
}
);
note = D;
unicode = 68;
},
{
glyphname = E;
kernRight = E;
lastChange = "2024-04-03 16:39:41 +0000";
layers = (
{
hints = (
{
horizontal = 1;
place = (40, 40);
place = (40, 40);
type = Stem;
},
{
horizontal = 1;
place = (240, 160);
place = (240, 160);
type = Stem;
},
{
horizontal = 1;
place = (600, -20);
target = down;
type = TopGhost;
},
{
place = (-40, 840);
place = (-40, 840);
type = Stem;
},
{
horizontal = 1;
place = (440, 320);
place = (440, 320);
type = Stem;
}
);
layerId = m01;
shapes = (
{
closed = 1;
nodes = (
(222,157,l),
(200,80,l),
(240,40,l),
(480,40,l),
(600,240,l),
(640,240,l),
(600,-40,l),
(520,0,l),
(-40,0,l),
(80,80,l),
(111,180,l)
);
},
{
closed = 1;
nodes = (
(571,800,l),
(600,800,l),
(760,840,l),
(800,600,l),
(760,600,l),
(640,760,l),
(556,760,l)
);
},
{
closed = 1;
nodes = (
(111,180,l),
(223,537,l),
(354,582,l),
(320,480,l),
(320,440,l),
(480,440,l),
(560,520,l),
(560,320,l),
(480,400,l),
(320,400,l),
(280,360,l),
(222,157,l)
);
},
{
closed = 1;
nodes = (
(556,760,l),
(440,760,l),
(400,720,l),
(354,582,l),
(223,537,l),
(280,720,l),
(200,800,l),
(571,800,l)
);
}
);
width = 720;
},
{
hints = (
{
horizontal = 1;
place = (40, 40);
place = (40, 40);
type = Stem;
},
{
horizontal = 1;
place = (240, 160);
place = (240, 160);
type = Stem;
},
{
horizontal = 1;
place = (600, -20);
target = down;
type = TopGhost;
},
{
place = (-40, 840);
place = (-40, 840);
type = Stem;
},
{
horizontal = 1;
place = (440, 320);
place = (440, 320);
type = Stem;
}
);
layerId = "45DABB71-BDAF-41D9-9CB5-36007FEF02C0";
shapes = (
{
closed = 1;
nodes = (
(-1218,-2291,l),
(-1259,-2359,l),
(-1231,-2408,l),
(-999,-2470,l),
(-831,-2308,l),
(-793,-2319,l),
(-904,-2579,l),
(-971,-2519,l),
(-1512,-2374,l),
(-1375,-2328,l),
(-1319,-2240,l)
);
},
{
closed = 1;
nodes = (
(4512,1960,l),
(4540,1954,l),
(4705,1961,l),
(4695,1717,l),
(4656,1726,l),
(4571,1907,l),
(4489,1924,l)
);
},
{
closed = 1;
nodes = (
(4338,7,l),
(4287,378,l),
(4386,474,l),
(4399,367,l),
(4416,331,l),
(4561,399,l),
(4599,506,l),
(4684,325,l),
(4578,363,l),
(4433,295,l),
(4414,242,l),
(4448,33,l)
);
},
{
closed = 1;
nodes = (
(-1213,2607,l),
(-1316,2661,l),
(-1370,2644,l),
(-1474,2543,l),
(-1611,2563,l),
(-1477,2699,l),
(-1511,2807,l),
(-1181,2636,l)
);
}
);
width = 720;
}
);
note = E;
unicode = 69;
},
{
glyphname = F;
kernRight = F;
lastChange = "2024-04-03 16:41:23 +0000";
layers = (
{
hints = (
{
horizontal = 1;
place = (600, -20);
target = down;
type = TopGhost;
},
{
place = (-40, 840);
place = (-40, 840);
type = Stem;
},
{
horizontal = 1;
place = (440, 320);
place = (440, 320);
type = Stem;
}
);
layerId = m01;
shapes = (
{
closed = 1;
nodes = (
(220,151,l),
(200,80,l),
(280,0,l),
(-40,0,l),
(80,80,l),
(118,202,l)
);
},
{
closed = 1;
nodes = (
(482,800,l),
(600,800,l),
(760,840,l),
(800,600,l),
(760,600,l),
(640,760,l),
(512,760,l)
);
},
{
closed = 1;
nodes = (
(231,562,l),
(280,720,l),
(200,800,l),
(482,800,l),
(512,760,l),
(440,760,l),
(400,720,l),
(356,588,l)
);
},
{
closed = 1;
nodes = (
(118,202,l),
(231,562,l),
(356,588,l),
(320,480,l),
(320,440,l),
(480,440,l),
(560,520,l),
(560,320,l),
(480,400,l),
(320,400,l),
(280,360,l),
(220,151,l)
);
}
);
width = 640;
},
{
hints = (
{
horizontal = 1;
place = (600, -20);
target = down;
type = TopGhost;
},
{
place = (-40, 840);
place = (-40, 840);
type = Stem;
},
{
horizontal = 1;
place = (440, 320);
place = (440, 320);
type = Stem;
}
);
layerId = "45DABB71-BDAF-41D9-9CB5-36007FEF02C0";
shapes = (
{
closed = 1;
nodes = (
(-1206,-2739,l),
(-1251,-2797,l),
(-1207,-2901,l),
(-1503,-2780,l),
(-1362,-2751,l),
(-1281,-2653,l)
);
},
{
closed = 1;
nodes = (
(2840,2692,l),
(2953,2657,l),
(3118,2648,l),
(3085,2407,l),
(3046,2419,l),
(2979,2607,l),
(2857,2645,l)
);
},
{
closed = 1;
nodes = (
(-1257,2622,l),
(-1295,2783,l),
(-1404,2812,l),
(-1161,2954,l),
(-1115,2935,l),
(-1177,2899,l),
(-1191,2844,l),
(-1162,2708,l)
);
},
{
closed = 1;
nodes = (
(3210,-556,l),
(3456,-271,l),
(3581,-296,l),
(3505,-381,l),
(3490,-418,l),
(3636,-481,l),
(3742,-440,l),
(3662,-623,l),
(3620,-518,l),
(3474,-455,l),
(3421,-475,l),
(3283,-643,l)
);
}
);
width = 640;
}
);
note = F;
unicode = 70;
},
{
glyphname = G;
lastChange = "2024-02-26 21:23:59 +0000";
layers = (
{
hints = (
{
horizontal = 1;
place = (320, 240);
place = (320, 240);
type = Stem;
},
{
place = (40, 760);
place = (40, 760);
type = Stem;
}
);
layerId = m01;
shapes = (
{
closed = 1;
nodes = (
(545,65,l),
(520,40,l),
(440,0,l),
(280,0,l),
(120,80,l),
(98,136,l),
(211,206,l),
(240,120,l),
(360,40,l),
(400,40,l),
(480,80,l),
(501,101,l)
);
},
{
closed = 1;
nodes = (
(359,759,l),
(440,800,l),
(560,800,l),
(760,720,l),
(800,640,l),
(720,560,l),
(640,560,l),
(640,680,l),
(560,760,l),
(480,760,l),
(395,692,l)
);
},
{
closed = 1;
nodes = (
(98,136,l),
(40,280,l),
(80,480,l),
(160,600,l),
(280,720,l),
(359,759,l),
(395,692,l),
(280,600,l),
(200,360,l),
(200,240,l),
(211,206,l)
);
},
{
closed = 1;
nodes = (
(501,101,l),
(520,120,l),
(560,240,l),
(520,320,l),
(760,320,l),
(680,240,l),
(600,120,l),
(545,65,l)
);
}
);
width = 760;
},
{
hints = (
{
horizontal = 1;
place = (320, 240);
place = (320, 240);
type = Stem;
},
{
place = (40, 760);
place = (40, 760);
type = Stem;
}
);
layerId = "45DABB71-BDAF-41D9-9CB5-36007FEF02C0";
shapes = (
{
closed = 1;
nodes = (
(-481,-3713,l),
(-511,-3731,l),
(-598,-3752,l),
(-754,-3717,l),
(-892,-3603,l),
(-901,-3543,l),
(-775,-3500,l),
(-766,-3591,l),
(-667,-3696,l),
(-628,-3705,l),
(-541,-3683,l),
(-516,-3668,l)
);
},
{
closed = 1;
nodes = (
(1950,3147,l),
(2040,3159,l),
(2153,3120,l),
(2316,2979,l),
(2328,2891,l),
(2226,2841,l),
(2151,2867,l),
(2190,2981,l),
(2140,3082,l),
(2065,3109,l),
(1962,3072,l)
);
},
{
closed = 1;
nodes = (
(-3234,2195,l),
(-3199,2347,l),
(-3052,2487,l),
(-2917,2540,l),
(-2750,2569,l),
(-2663,2555,l),
(-2672,2480,l),
(-2819,2471,l),
(-3022,2320,l),
(-3091,2222,l),
(-3102,2188,l)
);
},
{
closed = 1;
nodes = (
(3381,1314,l),
(3393,1339,l),
(3392,1465,l),
(3329,1528,l),
(3556,1605,l),
(3506,1504,l),
(3469,1364,l),
(3434,1295,l)
);
}
);
width = 760;
}
);
note = G;
unicode = 71;
},
{
glyphname = H;
kernRight = H;
lastChange = "2024-02-26 21:24:37 +0000";
layers = (
{
hints = (
{
horizontal = 1;
place = (0, 800);
place = (0, 800);
type = Stem;
},
{
place = (-40, 1120);
place = (-40, 1120);
type = Stem;
}
);
layerId = m01;
shapes = (
{
closed = 1;
nodes = (
(221,155,l),
(200,80,l),
(280,0,l),
(-40,0,l),
(80,80,l),
(125,224,l)
);
},
{
closed = 1;
nodes = (
(237,582,l),
(280,720,l),
(200,800,l),
(520,800,l),
(400,720,l),
(368,625,l)
);
},
{
closed = 1;
nodes = (
(932,632,l),
(760,80,l),
(840,0,l),
(520,0,l),
(640,80,l),
(720,360,l),
(720,400,l),
(532,400,l),
(557,440,l),
(720,440,l),
(760,480,l),
(791,573,l)
);
},
{
closed = 1;
nodes = (
(532,400,l),
(320,400,l),
(280,360,l),
(221,155,l),
(125,224,l),
(237,582,l),
(368,625,l),
(320,480,l),
(320,440,l),
(557,440,l)
);
},
{
closed = 1;
nodes = (
(791,573,l),
(840,720,l),
(760,800,l),
(1080,800,l),
(960,720,l),
(932,632,l)
);
}
);
width = 920;
},
{
hints = (
{
horizontal = 1;
place = (0, 800);
place = (0, 800);
type = Stem;
},
{
place = (-40, 1120);
place = (-40, 1120);
type = Stem;
}
);
layerId = "45DABB71-BDAF-41D9-9CB5-36007FEF02C0";
shapes = (
{
closed = 1;
nodes = (
(-275,-2238,l),
(-272,-2316,l),
(-169,-2366,l),
(-473,-2467,l),
(-385,-2354,l),
(-388,-2203,l)
);
},
{
closed = 1;
nodes = (
(857,2922,l),
(932,3046,l),
(873,3143,l),
(1184,3066,l),
(1048,3017,l),
(994,2933,l)
);
},
{
closed = 1;
nodes = (
(4256,-1746,l),
(3835,-2143,l),
(3866,-2252,l),
(3587,-2095,l),
(3731,-2084,l),
(3938,-1879,l),
(3957,-1844,l),
(3793,-1752,l),
(3835,-1730,l),
(3977,-1809,l),
(4031,-1794,l),
(4104,-1728,l)
);
},
{
closed = 1;
nodes = (
(-1993,1744,l),
(-2194,1812,l),
(-2245,1787,l),
(-2367,1612,l),
(-2435,1709,l),
(-2214,2011,l),
(-2076,2010,l),
(-2168,1888,l),
(-2181,1850,l),
(-1957,1773,l)
);
},
{
closed = 1;
nodes = (
(2129,2861,l),
(2230,2978,l),
(2186,3083,l),
(2482,2962,l),
(2341,2933,l),
(2282,2862,l)
);
}
);
width = 920;
}
);
note = H;
unicode = 72;
},
{
glyphname = I;
kernRight = H;
lastChange = "2024-02-26 21:23:08 +0000";
layers = (
{
hints = (
{
horizontal = 1;
place = (0, 800);
place = (0, 800);
type = Stem;
},
{
place = (-40, 560);
place = (-40, 560);
type = Stem;
}
);
layerId = m01;
shapes = (
{
closed = 1;
nodes = (
(248,233,l),
(200,80,l),
(280,0,l),
(-40,0,l),
(80,80,l),
(116,196,l)
);
},
{
closed = 1;
nodes = (
(255,641,l),
(280,720,l),
(200,800,l),
(520,800,l),
(400,720,l),
(343,538,l)
);
},
{
closed = 1;
nodes = (
(116,196,l),
(255,641,l),
(343,538,l),
(248,233,l)
);
}
);
width = 400;
},
{
hints = (
{
horizontal = 1;
place = (0, 800);
place = (0, 800);
type = Stem;
},
{
place = (-40, 560);
place = (-40, 560);
type = Stem;
}
);
layerId = "45DABB71-BDAF-41D9-9CB5-36007FEF02C0";
shapes = (
{
closed = 1;
nodes = (
(-404,-2437,l),
(-497,-2568,l),
(-446,-2669,l),
(-751,-2571,l),
(-611,-2532,l),
(-541,-2432,l)
);
},
{
closed = 1;
nodes = (
(1923,2283,l),
(1975,2347,l),
(1930,2451,l),
(2228,2334,l),
(2087,2303,l),
(1967,2155,l)
);
},
{
closed = 1;
nodes = (
(-3061,1500,l),
(-2638,1696,l),
(-2655,1562,l),
(-2945,1427,l)
);
}
);
width = 400;
}
);
note = I;
unicode = 73;
},
{
glyphname = J;
kernLeft = J;
lastChange = "2024-04-03 16:41:33 +0000";
layers = (
{
hints = (
{
horizontal = 1;
place = (-120, 920);
place = (-120, 920);
type = Stem;
},
{
place = (0, 600);
place = (0, 600);
type = Stem;
}
);
layerId = m01;
shapes = (
{
closed = 1;
nodes = (
(323,249,l),
(280,120,l),
(200,0,l),
(40,-120,l),
(0,-80,l),
(120,40,l),
(160,120,l),
(187,201,l)
);
},
{
closed = 1;
nodes = (
(421,544,l),
(323,249,l),
(187,201,l),
(275,466,l)
);
},
{
closed = 1;
nodes = (
(275,466,l),
(360,720,l),
(280,800,l),
(600,800,l),
(480,720,l),
(421,544,l)
);
}
);
width = 400;
},
{
hints = (
{
horizontal = 1;
place = (-120, 920);
place = (-120, 920);
type = Stem;
},
{
place = (0, 600);
place = (0, 600);
type = Stem;
}
);
layerId = "45DABB71-BDAF-41D9-9CB5-36007FEF02C0";
shapes = (
{
closed = 1;
nodes = (
(-1090,-2108,l),
(-1210,-2171,l),
(-1351,-2202,l),
(-1549,-2178,l),
(-1550,-2122,l),
(-1381,-2118,l),
(-1297,-2088,l),
(-1221,-2048,l)
);
},
{
closed = 1;
nodes = (
(3997,-134,l),
(3819,-389,l),
(3675,-396,l),
(3835,-167,l)
);
},
{
closed = 1;
nodes = (
(238,2797,l),
(441,2971,l),
(414,3081,l),
(688,2917,l),
(544,2910,l),
(403,2789,l)
);
}
);
width = 400;
}
);
note = J;
unicode = 74;
},
{
glyphname = K;
kernRight = K;
lastChange = "2024-04-03 16:41:53 +0000";
layers = (
{
hints = (
{
horizontal = 1;
place = (0, 21);
target = up;
type = BottomGhost;
},
{
place = (-40, 920);
place = (-40, 920);
type = Stem;
}
);
layerId = m01;
shapes = (
{
closed = 1;
nodes = (
(354,572,l),
(200,80,l),
(280,0,l),
(-40,0,l),
(80,80,l),
(184,412,l)
);
},
{
closed = 1;
nodes = (
(593,231,l),
(680,0,l),
(640,-40,l),
(520,80,l),
(488,159,l)
);
},
{
closed = 1;
nodes = (
(184,412,l),
(280,720,l),
(200,800,l),
(480,800,l),
(400,720,l),
(354,572,l)
);
},
{
closed = 1;
nodes = (
(473,559,l),
(680,720,l),
(600,800,l),
(880,800,l),
(527,535,l)
);
},
{
closed = 1;
nodes = (
(488,159,l),
(440,280,l),
(320,400,l),
(320,440,l),
(473,559,l),
(527,535,l),
(400,440,l),
(560,320,l),
(593,231,l)
);
}
);
width = 760;
},
{
hints = (
{
horizontal = 1;
place = (0, 21);
target = up;
type = BottomGhost;
},
{
place = (-40, 920);
place = (-40, 920);
type = Stem;
}
);
layerId = "45DABB71-BDAF-41D9-9CB5-36007FEF02C0";
shapes = (
{
closed = 1;
nodes = (
(-1919,-1628,l),
(-2012,-2135,l),
(-1923,-2205,l),
(-2241,-2244,l),
(-2131,-2150,l),
(-2068,-1808,l)
);
},
{
closed = 1;
nodes = (
(1961,-1731,l),
(2096,-1938,l),
(2065,-1985,l),
(1922,-1894,l),
(1874,-1824,l)
);
},
{
closed = 1;
nodes = (
(-867,2648,l),
(-900,2969,l),
(-1005,3012,l),
(-747,3121,l),
(-789,3016,l),
(-774,2862,l)
);
},
{
closed = 1;
nodes = (
(5100,2819,l),
(5297,2992,l),
(5212,3067,l),
(5492,3085,l),
(5156,2798,l)
);
},
{
closed = 1;
nodes = (
(3439,584,l),
(3412,711,l),
(3315,850,l),
(3322,889,l),
(3493,980,l),
(3542,947,l),
(3401,876,l),
(3538,730,l),
(3555,636,l)
);
}
);
width = 760;
}
);
note = K;
unicode = 75;
},
{
glyphname = L;
kernRight = L;
lastChange = "2024-04-03 16:42:06 +0000";
layers = (
{
hints = (
{
horizontal = 1;
place = (40, 40);
place = (40, 40);
type = Stem;
},
{
place = (-40, 640);
place = (-40, 640);
type = Stem;
}
);
layerId = m01;
shapes = (
{
closed = 1;
nodes = (
(354,40,l),
(440,40,l),
(560,240,l),
(600,240,l),
(560,-40,l),
(480,0,l),
(341,0,l)
);
},
{
closed = 1;
nodes = (
(224,542,l),
(280,720,l),
(200,800,l),
(520,800,l),
(400,720,l),
(361,595,l)
);
},
{
closed = 1;
nodes = (
(130,240,l),
(224,542,l),
(361,595,l),
(227,166,l)
);
},
{
closed = 1;
nodes = (
(341,0,l),
(-40,0,l),
(80,80,l),
(130,240,l),
(227,166,l),
(200,80,l),
(240,40,l),
(354,40,l)
);
}
);
width = 600;
},
{
hints = (
{
horizontal = 1;
place = (40, 40);
place = (40, 40);
type = Stem;
},
{
place = (-40, 640);
place = (-40, 640);
type = Stem;
}
);
layerId = "45DABB71-BDAF-41D9-9CB5-36007FEF02C0";
shapes = (
{
closed = 1;
nodes = (
(3530,-1660,l),
(3613,-1638,l),
(3676,-1413,l),
(3714,-1403,l),
(3750,-1683,l),
(3662,-1666,l),
(3528,-1702,l)
);
},
{
closed = 1;
nodes = (
(-1331,1373,l),
(-1411,1542,l),
(-1524,1546,l),
(-1290,1764,l),
(-1323,1623,l),
(-1267,1505,l)
);
},
{
closed = 1;
nodes = (
(3447,-48,l),
(3432,268,l),
(3543,364,l),
(3563,-85,l)
);
},
{
closed = 1;
nodes = (
(-1543,-2141,l),
(-1908,-2032,l),
(-1771,-1990,l),
(-1677,-1851,l),
(-1605,-1950,l),
(-1656,-2024,l),
(-1629,-2074,l),
(-1519,-2107,l)
);
}
);
width = 600;
}
);
note = L;
unicode = 76;
},
{
glyphname = M;
kernRight = H;
lastChange = "2024-04-03 16:42:25 +0000";
layers = (
{
hints = (
{
horizontal = 1;
place = (-40, 840);
place = (-40, 840);
type = Stem;
},
{
place = (240, 120);
place = (240, 120);
type = Stem;
}
);
layerId = m01;
shapes = (
{
closed = 1;
nodes = (
(247,377,l),
(160,80,l),
(240,0,l),
(-40,0,l),
(80,80,l),
(189,430,l)
);
},
{
closed = 1;
nodes = (
(611,264,l),
(440,0,l),
(360,-40,l),
(360,328,l),
(480,464,l),
(480,160,l),
(581,322,l)
);
},
{
closed = 1;
nodes = (
(360,328,l),
(360,760,l),
(247,377,l),
(189,430,l),
(280,720,l),
(200,800,l),
(480,800,l),
(480,464,l)
);
},
{
closed = 1;
nodes = (
(902,406,l),
(800,80,l),
(880,0,l),
(560,0,l),
(680,80,l),
(772,356,l)
);
},
{
closed = 1;
nodes = (
(772,356,l),
(880,680,l),
(611,264,l),
(581,322,l),
(880,800,l),
(1120,800,l),
(1000,720,l),
(902,406,l)
);
}
);
width = 1000;
},
{
hints = (
{
horizontal = 1;
place = (-40, 840);
place = (-40, 840);
type = Stem;
},
{
place = (240, 120);
place = (240, 120);
type = Stem;
}
);
layerId = "45DABB71-BDAF-41D9-9CB5-36007FEF02C0";
shapes = (
{
closed = 1;
nodes = (
(-984,-1671,l),
(-1148,-1933,l),
(-1092,-2033,l),
(-1362,-1957,l),
(-1225,-1912,l),
(-1026,-1605,l)
);
},
{
closed = 1;
nodes = (
(1061,-2379,l),
(1009,-2689,l),
(951,-2757,l),
(805,-2419,l),
(862,-2247,l),
(982,-2526,l),
(1011,-2338,l)
);
},
{
closed = 1;
nodes = (
(39,3154,l),
(-53,3577,l),
(-82,3178,l),
(-150,3218,l),
(-123,3521,l),
(-218,3582,l),
(56,3641,l),
(127,3313,l)
);
},
{
closed = 1;
nodes = (
(4010,-2006,l),
(4144,-2321,l),
(4257,-2329,l),
(4013,-2537,l),
(4053,-2399,l),
(3943,-2129,l)
);
},
{
closed = 1;
nodes = (
(2451,2742,l),
(2602,3048,l),
(2278,2673,l),
(2257,2734,l),
(2619,3166,l),
(2856,3133,l),
(2726,3071,l),
(2586,2773,l)
);
}
);
width = 1000;
}
);
note = M;
unicode = 77;
},
{
glyphname = N;
kernRight = N;
lastChange = "2024-04-03 16:42:38 +0000";
layers = (
{
hints = (
{
horizontal = 1;
place = (-40, 840);
place = (-40, 840);
type = Stem;
},
{
place = (-40, 1040);
place = (-40, 1040);
type = Stem;
}
);
layerId = m01;
shapes = (
{
closed = 1;
nodes = (
(224,297,l),
(160,80,l),
(240,0,l),
(-40,0,l),
(80,80,l),
(143,280,l)
);
},
{
closed = 1;
nodes = (
(756,299,l),
(680,40,l),
(560,-40,l),
(437,452,l),
(550,503,l),
(640,120,l),
(698,337,l)
);
},
{
closed = 1;
nodes = (
(437,452,l),
(360,760,l),
(224,297,l),
(143,280,l),
(280,720,l),
(200,800,l),
(480,800,l),
(550,503,l)
);
},
{
closed = 1;
nodes = (
(698,337,l),
(800,720,l),
(720,800,l),
(1000,800,l),
(880,720,l),
(756,299,l)
);
}
);
width = 880;
},
{
hints = (
{
horizontal = 1;
place = (-40, 840);
place = (-40, 840);
type = Stem;
},
{
place = (-40, 1040);
place = (-40, 1040);
type = Stem;
}
);
layerId = "45DABB71-BDAF-41D9-9CB5-36007FEF02C0";
shapes = (
{
closed = 1;
nodes = (
(-1313,-2236,l),
(-1449,-2417,l),
(-1402,-2520,l),
(-1664,-2422,l),
(-1524,-2389,l),
(-1395,-2224,l)
);
},
{
closed = 1;
nodes = (
(1995,-2133,l),
(2032,-2400,l),
(1955,-2522,l),
(1641,-2124,l),
(1724,-2031,l),
(1963,-2344,l),
(1927,-2122,l)
);
},
{
closed = 1;
nodes = (
(-1036,2784,l),
(-1217,3045,l),
(-1181,2564,l),
(-1251,2520,l),
(-1278,2980,l),
(-1381,3026,l),
(-1119,3125,l),
(-949,2872,l)
);
},
{
closed = 1;
nodes = (
(2964,2644,l),
(3246,2923,l),
(3217,3033,l),
(3459,2892,l),
(3315,2883,l),
(2995,2582,l)
);
}
);
width = 880;
}
);
note = N;
unicode = 78;
},
{
glyphname = O;
kernRight = D;
lastChange = "2024-02-26 21:24:55 +0000";
layers = (
{
hints = (
{
horizontal = 1;
place = (0, 800);
place = (0, 800);
type = Stem;
},
{
place = (40, 800);
place = (40, 800);
type = Stem;
}
);
layerId = m01;
shapes = (
{
closed = 1;
nodes = (
(645,125,l),
(600,80,l),
(440,0,l),
(320,0,l),
(120,80,l),
(97,138,l),
(213,187,l),
(240,80,l),
(320,40,l),
(400,40,l),
(480,80,l),
(562,162,l)
);
},
{
closed = 1;
nodes = (
(97,138,l),
(40,280,l),
(80,480,l),
(160,600,l),
(280,720,l),
(349,755,l),
(378,679,l),
(280,600,l),
(200,360,l),
(200,240,l),
(213,187,l)
);
},
{
closed = 1;
nodes = (
(802,614,l),
(840,520,l),
(800,320,l),
(720,200,l),
(645,125,l),
(562,162,l),
(600,200,l),
(680,440,l),
(680,560,l),
(674,586,l)
);
},
{
closed = 1;
nodes = (
(674,586,l),
(640,720,l),
(560,760,l),
(480,760,l),
(378,679,l),
(349,755,l),
(440,800,l),
(560,800,l),
(760,720,l),
(802,614,l)
);
}
);
width = 840;
},
{
hints = (
{
horizontal = 1;
place = (0, 800);
place = (0, 800);
type = Stem;
},
{
place = (40, 800);
place = (40, 800);
type = Stem;
}
);
layerId = "45DABB71-BDAF-41D9-9CB5-36007FEF02C0";
shapes = (
{
closed = 1;
nodes = (
(-418,-3378,l),
(-480,-3393,l),
(-658,-3379,l),
(-761,-3317,l),
(-891,-3145,l),
(-881,-3084,l),
(-756,-3101,l),
(-788,-3207,l),
(-740,-3283,l),
(-672,-3324,l),
(-583,-3331,l),
(-470,-3303,l)
);
},
{
closed = 1;
nodes = (
(-3371,586,l),
(-3478,695,l),
(-3519,895,l),
(-3491,1037,l),
(-3427,1194,l),
(-3377,1253,l),
(-3321,1194,l),
(-3381,1083,l),
(-3361,831,l),
(-3315,720,l),
(-3283,677,l)
);
},
{
closed = 1;
nodes = (
(4366,-670,l),
(4365,-771,l),
(4249,-940,l),
(4129,-1020,l),
(4030,-1061,l),
(3968,-994,l),
(4018,-974,l),
(4186,-784,l),
(4232,-673,l),
(4237,-647,l)
);
},
{
closed = 1;
nodes = (
(-33,3288,l),
(-146,3368,l),
(-233,3346,l),
(-293,3294,l),
(-318,3166,l),
(-390,3205,l),
(-350,3298,l),
(-259,3376,l),
(-55,3446,l),
(46,3393,l)
);
}
);
width = 840;
}
);
note = O;
unicode = 79;
},
{
glyphname = P;
kernRight = P;
lastChange = "2024-04-03 16:42:53 +0000";
layers = (
{
hints = (
{
horizontal = 1;
place = (600, -20);
target = down;
type = TopGhost;
},
{
place = (-40, 840);
place = (-40, 840);
type = Stem;
}
);
layerId = m01;
shapes = (
{
closed = 1;
nodes = (
(239,204,l),
(200,80,l),
(280,0,l),
(-40,0,l),
(80,80,l),
(129,238,l)
);
},
{
closed = 1;
nodes = (
(680,449,l),
(640,400,l),
(440,320,l),
(320,360,l),
(320,400,l),
(400,400,l),
(520,440,l),
(561,495,l)
);
},
{
closed = 1;
nodes = (
(561,495,l),
(640,600,l),
(600,720,l),
(520,760,l),
(440,760,l),
(400,720,l),
(368,618,l),
(232,567,l),
(280,720,l),
(200,800,l),
(520,800,l),
(720,760,l),
(800,600,l),
(680,449,l)
);
},
{
closed = 1;
nodes = (
(129,238,l),
(232,567,l),
(368,618,l),
(239,204,l)
);
}
);
width = 720;
},
{
hints = (
{
horizontal = 1;
place = (600, -20);
target = down;
type = TopGhost;
},
{
place = (-40, 840);
place = (-40, 840);
type = Stem;
}
);
layerId = "45DABB71-BDAF-41D9-9CB5-36007FEF02C0";
shapes = (
{
closed = 1;
nodes = (
(-1115,-2411,l),
(-1189,-2518,l),
(-1136,-2618,l),
(-1442,-2524,l),
(-1304,-2483,l),
(-1210,-2346,l)
);
},
{
closed = 1;
nodes = (
(3497,-1392,l),
(3484,-1454,l),
(3341,-1615,l),
(3215,-1633,l),
(3197,-1597,l),
(3269,-1561,l),
(3358,-1472,l),
(3370,-1404,l)
);
},
{
closed = 1;
nodes = (
(264,2755,l),
(324,2872,l),
(264,2983,l),
(178,3009,l),
(100,2995,l),
(67,2949,l),
(53,2843,l),
(-72,2770,l),
(-51,2929,l),
(-144,2994,l),
(172,3049,l),
(375,3043,l),
(482,2899,l),
(389,2730,l)
);
},
{
closed = 1;
nodes = (
(-3103,1450,l),
(-2983,1775,l),
(-2844,1819,l),
(-2995,1412,l)
);
}
);
width = 720;
}
);
note = P;
unicode = 80;
},
{
glyphname = Q;
kernRight = D;
lastChange = "2024-04-03 16:43:13 +0000";
layers = (
{
hints = (
{
horizontal = 1;
place = (-160, 40);
place = (-160, 40);
type = Stem;
},
{
horizontal = 1;
place = (0, 21);
target = up;
type = BottomGhost;
},
{
horizontal = 1;
place = (760, 40);
place = (760, 40);
type = Stem;
},
{
place = (40, 800);
place = (40, 800);
type = Stem;
},
{
horizontal = 1;
place = (0, 40);
place = (0, 40);
type = Stem;
}
);
layerId = m01;
shapes = (
{
closed = 1;
nodes = (
(778,675,l),
(760,720,l),
(560,800,l),
(440,800,l),
(311,736,l),
(379,679,l),
(480,760,l),
(560,760,l),
(640,720,l),
(669,604,l)
);
},
{
closed = 1;
nodes = (
(311,736,l),
(280,720,l),
(160,600,l),
(80,480,l),
(40,280,l),
(66,214,l),
(200,272,l),
(200,360,l),
(280,600,l),
(379,679,l)
);
},
{
closed = 1;
nodes = (
(623,103,l),
(720,200,l),
(800,320,l),
(840,520,l),
(778,675,l),
(669,604,l),
(680,560,l),
(680,440,l),
(600,200,l),
(541,141,l)
);
},
{
closed = 1;
nodes = (
(541,141,l),
(480,80,l),
(400,40,l),
(320,40,l),
(240,80,l),
(200,240,l),
(200,272,l),
(66,214,l),
(120,80,l),
(320,0,l),
(480,-160,l),
(640,-200,l),
(800,-160,l),
(800,-120,l),
(680,-120,l),
(560,-80,l),
(440,0,l),
(600,80,l),
(623,103,l)
);
}
);
width = 840;
},
{
hints = (
{
horizontal = 1;
place = (-160, 40);
place = (-160, 40);
type = Stem;
},
{
horizontal = 1;
place = (0, 21);
target = up;
type = BottomGhost;
},
{
horizontal = 1;
place = (760, 40);
place = (760, 40);
type = Stem;
},
{
place = (40, 800);
place = (40, 800);
type = Stem;
},
{
horizontal = 1;
place = (0, 40);
place = (0, 40);
type = Stem;
}
);
layerId = "45DABB71-BDAF-41D9-9CB5-36007FEF02C0";
shapes = (
{
closed = 1;
nodes = (
(2041,2769,l),
(2029,2816,l),
(1840,2921,l),
(1721,2936,l),
(1585,2888,l),
(1646,2823,l),
(1756,2891,l),
(1835,2881,l),
(1910,2831,l),
(1924,2713,l)
);
},
{
closed = 1;
nodes = (
(-2009,2122,l),
(-2033,2096,l),
(-2104,1942,l),
(-2138,1802,l),
(-2106,1600,l),
(-2059,1548,l),
(-1953,1648,l),
(-1983,1731,l),
(-1991,1984,l),
(-1926,2092,l)
);
},
{
closed = 1;
nodes = (
(3995,1053,l),
(4057,1175,l),
(4096,1314,l),
(4072,1517,l),
(3965,1645,l),
(3883,1543,l),
(3907,1505,l),
(3945,1391,l),
(3943,1138,l),
(3905,1064,l)
);
},
{
closed = 1;
nodes = (
(-85,-2086,l),
(-104,-2170,l),
(-151,-2247,l),
(-219,-2289,l),
(-308,-2297,l),
(-426,-2183,l),
(-443,-2156,l),
(-526,-2276,l),
(-409,-2361,l),
(-197,-2323,l),
(23,-2374,l),
(180,-2323,l),
(295,-2204,l),
(273,-2170,l),
(172,-2234,l),
(49,-2264,l),
(-96,-2259,l),
(-2,-2107,l),
(5,-2075,l)
);
}
);
width = 840;
}
);
note = Q;
unicode = 81;
},
{
glyphname = R;
kernRight = R;
lastChange = "2024-02-26 21:22:57 +0000";
layers = (
{
hints = (
{
horizontal = 1;
place = (0, 21);
target = up;
type = BottomGhost;
},
{
horizontal = 1;
place = (600, -20);
target = down;
type = TopGhost;
},
{
place = (-40, 840);
place = (-40, 840);
type = Stem;
}
);
layerId = m01;
shapes = (
{
closed = 1;
nodes = (
(239,206,l),
(200,80,l),
(280,0,l),
(-40,0,l),
(80,80,l),
(148,298,l)
);
},
{
closed = 1;
nodes = (
(419,739,l),
(400,720,l),
(239,206,l),
(148,298,l),
(280,720,l),
(200,800,l),
(399,800,l)
);
},
{
closed = 1;
nodes = (
(591,238,l),
(680,0,l),
(640,-40,l),
(520,80,l),
(489,157,l)
);
},
{
closed = 1;
nodes = (
(628,637,l),
(600,720,l),
(520,760,l),
(440,760,l),
(419,739,l),
(399,800,l),
(520,800,l),
(720,760,l),
(768,664,l)
);
},
{
closed = 1;
nodes = (
(489,157,l),
(440,280,l),
(400,360,l),
(320,400,l),
(320,440,l),
(480,440,l),
(560,480,l),
(640,600,l),
(628,637,l),
(768,664,l),
(800,600,l),
(680,440,l),
(440,400,l),
(560,320,l),
(591,238,l)
);
}
);
width = 760;
},
{
hints = (
{
horizontal = 1;
place = (0, 21);
target = up;
type = BottomGhost;
},
{
horizontal = 1;
place = (600, -20);
target = down;
type = TopGhost;
},
{
place = (-40, 840);
place = (-40, 840);
type = Stem;
}
);
layerId = "45DABB71-BDAF-41D9-9CB5-36007FEF02C0";
shapes = (
{
closed = 1;
nodes = (
(-1391,-2086,l),
(-1430,-2212,l),
(-1350,-2292,l),
(-1670,-2292,l),
(-1550,-2212,l),
(-1482,-1994,l)
);
},
{
closed = 1;
nodes = (
(-588,2389,l),
(-613,2379,l),
(-968,1974,l),
(-1014,2095,l),
(-723,2428,l),
(-764,2533,l),
(-582,2453,l)
);
},
{
closed = 1;
nodes = (
(1480,-1562,l),
(1598,-1786,l),
(1564,-1831,l),
(1430,-1727,l),
(1389,-1655,l)
);
},
{
closed = 1;
nodes = (
(1545,2529,l),
(1472,2578,l),
(1384,2561,l),
(1321,2513,l),
(1317,2483,l),
(1264,2520,l),
(1360,2593,l),
(1543,2683,l),
(1639,2635,l)
);
},
{
closed = 1;
nodes = (
(3818,29,l),
(3738,134,l),
(3677,199,l),
(3589,216,l),
(3578,255,l),
(3732,299,l),
(3798,360,l),
(3841,496,l),
(3819,529,l),
(3947,594,l),
(3995,541,l),
(3924,354,l),
(3704,249,l),
(3842,206,l),
(3895,135,l)
);
}
);
width = 760;
}
);
note = R;
unicode = 82;
},
{
glyphname = S;
lastChange = "2024-02-26 21:23:24 +0000";
layers = (
{
hints = (
{
horizontal = 1;
place = (600, -20);
target = down;
type = TopGhost;
},
{
place = (0, 680);
place = (0, 680);
type = Stem;
}
);
layerId = m01;
shapes = (
{
closed = 1;
nodes = (
(371,-15,l),
(320,-40,l),
(120,0,l),
(40,-40,l),
(0,240,l),
(40,240,l),
(160,40,l),
(280,40,l),
(325,62,l)
);
},
{
closed = 1;
nodes = (
(319,813,l),
(360,840,l),
(560,800,l),
(640,840,l),
(680,600,l),
(640,600,l),
(520,760,l),
(400,760,l),
(377,737,l)
);
},
{
closed = 1;
nodes = (
(278,403,l),
(240,480,l),
(200,640,l),
(240,760,l),
(319,813,l),
(377,737,l),
(360,720,l),
(320,640,l),
(400,520,l),
(424,473,l)
);
},
{
closed = 1;
nodes = (
(325,62,l),
(360,80,l),
(400,120,l),
(400,200,l),
(320,320,l),
(278,403,l),
(424,473,l),
(480,360,l),
(520,200,l),
(480,40,l),
(371,-15,l)
);
}
);
width = 600;
},
{
hints = (
{
horizontal = 1;
place = (600, -20);
target = down;
type = TopGhost;
},
{
place = (0, 680);
place = (0, 680);
type = Stem;
}
);
layerId = "45DABB71-BDAF-41D9-9CB5-36007FEF02C0";
shapes = (
{
closed = 1;
nodes = (
(-2048,-2526,l),
(-2105,-2528,l),
(-2271,-2410,l),
(-2360,-2414,l),
(-2282,-2142,l),
(-2246,-2158,l),
(-2218,-2390,l),
(-2109,-2439,l),
(-2058,-2437,l)
);
},
{
closed = 1;
nodes = (
(2749,2614,l),
(2798,2607,l),
(2918,2442,l),
(3004,2418,l),
(2872,2214,l),
(2843,2241,l),
(2862,2440,l),
(2773,2521,l),
(2741,2519,l)
);
},
{
closed = 1;
nodes = (
(-3501,414,l),
(-3564,471,l),
(-3660,606,l),
(-3667,732,l),
(-3613,810,l),
(-3531,761,l),
(-3541,739,l),
(-3548,650,l),
(-3430,567,l),
(-3390,532,l)
);
},
{
closed = 1;
nodes = (
(3465,-749,l),
(3504,-750,l),
(3559,-734,l),
(3597,-664,l),
(3583,-519,l),
(3586,-426,l),
(3748,-434,l),
(3743,-560,l),
(3702,-720,l),
(3591,-842,l),
(3469,-838,l)
);
}
);
width = 600;
}
);
note = S;
unicode = 83;
},
{
glyphname = T;
kernLeft = T;
kernRight = T;
lastChange = "2024-04-03 16:43:30 +0000";
layers = (
{
hints = (
{
horizontal = 1;
place = (600, -20);
target = down;
type = TopGhost;
},
{
place = (120, 720);
place = (120, 720);
type = Stem;
}
);
layerId = m01;
shapes = (
{
closed = 1;
nodes = (
(432,324,l),
(360,80,l),
(440,0,l),
(120,0,l),
(240,80,l),
(299,280,l)
);
},
{
closed = 1;
nodes = (
(494,534,l),
(432,324,l),
(299,280,l),
(391,595,l)
);
},
{
closed = 1;
nodes = (
(384,749,l),
(240,720,l),
(200,600,l),
(160,600,l),
(160,840,l),
(320,800,l),
(405,800,l)
);
},
{
closed = 1;
nodes = (
(391,595,l),
(440,760,l),
(384,749,l),
(405,800,l),
(640,800,l),
(800,840,l),
(840,600,l),
(800,600,l),
(720,720,l),
(560,760,l),
(494,534,l)
);
}
);
width = 680;
},
{
hints = (
{
horizontal = 1;
place = (600, -20);
target = down;
type = TopGhost;
},
{
place = (120, 720);
place = (120, 720);
type = Stem;
}
);
layerId = "45DABB71-BDAF-41D9-9CB5-36007FEF02C0";
shapes = (
{
closed = 1;
nodes = (
(1557,-1942,l),
(1621,-2189,l),
(1731,-2216,l),
(1457,-2381,l),
(1518,-2250,l),
(1466,-2049,l)
);
},
{
closed = 1;
nodes = (
(-2212,1404,l),
(-2358,1240,l),
(-2497,1257,l),
(-2279,1503,l)
);
},
{
closed = 1;
nodes = (
(-888,2365,l),
(-1023,2307,l),
(-1037,2181,l),
(-1076,2173,l),
(-1126,2407,l),
(-962,2402,l),
(-878,2419,l)
);
},
{
closed = 1;
nodes = (
(1749,2906,l),
(1840,3052,l),
(1783,3056,l),
(1817,3100,l),
(2043,3037,l),
(2208,3034,l),
(2183,2791,l),
(2145,2802,l),
(2099,2939,l),
(1956,3020,l),
(1832,2820,l)
);
}
);
width = 680;
}
);
note = T;
unicode = 84;
},
{
glyphname = U;
kernRight = U;
lastChange = "2024-04-03 16:43:57 +0000";
layers = (
{
hints = (
{
horizontal = 1;
place = (0, 800);
place = (0, 800);
type = Stem;
},
{
place = (80, 880);
place = (80, 880);
type = Stem;
}
);
layerId = m01;
shapes = (
{
closed = 1;
nodes = (
(447,16,l),
(400,0,l),
(320,0,l),
(160,40,l),
(80,120,l),
(80,240,l),
(183,550,l),
(276,467,l),
(200,240,l),
(200,160,l),
(240,80,l),
(320,40,l),
(360,40,l),
(436,65,l)
);
},
{
closed = 1;
nodes = (
(183,550,l),
(240,720,l),
(160,800,l),
(480,800,l),
(360,720,l),
(276,467,l)
);
},
{
closed = 1;
nodes = (
(780,540,l),
(680,240,l),
(600,120,l),
(520,40,l),
(447,16,l),
(436,65,l),
(480,80,l),
(520,120,l),
(600,240,l),
(665,501,l)
);
},
{
closed = 1;
nodes = (
(665,501,l),
(720,720,l),
(640,800,l),
(960,800,l),
(840,720,l),
(780,540,l)
);
}
);
width = 840;
},
{
hints = (
{
horizontal = 1;
place = (0, 800);
place = (0, 800);
type = Stem;
},
{
place = (80, 880);
place = (80, 880);
type = Stem;
}
);
layerId = "45DABB71-BDAF-41D9-9CB5-36007FEF02C0";
shapes = (
{
closed = 1;
nodes = (
(-2042,-1600,l),
(-2092,-1601,l),
(-2168,-1576,l),
(-2309,-1490,l),
(-2361,-1389,l),
(-2324,-1275,l),
(-2132,-1011,l),
(-2069,-1118,l),
(-2210,-1311,l),
(-2234,-1388,l),
(-2220,-1476,l),
(-2156,-1538,l),
(-2118,-1550,l),
(-2038,-1550,l)
);
},
{
closed = 1;
nodes = (
(350,2863,l),
(357,3042,l),
(258,3097,l),
(565,3186,l),
(472,3076,l),
(462,2809,l)
);
},
{
closed = 1;
nodes = (
(3024,-1164,l),
(2832,-1416,l),
(2717,-1503,l),
(2616,-1553,l),
(2539,-1552,l),
(2544,-1502,l),
(2591,-1502,l),
(2642,-1477,l),
(2756,-1390,l),
(2902,-1164,l)
);
},
{
closed = 1;
nodes = (
(3223,2109,l),
(3356,2291,l),
(3312,2396,l),
(3608,2276,l),
(3467,2246,l),
(3344,2102,l)
);
}
);
width = 840;
}
);
note = U;
unicode = 85;
},
{
glyphname = V;
kernLeft = V;
kernRight = V;
lastChange = "2024-04-03 16:43:44 +0000";
layers = (
{
hints = (
{
horizontal = 1;
place = (-40, 840);
place = (-40, 840);
type = Stem;
},
{
place = (0, 800);
place = (0, 800);
type = Stem;
}
);
layerId = m01;
shapes = (
{
closed = 1;
nodes = (
(299,193,l),
(160,0,l),
(80,-40,l),
(80,484,l),
(200,567,l),
(200,160,l),
(270,259,l)
);
},
{
closed = 1;
nodes = (
(80,484,l),
(80,720,l),
(0,800,l),
(280,800,l),
(200,720,l),
(200,567,l)
);
},
{
closed = 1;
nodes = (
(537,522,l),
(299,193,l),
(270,259,l),
(442,500,l)
);
},
{
closed = 1;
nodes = (
(442,500,l),
(600,720,l),
(520,800,l),
(800,800,l),
(680,720,l),
(537,522,l)
);
}
);
width = 680;
},
{
hints = (
{
horizontal = 1;
place = (-40, 840);
place = (-40, 840);
type = Stem;
},
{
place = (0, 800);
place = (0, 800);
type = Stem;
}
);
layerId = "45DABB71-BDAF-41D9-9CB5-36007FEF02C0";
shapes = (
{
closed = 1;
nodes = (
(-1676,-2094,l),
(-1847,-2259,l),
(-1933,-2284,l),
(-1839,-1769,l),
(-1706,-1709,l),
(-1779,-2109,l),
(-1693,-2024,l)
);
},
{
closed = 1;
nodes = (
(-973,2635,l),
(-1031,2863,l),
(-1128,2921,l),
(-857,2990,l),
(-915,2893,l),
(-877,2745,l)
);
},
{
closed = 1;
nodes = (
(2703,-1001,l),
(2437,-1307,l),
(2414,-1239,l),
(2606,-1014,l)
);
},
{
closed = 1;
nodes = (
(1837,2080,l),
(2057,2237,l),
(2007,2339,l),
(2272,2249,l),
(2133,2212,l),
(1934,2070,l)
);
}
);
width = 680;
}
);
note = V;
unicode = 86;
},
{
glyphname = W;
kernLeft = V;
kernRight = V;
lastChange = "2024-02-26 21:25:13 +0000";
layers = (
{
hints = (
{
horizontal = 1;
place = (600, -20);
target = down;
type = TopGhost;
},
{
place = (200, 280);
place = (200, 280);
type = Stem;
}
);
layerId = m01;
shapes = (
{
closed = 1;
nodes = (
(336,330,l),
(160,0,l),
(80,-40,l),
(80,502,l),
(200,591,l),
(200,200,l),
(303,391,l)
);
},
{
closed = 1;
nodes = (
(80,502,l),
(80,720,l),
(0,800,l),
(280,800,l),
(200,720,l),
(200,591,l)
);
},
{
closed = 1;
nodes = (
(738,357,l),
(520,0,l),
(480,-40,l),
(480,427,l),
(600,512,l),
(600,240,l),
(699,410,l)
);
},
{
closed = 1;
nodes = (
(480,427,l),
(480,600,l),
(336,330,l),
(303,391,l),
(480,720,l),
(600,760,l),
(600,512,l)
);
},
{
closed = 1;
nodes = (
(699,410,l),
(880,720,l),
(800,800,l),
(1080,800,l),
(960,720,l),
(738,357,l)
);
}
);
width = 960;
},
{
hints = (
{
horizontal = 1;
place = (600, -20);
target = down;
type = TopGhost;
},
{
place = (200, 280);
place = (200, 280);
type = Stem;
}
);
layerId = "45DABB71-BDAF-41D9-9CB5-36007FEF02C0";
shapes = (
{
closed = 1;
nodes = (
(-819,-1769,l),
(-1097,-2018,l),
(-1186,-2028,l),
(-1000,-1519,l),
(-857,-1477,l),
(-991,-1844,l),
(-829,-1700,l)
);
},
{
closed = 1;
nodes = (
(-2377,2624,l),
(-2495,2807,l),
(-2605,2831,l),
(-2370,2983,l),
(-2394,2872,l),
(-2324,2764,l)
);
},
{
closed = 1;
nodes = (
(2842,-1711,l),
(2815,-2128,l),
(2799,-2182,l),
(2581,-1769,l),
(2648,-1638,l),
(2774,-1878,l),
(2783,-1682,l)
);
},
{
closed = 1;
nodes = (
(1109,3087,l),
(1172,3248,l),
(939,3050,l),
(931,3119,l),
(1216,3360,l),
(1343,3353,l),
(1252,3122,l)
);
},
{
closed = 1;
nodes = (
(2786,2908,l),
(3031,3171,l),
(2971,3266,l),
(3244,3205,l),
(3109,3153,l),
(2813,2848,l)
);
}
);
width = 960;
}
);
note = W;
unicode = 87;
},
{
glyphname = X;
kernRight = X;
lastChange = "2024-04-03 16:44:20 +0000";
layers = (
{
hints = (
{
horizontal = 1;
place = (0, 800);
place = (0, 800);
type = Stem;
},
{
place = (400, 40);
place = (400, 40);
type = Stem;
}
);
layerId = m01;
shapes = (
{
closed = 1;
nodes = (
(267,205,l),
(160,80,l),
(240,0,l),
(-40,0,l),
(208,248,l)
);
},
{
closed = 1;
nodes = (
(311,532,l),
(240,720,l),
(160,800,l),
(480,800,l),
(400,720,l),
(400,579,l)
);
},
{
closed = 1;
nodes = (
(554,252,l),
(640,80,l),
(720,0,l),
(400,0,l),
(480,80,l),
(465,186,l)
);
},
{
closed = 1;
nodes = (
(557,557,l),
(720,720,l),
(640,800,l),
(920,800,l),
(648,552,l)
);
},
{
closed = 1;
nodes = (
(465,186,l),
(440,360,l),
(400,360,l),
(267,205,l),
(208,248,l),
(360,400,l),
(311,532,l),
(400,579,l),
(400,440,l),
(440,440,l),
(557,557,l),
(648,552,l),
(480,400,l),
(554,252,l)
);
}
);
width = 840;
},
{
hints = (
{
horizontal = 1;
place = (0, 800);
place = (0, 800);
type = Stem;
},
{
place = (400, 40);
place = (400, 40);
type = Stem;
}
);
layerId = "45DABB71-BDAF-41D9-9CB5-36007FEF02C0";
shapes = (
{
closed = 1;
nodes = (
(-1038,-1665,l),
(-1109,-1813,l),
(-1011,-1870,l),
(-1282,-1942,l),
(-1106,-1639,l)
);
},
{
closed = 1;
nodes = (
(-1209,2747,l),
(-1333,2905,l),
(-1434,2957,l),
(-1128,3053,l),
(-1181,2953,l),
(-1138,2818,l)
);
},
{
closed = 1;
nodes = (
(2323,-947,l),
(2489,-1046,l),
(2599,-1070,l),
(2330,-1242,l),
(2354,-1132,l),
(2284,-1051,l)
);
},
{
closed = 1;
nodes = (
(2556,2764,l),
(2755,2879,l),
(2698,2977,l),
(2969,2905,l),
(2642,2735,l)
);
},
{
closed = 1;
nodes = (
(-2380,983,l),
(-2365,1158,l),
(-2404,1167,l),
(-2568,1046,l),
(-2616,1101,l),
(-2434,1215,l),
(-2452,1355,l),
(-2355,1381,l),
(-2386,1245,l),
(-2347,1236,l),
(-2207,1324,l),
(-2119,1299,l),
(-2317,1188,l),
(-2278,1027,l)
);
}
);
width = 840;
}
);
note = X;
unicode = 88;
},
{
glyphname = Y;
kernLeft = Y;
kernRight = Y;
lastChange = "2024-04-03 16:44:33 +0000";
layers = (
{
hints = (
{
horizontal = 1;
place = (0, 800);
place = (0, 800);
type = Stem;
},
{
place = (400, 40);
place = (400, 40);
type = Stem;
}
);
layerId = m01;
shapes = (
{
closed = 1;
nodes = (
(388,177,l),
(360,80,l),
(440,0,l),
(120,0,l),
(240,80,l),
(249,113,l)
);
},
{
closed = 1;
nodes = (
(278,549,l),
(240,720,l),
(160,800,l),
(440,800,l),
(360,720,l),
(376,640,l)
);
},
{
closed = 1;
nodes = (
(535,467,l),
(440,360,l),
(388,177,l),
(249,113,l),
(320,360,l),
(278,549,l),
(376,640,l),
(400,520,l),
(400,440,l),
(440,440,l),
(519,532,l)
);
},
{
closed = 1;
nodes = (
(519,532,l),
(680,720,l),
(600,800,l),
(880,800,l),
(760,720,l),
(535,467,l)
);
}
);
width = 760;
},
{
hints = (
{
horizontal = 1;
place = (0, 800);
place = (0, 800);
type = Stem;
},
{
place = (400, 40);
place = (400, 40);
type = Stem;
}
);
layerId = "45DABB71-BDAF-41D9-9CB5-36007FEF02C0";
shapes = (
{
closed = 1;
nodes = (
(-260,-2195,l),
(-316,-2280,l),
(-263,-2380,l),
(-569,-2285,l),
(-430,-2244,l),
(-412,-2215,l)
);
},
{
closed = 1;
nodes = (
(-831,2608,l),
(-804,2781,l),
(-849,2884,l),
(-589,2782,l),
(-693,2737,l),
(-707,2657,l)
);
},
{
closed = 1;
nodes = (
(-2392,-1107,l),
(-2442,-1241,l),
(-2425,-1430,l),
(-2532,-1540,l),
(-2554,-1284,l),
(-2661,-1122,l),
(-2602,-1002,l),
(-2537,-1106,l),
(-2508,-1180,l),
(-2471,-1166,l),
(-2430,-1052,l)
);
},
{
closed = 1;
nodes = (
(2808,2348,l),
(2936,2560,l),
(2844,2626,l),
(3120,2672,l),
(3015,2573,l),
(2835,2286,l)
);
}
);
width = 760;
}
);
note = Y;
unicode = 89;
},
{
glyphname = Z;
kernLeft = Z;
kernRight = Z;
lastChange = "2024-04-03 16:44:49 +0000";
layers = (
{
hints = (
{
horizontal = 1;
place = (600, -20);
target = down;
type = TopGhost;
},
{
place = (-40, 840);
place = (-40, 840);
type = Stem;
}
);
layerId = m01;
shapes = (
{
closed = 1;
nodes = (
(271,61,l),
(440,40,l),
(560,240,l),
(600,240,l),
(560,-40,l),
(480,0,l),
(264,0,l)
);
},
{
closed = 1;
nodes = (
(484,760,l),
(360,760,l),
(240,600,l),
(200,600,l),
(240,840,l),
(400,800,l),
(513,800,l)
);
},
{
closed = 1;
nodes = (
(262,379,l),
(600,760,l),
(484,760,l),
(513,800,l),
(800,800,l),
(462,442,l)
);
},
{
closed = 1;
nodes = (
(264,0,l),
(-40,0,l),
(-40,40,l),
(262,379,l),
(462,442,l),
(120,80,l),
(271,61,l)
);
}
);
width = 720;
},
{
hints = (
{
horizontal = 1;
place = (600, -20);
target = down;
type = TopGhost;
},
{
place = (-40, 840);
place = (-40, 840);
type = Stem;
}
);
layerId = "45DABB71-BDAF-41D9-9CB5-36007FEF02C0";
shapes = (
{
closed = 1;
nodes = (
(2042,-1783,l),
(2212,-1780,l),
(2303,-1565,l),
(2343,-1560,l),
(2342,-1843,l),
(2258,-1814,l),
(2044,-1844,l)
);
},
{
closed = 1;
nodes = (
(-884,3012,l),
(-1001,2971,l),
(-1060,2780,l),
(-1097,2766,l),
(-1140,3006,l),
(-976,3022,l),
(-870,3060,l)
);
},
{
closed = 1;
nodes = (
(2704,2446,l),
(2862,2931,l),
(2755,2884,l),
(2766,2933,l),
(3029,3048,l),
(2863,2584,l)
);
},
{
closed = 1;
nodes = (
(-1960,-1902,l),
(-2246,-2007,l),
(-2259,-1969,l),
(-2093,-1547,l),
(-1927,-1418,l),
(-2123,-1876,l),
(-1975,-1842,l)
);
}
);
width = 720;
}
);
note = Z;
unicode = 90;
},
{
glyphname = a;
kernLeft = a;
kernRight = a;
lastChange = "2024-04-03 16:58:49 +0000";
layers = (
{
hints = (
{
horizontal = 1;
place = (0, 80);
place = (0, 80);
type = Stem;
},
{
horizontal = 1;
place = (560, -20);
target = down;
type = TopGhost;
},
{
place = (40, 680);
place = (40, 680);
type = Stem;
}
);
layerId = m01;
shapes = (
{
closed = 1;
nodes = (
(539,298,l),
(640,520,l),
(600,560,l),
(520,440,l),
(480,520,l),
(320,560,l),
(243,498,l),
(312,432,l),
(360,480,l),
(440,480,l),
(480,400,l),
(480,360,l),
(422,282,l)
);
},
{
closed = 1;
nodes = (
(223,80,l),
(200,80,l),
(160,200,l),
(240,360,l),
(312,432,l),
(243,498,l),
(120,400,l),
(40,200,l),
(80,40,l),
(160,0,l),
(200,0,l)
);
},
{
closed = 1;
nodes = (
(468,80,l),
(440,80,l),
(539,298,l),
(422,282,l),
(360,200,l),
(240,80,l),
(223,80,l),
(200,0,l),
(240,0,l),
(360,120,l),
(360,40,l),
(400,0,l),
(452,17,l)
);
},
{
closed = 1;
nodes = (
(452,17,l),
(520,40,l),
(720,240,l),
(680,280,l),
(480,80,l),
(468,80,l)
);
}
);
width = 720;
},
{
hints = (
{
horizontal = 1;
place = (0, 80);
place = (0, 80);
type = Stem;
},
{
horizontal = 1;
place = (560, -20);
target = down;
type = TopGhost;
},
{
place = (40, 680);
place = (40, 680);
type = Stem;
}
);
layerId = "45DABB71-BDAF-41D9-9CB5-36007FEF02C0";
shapes = (
{
closed = 1;
nodes = (
(901,2206,l),
(965,2441,l),
(919,2474,l),
(860,2343,l),
(807,2416,l),
(643,2429,l),
(577,2356,l),
(656,2302,l),
(695,2357,l),
(774,2370,l),
(827,2297,l),
(833,2258,l),
(788,2171,l)
);
},
{
closed = 1;
nodes = (
(-1632,278,l),
(-1653,269,l),
(-1734,367,l),
(-1718,545,l),
(-1677,638,l),
(-1765,674,l),
(-1844,538,l),
(-1846,323,l),
(-1750,188,l),
(-1661,180,l),
(-1624,195,l)
);
},
{
closed = 1;
nodes = (
(-579,-1448,l),
(-606,-1441,l),
(-451,-1258,l),
(-568,-1242,l),
(-650,-1304,l),
(-798,-1386,l),
(-814,-1382,l),
(-858,-1452,l),
(-820,-1463,l),
(-672,-1381,l),
(-693,-1457,l),
(-666,-1507,l),
(-611,-1505,l)
);
},
{
closed = 1;
nodes = (
(2285,-1232,l),
(2343,-1191,l),
(2477,-941,l),
(2427,-915,l),
(2293,-1164,l),
(2282,-1167,l)
);
}
);
width = 720;
}
);
note = a;
unicode = 97;
},
{
glyphname = b;
kernLeft = b;
kernRight = b;
lastChange = "2024-04-03 16:59:11 +0000";
layers = (
{
hints = (
{
horizontal = 1;
place = (0, 80);
place = (0, 80);
type = Stem;
},
{
horizontal = 1;
place = (560, -20);
target = down;
type = TopGhost;
},
{
horizontal = 1;
place = (800, 40);
place = (800, 40);
type = Stem;
},
{
place = (-40, 640);
place = (-40, 640);
type = Stem;
}
);
layerId = m01;
shapes = (
{
closed = 1;
nodes = (
(396,671,l),
(480,840,l),
(200,840,l),
(200,800,l),
(320,800,l),
(246,615,l)
);
},
{
closed = 1;
nodes = (
(571,288,l),
(600,360,l),
(560,520,l),
(480,560,l),
(360,520,l),
(280,440,l),
(396,671,l),
(246,615,l),
(160,400,l),
(90,260,l),
(167,223,l),
(240,320,l),
(360,440,l),
(440,480,l),
(480,360,l),
(449,299,l)
);
},
{
closed = 1;
nodes = (
(364,35,l),
(520,160,l),
(571,288,l),
(449,299,l),
(400,200,l),
(290,118,l)
);
},
{
closed = 1;
nodes = (
(290,118,l),
(240,80,l),
(160,80,l),
(120,120,l),
(120,160,l),
(167,223,l),
(90,260,l),
(-40,0,l),
(0,-40,l),
(80,80,l),
(160,0,l),
(320,0,l),
(364,35,l)
);
}
);
width = 640;
},
{
hints = (
{
horizontal = 1;
place = (0, 80);
place = (0, 80);
type = Stem;
},
{
horizontal = 1;
place = (560, -20);
target = down;
type = TopGhost;
},
{
horizontal = 1;
place = (800, 40);
place = (800, 40);
type = Stem;
},
{
place = (-40, 640);
place = (-40, 640);
type = Stem;
}
);
layerId = "45DABB71-BDAF-41D9-9CB5-36007FEF02C0";
shapes = (
{
closed = 1;
nodes = (
(626,3035,l),
(744,3182,l),
(471,3242,l),
(462,3203,l),
(579,3177,l),
(467,3012,l)
);
},
{
closed = 1;
nodes = (
(2748,2000,l),
(2819,2032,l),
(2901,2175,l),
(2871,2259,l),
(2757,2314,l),
(2644,2312,l),
(2888,2398,l),
(2741,2461,l),
(2530,2366,l),
(2382,2314,l),
(2412,2234,l),
(2532,2253,l),
(2702,2256,l),
(2787,2230,l),
(2732,2115,l),
(2668,2093,l)
);
},
{
closed = 1;
nodes = (
(2684,-1593,l),
(2794,-1426,l),
(2803,-1288,l),
(2684,-1316,l),
(2668,-1425,l),
(2588,-1537,l)
);
},
{
closed = 1;
nodes = (
(-1635,-772,l),
(-1694,-794,l),
(-1770,-772,l),
(-1798,-723,l),
(-1786,-684,l),
(-1724,-637,l),
(-1787,-580,l),
(-1985,-793,l),
(-1958,-843,l),
(-1847,-750,l),
(-1793,-849,l),
(-1639,-894,l),
(-1587,-872,l)
);
}
);
width = 640;
}
);
note = b;
unicode = 98;
},
{
glyphname = c;
kernLeft = c;
lastChange = "2024-04-03 16:59:22 +0000";
layers = (
{
hints = (
{
horizontal = 1;
place = (0, 80);
place = (0, 80);
type = Stem;
},
{
horizontal = 1;
place = (560, -20);
target = down;
type = TopGhost;
},
{
place = (440, 120);
place = (440, 120);
type = Stem;
},
{
horizontal = 1;
place = (480, 80);
place = (480, 80);
type = Stem;
}
);
layerId = m01;
shapes = (
{
closed = 1;
nodes = (
(281,401,l),
(360,480,l),
(440,480,l),
(440,360,l),
(560,360,l),
(560,440,l),
(520,520,l),
(360,560,l),
(237,486,l)
);
},
{
closed = 1;
nodes = (
(209,0,l),
(240,0,l),
(320,40,l),
(480,200,l),
(440,240,l),
(280,80,l),
(225,80,l)
);
},
{
closed = 1;
nodes = (
(237,486,l),
(160,440,l),
(40,200,l),
(80,40,l),
(160,0,l),
(209,0,l),
(225,80,l),
(200,80,l),
(160,200,l),
(240,360,l),
(281,401,l)
);
}
);
width = 560;
},
{
hints = (
{
horizontal = 1;
place = (0, 80);
place = (0, 80);
type = Stem;
},
{
horizontal = 1;
place = (560, -20);
target = down;
type = TopGhost;
},
{
place = (440, 120);
place = (440, 120);
type = Stem;
},
{
horizontal = 1;
place = (480, 80);
place = (480, 80);
type = Stem;
}
);
layerId = "45DABB71-BDAF-41D9-9CB5-36007FEF02C0";
shapes = (
{
closed = 1;
nodes = (
(1772,3102,l),
(1866,3163,l),
(1944,3147,l),
(1919,3030,l),
(2037,3005,l),
(2053,3083,l),
(2030,3170,l),
(1882,3242,l),
(1747,3195,l)
);
},
{
closed = 1;
nodes = (
(1486,-1823,l),
(1517,-1820,l),
(1593,-1772,l),
(1737,-1598,l),
(1694,-1562,l),
(1550,-1736,l),
(1495,-1741,l)
);
},
{
closed = 1;
nodes = (
(-2820,-1005,l),
(-2871,-1079,l),
(-2881,-1347,l),
(-2779,-1476,l),
(-2689,-1480,l),
(-2645,-1460,l),
(-2663,-1380,l),
(-2686,-1391,l),
(-2772,-1298,l),
(-2765,-1119,l),
(-2744,-1065,l)
);
}
);
width = 560;
}
);
note = c;
unicode = 99;
},
{
glyphname = d;
kernLeft = c;
lastChange = "2024-04-03 17:48:00 +0000";
layers = (
{
hints = (
{
horizontal = 1;
place = (0, 80);
place = (0, 80);
type = Stem;
},
{
horizontal = 1;
place = (560, -20);
target = down;
type = TopGhost;
},
{
horizontal = 1;
place = (800, 40);
place = (800, 40);
type = Stem;
},
{
place = (40, 760);
place = (40, 760);
type = Stem;
}
);
layerId = m01;
shapes = (
{
closed = 1;
nodes = (
(665,555,l),
(800,840,l),
(520,840,l),
(520,800,l),
(640,800,l),
(582,625,l)
);
},
{
closed = 1;
nodes = (
(272,112,l),
(240,80,l),
(200,80,l),
(160,200,l),
(240,360,l),
(360,480,l),
(399,480,l),
(406,538,l),
(320,560,l),
(120,400,l),
(40,200,l),
(80,40,l),
(160,0,l),
(240,0,l),
(286,46,l)
);
},
{
closed = 1;
nodes = (
(410,266,l),
(360,200,l),
(272,112,l),
(286,46,l),
(360,120,l),
(360,40,l),
(400,0,l),
(440,0,l),
(520,40,l),
(720,240,l),
(680,280,l),
(480,80,l),
(440,80,l),
(522,254,l)
);
},
{
closed = 1;
nodes = (
(582,625,l),
(520,440,l),
(480,520,l),
(406,538,l),
(399,480,l),
(440,480,l),
(480,400,l),
(480,360,l),
(410,266,l),
(522,254,l),
(665,555,l)
);
}
);
width = 720;
},
{
hints = (
{
horizontal = 1;
place = (0, 80);
place = (0, 80);
type = Stem;
},
{
horizontal = 1;
place = (560, -20);
target = down;
type = TopGhost;
},
{
horizontal = 1;
place = (800, 40);
place = (800, 40);
type = Stem;
},
{
place = (40, 760);
place = (40, 760);
type = Stem;
}
);
layerId = "45DABB71-BDAF-41D9-9CB5-36007FEF02C0";
shapes = (
{
closed = 1;
nodes = (
(2121,2205,l),
(2269,2484,l),
(1989,2497,l),
(1987,2457,l),
(2107,2451,l),
(2041,2279,l)
);
},
{
closed = 1;
nodes = (
(-1807,-1619,l),
(-1820,-1663,l),
(-1855,-1682,l),
(-1948,-1596,l),
(-1955,-1418,l),
(-1907,-1255,l),
(-1873,-1236,l),
(-1895,-1182,l),
(-1981,-1204,l),
(-2079,-1440,l),
(-2053,-1654,l),
(-1941,-1775,l),
(-1851,-1772,l),
(-1781,-1733,l),
(-1763,-1671,l)
);
},
{
closed = 1;
nodes = (
(2025,-1332,l),
(2000,-1412,l),
(1945,-1524,l),
(1980,-1582,l),
(2026,-1488,l),
(2052,-1563,l),
(2103,-1587,l),
(2140,-1574,l),
(2203,-1510,l),
(2326,-1256,l),
(2276,-1231,l),
(2152,-1485,l),
(2114,-1498,l),
(2135,-1307,l)
);
},
{
closed = 1;
nodes = (
(3203,1690,l),
(3182,1496,l),
(3125,1566,l),
(3049,1568,l),
(3055,1509,l),
(3095,1518,l),
(3151,1449,l),
(3160,1410,l),
(3111,1303,l),
(3223,1315,l),
(3299,1640,l)
);
}
);
width = 720;
}
);
note = d;
unicode = 100;
},
{
glyphname = e;
kernLeft = c;
kernRight = e;
lastChange = "2024-04-03 17:48:31 +0000";
layers = (
{
hints = (
{
horizontal = 1;
place = (0, 80);
place = (0, 80);
type = Stem;
},
{
horizontal = 1;
place = (280, 40);
place = (280, 40);
type = Stem;
},
{
horizontal = 1;
place = (560, -20);
target = down;
type = TopGhost;
},
{
place = (440, 120);
place = (440, 120);
type = Stem;
},
{
horizontal = 1;
place = (480, 80);
place = (480, 80);
type = Stem;
}
);
layerId = m01;
shapes = (
{
closed = 1;
nodes = (
(204,288,l),
(240,360,l),
(360,480,l),
(404,480,l),
(434,542,l),
(360,560,l),
(160,440,l),
(111,343,l)
);
},
{
closed = 1;
nodes = (
(404,480,l),
(440,480,l),
(440,360,l),
(360,320,l),
(240,320,l),
(240,280,l),
(440,280,l),
(560,360,l),
(560,440,l),
(520,520,l),
(434,542,l)
);
},
{
closed = 1;
nodes = (
(269,14,l),
(320,40,l),
(480,200,l),
(440,240,l),
(280,80,l),
(236,80,l)
);
},
{
closed = 1;
nodes = (
(236,80,l),
(200,80,l),
(160,200,l),
(204,288,l),
(111,343,l),
(40,200,l),
(80,40,l),
(160,0,l),
(240,0,l),
(269,14,l)
);
}
);
width = 560;
},
{
hints = (
{
horizontal = 1;
place = (0, 80);
place = (0, 80);
type = Stem;
},
{
horizontal = 1;
place = (280, 40);
place = (280, 40);
type = Stem;
},
{
horizontal = 1;
place = (560, -20);
target = down;
type = TopGhost;
},
{
place = (440, 120);
place = (440, 120);
type = Stem;
},
{
horizontal = 1;
place = (480, 80);
place = (480, 80);
type = Stem;
}
);
layerId = "45DABB71-BDAF-41D9-9CB5-36007FEF02C0";
shapes = (
{
closed = 1;
nodes = (
(-1030,2295,l),
(-977,2356,l),
(-832,2444,l),
(-789,2433,l),
(-745,2486,l),
(-813,2522,l),
(-1036,2453,l),
(-1107,2371,l)
);
},
{
closed = 1;
nodes = (
(3458,-278,l),
(3494,-273,l),
(3511,-392,l),
(3438,-443,l),
(3319,-460,l),
(3325,-500,l),
(3523,-471,l),
(3630,-374,l),
(3619,-295,l),
(3567,-222,l),
(3479,-212,l)
);
},
{
closed = 1;
nodes = (
(1889,-1350,l),
(1936,-1318,l),
(2074,-1138,l),
(2029,-1104,l),
(1891,-1283,l),
(1848,-1289,l)
);
},
{
closed = 1;
nodes = (
(-1501,-1723,l),
(-1535,-1735,l),
(-1612,-1635,l),
(-1599,-1537,l),
(-1705,-1516,l),
(-1725,-1674,l),
(-1635,-1812,l),
(-1546,-1823,l),
(-1470,-1797,l),
(-1448,-1774,l)
);
}
);
width = 560;
}
);
note = e;
unicode = 101;
},
{
glyphname = f;
kernRight = f;
lastChange = "2024-04-03 17:48:49 +0000";
layers = (
{
hints = (
{
horizontal = 1;
place = (-320, 21);
target = up;
type = BottomGhost;
},
{
horizontal = 1;
place = (480, 40);
place = (480, 40);
type = Stem;
},
{
place = (-240, 120);
place = (-240, 120);
type = Stem;
},
{
place = (560, 120);
place = (560, 120);
type = Stem;
}
);
layerId = m01;
shapes = (
{
closed = 1;
nodes = (
(483,814,l),
(440,800,l),
(360,720,l),
(280,560,l),
(256,548,l),
(320,388,l),
(360,480,l),
(520,480,l),
(520,520,l),
(360,520,l),
(481,702,l)
);
},
{
closed = 1;
nodes = (
(31,10,l),
(-80,-240,l),
(-120,-240,l),
(-120,-160,l),
(-160,-120,l),
(-240,-160,l),
(-240,-280,l),
(-120,-320,l),
(-40,-280,l),
(80,-160,l),
(161,25,l)
);
},
{
closed = 1;
nodes = (
(256,548,l),
(200,520,l),
(120,520,l),
(120,480,l),
(240,480,l),
(31,10,l),
(161,25,l),
(320,388,l)
);
},
{
closed = 1;
nodes = (
(481,702,l),
(520,760,l),
(560,760,l),
(560,680,l),
(600,640,l),
(680,680,l),
(680,800,l),
(560,840,l),
(483,814,l)
);
}
);
width = 440;
},
{
hints = (
{
horizontal = 1;
place = (-320, 21);
target = up;
type = BottomGhost;
},
{
horizontal = 1;
place = (480, 40);
place = (480, 40);
type = Stem;
},
{
place = (-240, 120);
place = (-240, 120);
type = Stem;
},
{
place = (560, 120);
place = (560, 120);
type = Stem;
}
);
layerId = "45DABB71-BDAF-41D9-9CB5-36007FEF02C0";
shapes = (
{
closed = 1;
nodes = (
(3251,1349,l),
(3211,1328,l),
(3147,1235,l),
(3096,1063,l),
(3074,1048,l),
(3167,901,l),
(3189,999,l),
(3346,1027,l),
(3339,1066,l),
(3182,1038,l),
(3269,1239,l)
);
},
{
closed = 1;
nodes = (
(-771,-1406,l),
(-1022,-1514,l),
(-1052,-1486,l),
(-997,-1428,l),
(-999,-1371,l),
(-1085,-1346,l),
(-1167,-1434,l),
(-1106,-1545,l),
(-1020,-1570,l),
(-851,-1564,l),
(-665,-1484,l)
);
},
{
closed = 1;
nodes = (
(-2598,1650,l),
(-2657,1628,l),
(-2737,1637,l),
(-2741,1597,l),
(-2621,1584,l),
(-2879,1139,l),
(-2748,1140,l),
(-2552,1485,l)
);
},
{
closed = 1;
nodes = (
(-577,2305,l),
(-591,2373,l),
(-562,2402,l),
(-506,2345,l),
(-449,2345,l),
(-421,2430,l),
(-506,2515,l),
(-619,2458,l),
(-655,2385,l)
);
}
);
width = 440;
}
);
note = f;
unicode = 102;
},
{
glyphname = g;
kernLeft = g;
lastChange = "2024-04-03 17:49:14 +0000";
layers = (
{
hints = (
{
horizontal = 1;
place = (-320, 40);
place = (-320, 40);
type = Stem;
},
{
horizontal = 1;
place = (0, 21);
target = up;
type = BottomGhost;
},
{
horizontal = 1;
place = (120, 80);
place = (120, 80);
type = Stem;
},
{
horizontal = 1;
place = (480, 40);
place = (480, 40);
type = Stem;
},
{
horizontal = 1;
place = (560, -20);
target = down;
type = TopGhost;
},
{
place = (80, 120);
place = (80, 120);
type = Stem;
},
{
place = (280, 120);
place = (280, 120);
type = Stem;
}
);
layerId = m01;
shapes = (
{
closed = 1;
nodes = (
(433,188,l),
(520,240,l),
(560,360,l),
(520,480,l),
(640,480,l),
(640,520,l),
(480,520,l),
(320,560,l),
(217,498,l),
(271,431,l),
(320,480,l),
(400,480,l),
(440,360,l),
(440,320,l),
(363,243,l)
);
},
{
closed = 1;
nodes = (
(200,97,l),
(200,120,l),
(320,120,l),
(433,188,l),
(363,243,l),
(320,200,l),
(240,200,l),
(200,320,l),
(200,360,l),
(271,431,l),
(217,498,l),
(120,440,l),
(80,320,l),
(160,160,l),
(80,120,l),
(80,90,l)
);
},
{
closed = 1;
nodes = (
(110,-320,l),
(160,-320,l),
(320,-280,l),
(400,-160,l),
(400,-80,l),
(300,0,l),
(233,-73,l),
(280,-120,l),
(280,-200,l),
(160,-280,l),
(110,-247,l)
);
},
{
closed = 1;
nodes = (
(110,-247,l),
(40,-200,l),
(0,-120,l),
(40,-40,l),
(160,0,l),
(233,-73,l),
(300,0,l),
(200,80,l),
(200,97,l),
(80,90,l),
(80,80,l),
(120,40,l),
(-80,-40,l),
(-120,-120,l),
(-80,-240,l),
(80,-320,l),
(110,-320,l)
);
}
);
width = 600;
},
{
hints = (
{
horizontal = 1;
place = (-320, 40);
place = (-320, 40);
type = Stem;
},
{
horizontal = 1;
place = (0, 21);
target = up;
type = BottomGhost;
},
{
horizontal = 1;
place = (120, 80);
place = (120, 80);
type = Stem;
},
{
horizontal = 1;
place = (480, 40);
place = (480, 40);
type = Stem;
},
{
horizontal = 1;
place = (560, -20);
target = down;
type = TopGhost;
},
{
place = (80, 120);
place = (80, 120);
type = Stem;
},
{
place = (280, 120);
place = (280, 120);
type = Stem;
}
);
layerId = "45DABB71-BDAF-41D9-9CB5-36007FEF02C0";
shapes = (
{
closed = 1;
nodes = (
(1893,2370,l),
(1946,2456,l),
(1925,2581,l),
(1834,2668,l),
(1940,2724,l),
(1921,2760,l),
(1780,2685,l),
(1620,2646,l),
(1558,2543,l),
(1637,2509,l),
(1657,2575,l),
(1728,2612,l),
(1819,2525,l),
(1838,2490,l),
(1806,2385,l)
);
},
{
closed = 1;
nodes = (
(-1757,1594,l),
(-1740,1609,l),
(-1659,1521,l),
(-1533,1484,l),
(-1540,1572,l),
(-1600,1575,l),
(-1654,1634,l),
(-1593,1745,l),
(-1563,1772,l),
(-1463,1767,l),
(-1450,1852,l),
(-1559,1885,l),
(-1674,1833,l),
(-1738,1666,l),
(-1821,1698,l),
(-1844,1678,l)
);
},
{
closed = 1;
nodes = (
(1576,-2073,l),
(1615,-2105,l),
(1807,-2164,l),
(1902,-2134,l),
(1953,-2073,l),
(1926,-1948,l),
(1829,-1961,l),
(1835,-2027,l),
(1783,-2089,l),
(1641,-2073,l),
(1623,-2017,l)
);
},
{
closed = 1;
nodes = (
(-2399,-1426,l),
(-2482,-1440,l),
(-2566,-1409,l),
(-2592,-1324,l),
(-2533,-1212,l),
(-2430,-1215,l),
(-2431,-1116,l),
(-2559,-1127,l),
(-2571,-1114,l),
(-2653,-1202,l),
(-2646,-1209,l),
(-2589,-1211,l),
(-2679,-1406,l),
(-2653,-1492,l),
(-2542,-1552,l),
(-2371,-1499,l),
(-2349,-1479,l)
);
}
);
width = 600;
}
);
note = g;
unicode = 103;
},
{
glyphname = h;
kernLeft = b;
lastChange = "2024-04-03 17:57:05 +0000";
layers = (
{
hints = (
{
horizontal = 1;
place = (0, 80);
place = (0, 80);
type = Stem;
},
{
horizontal = 1;
place = (560, -20);
target = down;
type = TopGhost;
},
{
horizontal = 1;
place = (800, 40);
place = (800, 40);
type = Stem;
},
{
place = (440, 120);
place = (440, 120);
type = Stem;
}
);
layerId = m01;
shapes = (
{
closed = 1;
nodes = (
(494,542,l),
(440,560,l),
(320,520,l),
(240,440,l),
(440,840,l),
(160,840,l),
(160,800,l),
(280,800,l),
(135,439,l),
(231,351,l),
(320,440,l),
(400,480,l),
(420,460,l)
);
},
{
closed = 1;
nodes = (
(135,439,l),
(120,400,l),
(-80,40,l),
(-40,0,l),
(40,0,l),
(200,320,l),
(231,351,l)
);
},
{
closed = 1;
nodes = (
(391,80,l),
(360,80,l),
(560,400,l),
(560,520,l),
(494,542,l),
(420,460,l),
(440,440,l),
(240,80,l),
(240,40,l),
(280,0,l),
(360,0,l),
(390,15,l)
);
},
{
closed = 1;
nodes = (
(390,15,l),
(440,40,l),
(640,240,l),
(600,280,l),
(400,80,l),
(391,80,l)
);
}
);
width = 640;
},
{
hints = (
{
horizontal = 1;
place = (0, 80);
place = (0, 80);
type = Stem;
},
{
horizontal = 1;
place = (560, -20);
target = down;
type = TopGhost;
},
{
horizontal = 1;
place = (800, 40);
place = (800, 40);
type = Stem;
},
{
place = (440, 120);
place = (440, 120);
type = Stem;
}
);
layerId = "45DABB71-BDAF-41D9-9CB5-36007FEF02C0";
shapes = (
{
closed = 1;
nodes = (
(308,2829,l),
(251,2825,l),
(155,2743,l),
(110,2639,l),
(146,3085,l),
(-114,2980,l),
(-99,2943,l),
(13,2988,l),
(13,2599,l),
(135,2553,l),
(185,2669,l),
(244,2736,l),
(270,2725,l)
);
},
{
closed = 1;
nodes = (
(-1706,-1817,l),
(-1712,-1858,l),
(-1826,-2254,l),
(-1778,-2284,l),
(-1700,-2266,l),
(-1616,-1918,l),
(-1593,-1881,l)
);
},
{
closed = 1;
nodes = (
(2526,2290,l),
(2495,2294,l),
(2730,2589,l),
(2744,2708,l),
(2681,2738,l),
(2598,2665,l),
(2615,2642,l),
(2376,2307,l),
(2371,2268,l),
(2407,2223,l),
(2486,2214,l),
(2518,2226,l)
);
},
{
closed = 1;
nodes = (
(1945,-2007,l),
(1984,-1968,l),
(2109,-1714,l),
(2059,-1689,l),
(1933,-1942,l),
(1925,-1945,l)
);
}
);
width = 640;
}
);
note = h;
unicode = 104;
},
{
glyphname = i;
kernLeft = i;
lastChange = "2024-04-03 17:57:26 +0000";
layers = (
{
hints = (
{
horizontal = 1;
place = (0, 800);
place = (0, 800);
type = Stem;
},
{
place = (0, 520);
place = (0, 520);
type = Stem;
}
);
layerId = m01;
shapes = (
{
closed = 1;
nodes = (
(492,774,l),
(520,760,l),
(520,720,l),
(480,640,l),
(440,640,l),
(395,662,l)
);
},
{
closed = 1;
nodes = (
(153,393,l),
(40,280,l),
(0,320,l),
(132,452,l)
);
},
{
closed = 1;
nodes = (
(183,118,l),
(160,80,l),
(200,80,l),
(400,280,l),
(440,240,l),
(240,40,l),
(160,0,l),
(80,0,l),
(40,40,l),
(40,42,l)
);
},
{
closed = 1;
nodes = (
(40,42,l),
(40,80,l),
(280,480,l),
(240,480,l),
(153,393,l),
(132,452,l),
(200,520,l),
(320,560,l),
(400,520,l),
(400,480,l),
(183,118,l)
);
},
{
closed = 1;
nodes = (
(395,662,l),
(360,680,l),
(360,720,l),
(400,800,l),
(440,800,l),
(492,774,l)
);
}
);
width = 440;
},
{
hints = (
{
horizontal = 1;
place = (0, 800);
place = (0, 800);
type = Stem;
},
{
place = (0, 520);
place = (0, 520);
type = Stem;
}
);
layerId = "45DABB71-BDAF-41D9-9CB5-36007FEF02C0";
shapes = (
{
closed = 1;
nodes = (
(3289,-1763,l),
(3320,-1770,l),
(3329,-1809,l),
(3310,-1896,l),
(3271,-1905,l),
(3222,-1895,l)
);
},
{
closed = 1;
nodes = (
(-2101,1991,l),
(-2121,1833,l),
(-2177,1840,l),
(-2154,2025,l)
);
},
{
closed = 1;
nodes = (
(1869,-1866,l),
(1852,-1907,l),
(1891,-1900,l),
(2058,-1672,l),
(2103,-1705,l),
(1937,-1934,l),
(1864,-1986,l),
(1785,-1998,l),
(1739,-1965,l),
(1739,-1963,l)
);
},
{
closed = 1;
nodes = (
(1198,2860,l),
(1189,2897,l),
(1328,3342,l),
(1289,3333,l),
(1225,3228,l),
(1191,3280,l),
(1241,3362,l),
(1348,3429,l),
(1436,3409,l),
(1445,3370,l),
(1319,2967,l)
);
},
{
closed = 1;
nodes = (
(-1360,2643,l),
(-1388,2670,l),
(-1377,2709,l),
(-1316,2775,l),
(-1278,2763,l),
(-1235,2724,l)
);
}
);
width = 440;
}
);
note = i;
unicode = 105;
},
{
glyphname = j;
kernLeft = j;
lastChange = "2024-04-03 17:57:45 +0000";
layers = (
{
hints = (
{
horizontal = 1;
place = (-320, 21);
target = up;
type = BottomGhost;
},
{
horizontal = 1;
place = (560, -20);
target = down;
type = TopGhost;
},
{
horizontal = 1;
place = (640, 160);
place = (640, 160);
type = Stem;
},
{
place = (-200, 120);
place = (-200, 120);
type = Stem;
},
{
place = (360, 160);
place = (360, 160);
type = Stem;
}
);
layerId = m01;
shapes = (
{
closed = 1;
nodes = (
(493,665,l),
(520,720,l),
(520,760,l),
(440,800,l),
(400,800,l),
(385,770,l)
);
},
{
closed = 1;
nodes = (
(281,209,l),
(400,480,l),
(400,520,l),
(360,560,l),
(200,520,l),
(0,320,l),
(40,280,l),
(240,480,l),
(280,480,l),
(222,344,l)
);
},
{
closed = 1;
nodes = (
(385,770,l),
(360,720,l),
(360,680,l),
(440,640,l),
(480,640,l),
(493,665,l)
);
},
{
closed = 1;
nodes = (
(145,-103,l),
(281,209,l),
(222,344,l),
(40,-80,l),
(7,-145,l)
);
},
{
closed = 1;
nodes = (
(7,-145,l),
(-40,-240,l),
(-80,-240,l),
(-80,-160,l),
(-120,-120,l),
(-200,-160,l),
(-200,-280,l),
(-80,-320,l),
(0,-280,l),
(120,-160,l),
(145,-103,l)
);
}
);
width = 400;
},
{
hints = (
{
horizontal = 1;
place = (-320, 21);
target = up;
type = BottomGhost;
},
{
horizontal = 1;
place = (560, -20);
target = down;
type = TopGhost;
},
{
horizontal = 1;
place = (640, 160);
place = (640, 160);
type = Stem;
},
{
place = (-200, 120);
place = (-200, 120);
type = Stem;
},
{
place = (360, 160);
place = (360, 160);
type = Stem;
}
);
layerId = "45DABB71-BDAF-41D9-9CB5-36007FEF02C0";
shapes = (
{
closed = 1;
nodes = (
(2973,2049,l),
(3012,2096,l),
(3021,2135,l),
(2953,2193,l),
(2914,2202,l),
(2892,2177,l)
);
},
{
closed = 1;
nodes = (
(300,2773,l),
(376,3059,l),
(369,3099,l),
(324,3132,l),
(172,3068,l),
(5,2839,l),
(51,2805,l),
(218,3034,l),
(257,3041,l),
(221,2897,l)
);
},
{
closed = 1;
nodes = (
(-2059,-1210,l),
(-2095,-1252,l),
(-2105,-1291,l),
(-2037,-1349,l),
(-1998,-1359,l),
(-1980,-1338,l)
);
},
{
closed = 1;
nodes = (
(-2216,1294,l),
(-1997,1555,l),
(-2015,1701,l),
(-2311,1346,l),
(-2361,1294,l)
);
},
{
closed = 1;
nodes = (
(-747,-2647,l),
(-747,-2753,l),
(-783,-2770,l),
(-818,-2698,l),
(-872,-2680,l),
(-926,-2751,l),
(-873,-2859,l),
(-747,-2842,l),
(-693,-2771,l),
(-639,-2610,l),
(-641,-2548,l)
);
}
);
width = 400;
}
);
note = j;
unicode = 106;
},
{
glyphname = k;
kernLeft = b;
lastChange = "2024-04-03 17:58:12 +0000";
layers = (
{
hints = (
{
horizontal = 1;
place = (0, 120);
place = (0, 120);
type = Stem;
},
{
horizontal = 1;
place = (240, 40);
place = (240, 40);
type = Stem;
},
{
horizontal = 1;
place = (560, -20);
target = down;
type = TopGhost;
},
{
horizontal = 1;
place = (800, 40);
place = (800, 40);
type = Stem;
},
{
place = (200, 80);
place = (200, 80);
type = Stem;
},
{
place = (480, 120);
place = (480, 120);
type = Stem;
}
);
layerId = m01;
shapes = (
{
closed = 1;
nodes = (
(238,426,l),
(480,840,l),
(200,840,l),
(200,800,l),
(320,800,l),
(178,445,l)
);
},
{
closed = 1;
nodes = (
(345,280,l),
(280,280,l),
(280,320,l),
(333,391,l),
(307,449,l),
(240,360,l),
(200,200,l),
(200,163,l),
(280,228,l),
(280,240,l),
(295,240,l)
);
},
{
closed = 1;
nodes = (
(178,445,l),
(160,400,l),
(-40,40,l),
(0,0,l),
(80,0,l),
(240,360,l),
(200,360,l),
(238,426,l)
);
},
{
closed = 1;
nodes = (
(200,163,l),
(200,80,l),
(240,0,l),
(320,0,l),
(440,80,l),
(600,240,l),
(560,280,l),
(400,120,l),
(320,120,l),
(280,160,l),
(280,228,l)
);
},
{
closed = 1;
nodes = (
(295,240,l),
(360,240,l),
(480,280,l),
(600,400,l),
(600,480,l),
(480,560,l),
(360,520,l),
(307,449,l),
(333,391,l),
(400,480,l),
(440,480,l),
(480,400,l),
(440,320,l),
(360,280,l),
(345,280,l)
);
}
);
width = 600;
},
{
hints = (
{
horizontal = 1;
place = (0, 120);
place = (0, 120);
type = Stem;
},
{
horizontal = 1;
place = (240, 40);
place = (240, 40);
type = Stem;
},
{
horizontal = 1;
place = (560, -20);
target = down;
type = TopGhost;
},
{
horizontal = 1;
place = (800, 40);
place = (800, 40);
type = Stem;
},
{
place = (200, 80);
place = (200, 80);
type = Stem;
},
{
place = (480, 120);
place = (480, 120);
type = Stem;
}
);
layerId = "45DABB71-BDAF-41D9-9CB5-36007FEF02C0";
shapes = (
{
closed = 1;
nodes = (
(-794,2826,l),
(-646,3282,l),
(-920,3222,l),
(-911,3183,l),
(-794,3209,l),
(-857,2831,l)
);
},
{
closed = 1;
nodes = (
(-3100,1675,l),
(-3160,1647,l),
(-3176,1684,l),
(-3158,1770,l),
(-3205,1812,l),
(-3229,1703,l),
(-3199,1541,l),
(-3183,1508,l),
(-3138,1600,l),
(-3143,1611,l),
(-3129,1617,l)
);
},
{
closed = 1;
nodes = (
(-1623,-2322,l),
(-1627,-2370,l),
(-1708,-2774,l),
(-1658,-2800,l),
(-1582,-2776,l),
(-1539,-2384,l),
(-1577,-2396,l),
(-1561,-2322,l)
);
},
{
closed = 1;
nodes = (
(2517,-2527,l),
(2578,-2583,l),
(2664,-2608,l),
(2718,-2550,l),
(2741,-2407,l),
(2732,-2181,l),
(2676,-2183,l),
(2684,-2409,l),
(2630,-2468,l),
(2574,-2470,l),
(2524,-2424,l)
);
},
{
closed = 1;
nodes = (
(1796,3243,l),
(1852,3277,l),
(1934,3373,l),
(1975,3537,l),
(1933,3606,l),
(1789,3613,l),
(1707,3516,l),
(1698,3428,l),
(1751,3392,l),
(1762,3503,l),
(1796,3523,l),
(1872,3476,l),
(1879,3386,l),
(1831,3311,l),
(1818,3303,l)
);
}
);
width = 600;
}
);
note = k;
unicode = 107;
},
{
glyphname = l;
kernLeft = b;
lastChange = "2024-04-03 17:58:22 +0000";
layers = (
{
hints = (
{
horizontal = 1;
place = (0, 840);
place = (0, 840);
type = Stem;
},
{
place = (0, 480);
place = (0, 480);
type = Stem;
}
);
layerId = m01;
shapes = (
{
closed = 1;
nodes = (
(141,80,l),
(160,80,l),
(360,280,l),
(400,240,l),
(200,40,l),
(126,15,l)
);
},
{
closed = 1;
nodes = (
(224,584,l),
(320,800,l),
(200,800,l),
(200,840,l),
(480,840,l),
(392,654,l)
);
},
{
closed = 1;
nodes = (
(126,15,l),
(80,0,l),
(0,40,l),
(0,80,l),
(224,584,l),
(392,654,l),
(120,80,l),
(141,80,l)
);
}
);
width = 400;
},
{
hints = (
{
horizontal = 1;
place = (0, 840);
place = (0, 840);
type = Stem;
},
{
place = (0, 480);
place = (0, 480);
type = Stem;
}
);
layerId = "45DABB71-BDAF-41D9-9CB5-36007FEF02C0";
shapes = (
{
closed = 1;
nodes = (
(2200,-1546,l),
(2218,-1539,l),
(2334,-1281,l),
(2386,-1304,l),
(2269,-1562,l),
(2209,-1612,l)
);
},
{
closed = 1;
nodes = (
(2885,2745,l),
(3048,2916,l),
(2935,2956,l),
(2949,2994,l),
(3212,2899,l),
(3067,2754,l)
);
},
{
closed = 1;
nodes = (
(-2804,-1570,l),
(-2838,-1605,l),
(-2928,-1606,l),
(-2946,-1570,l),
(-2979,-1020,l),
(-2862,-880,l),
(-2839,-1515,l),
(-2821,-1506,l)
);
}
);
width = 400;
}
);
note = l;
unicode = 108;
},
{
glyphname = m;
kernLeft = m;
lastChange = "2024-04-03 17:56:50 +0000";
layers = (
{
hints = (
{
horizontal = 1;
place = (0, 80);
place = (0, 80);
type = Stem;
},
{
horizontal = 1;
place = (560, -20);
target = down;
type = TopGhost;
},
{
place = (520, 120);
place = (520, 120);
type = Stem;
},
{
place = (840, 120);
place = (840, 120);
type = Stem;
}
);
layerId = m01;
shapes = (
{
closed = 1;
nodes = (
(347,455,l),
(360,480,l),
(360,520,l),
(320,560,l),
(200,520,l),
(0,320,l),
(40,280,l),
(240,480,l),
(280,480,l),
(254,433,l)
);
},
{
closed = 1;
nodes = (
(599,541,l),
(560,560,l),
(440,520,l),
(320,400,l),
(347,455,l),
(254,433,l),
(40,40,l),
(80,0,l),
(160,0,l),
(320,320,l),
(440,440,l),
(520,480,l),
(530,470,l)
);
},
{
closed = 1;
nodes = (
(866,250,l),
(960,400,l),
(960,520,l),
(840,560,l),
(720,520,l),
(674,474,l),
(683,403,l),
(720,440,l),
(800,480,l),
(840,440,l),
(702,191,l)
);
},
{
closed = 1;
nodes = (
(674,474,l),
(640,440,l),
(640,520,l),
(599,541,l),
(530,470,l),
(560,440,l),
(360,40,l),
(400,0,l),
(480,0,l),
(640,360,l),
(683,403,l)
);
},
{
closed = 1;
nodes = (
(702,191,l),
(640,80,l),
(640,40,l),
(680,0,l),
(760,0,l),
(840,40,l),
(1040,240,l),
(1000,280,l),
(800,80,l),
(760,80,l),
(866,250,l)
);
}
);
width = 1040;
},
{
hints = (
{
horizontal = 1;
place = (0, 80);
place = (0, 80);
type = Stem;
},
{
horizontal = 1;
place = (560, -20);
target = down;
type = TopGhost;
},
{
place = (520, 120);
place = (520, 120);
type = Stem;
},
{
place = (840, 120);
place = (840, 120);
type = Stem;
}
);
layerId = "45DABB71-BDAF-41D9-9CB5-36007FEF02C0";
shapes = (
{
closed = 1;
nodes = (
(158,1898,l),
(178,1918,l),
(189,1957,l),
(161,2006,l),
(35,2001,l),
(-213,1863,l),
(-185,1814,l),
(62,1951,l),
(101,1940,l),
(62,1902,l)
);
},
{
closed = 1;
nodes = (
(-782,-1625,l),
(-824,-1615,l),
(-932,-1681,l),
(-1023,-1824,l),
(-1009,-1765,l),
(-1095,-1806,l),
(-1217,-2237,l),
(-1169,-2267,l),
(-1091,-2250,l),
(-1005,-1902,l),
(-915,-1759,l),
(-845,-1702,l),
(-833,-1710,l)
);
},
{
closed = 1;
nodes = (
(1337,2722,l),
(1399,2887,l),
(1374,3005,l),
(1249,3020,l),
(1139,2956,l),
(1104,2902,l),
(1127,2834,l),
(1156,2878,l),
(1226,2933,l),
(1273,2902,l),
(1188,2631,l)
);
},
{
closed = 1;
nodes = (
(633,-1205,l),
(607,-1246,l),
(590,-1168,l),
(545,-1156,l),
(493,-1240,l),
(529,-1263,l),
(420,-1697,l),
(468,-1727,l),
(546,-1710,l),
(624,-1324,l),
(657,-1273,l)
);
},
{
closed = 1;
nodes = (
(2400,-1718,l),
(2365,-1840,l),
(2375,-1879,l),
(2423,-1909,l),
(2501,-1890,l),
(2569,-1832,l),
(2717,-1591,l),
(2669,-1562,l),
(2521,-1803,l),
(2482,-1812,l),
(2545,-1622,l)
);
}
);
width = 1040;
}
);
note = m;
unicode = 109;
},
{
glyphname = n;
kernLeft = m;
lastChange = "2024-04-03 17:58:36 +0000";
layers = (
{
hints = (
{
horizontal = 1;
place = (0, 80);
place = (0, 80);
type = Stem;
},
{
horizontal = 1;
place = (560, -20);
target = down;
type = TopGhost;
},
{
place = (560, 120);
place = (560, 120);
type = Stem;
}
);
layerId = m01;
shapes = (
{
closed = 1;
nodes = (
(340,440,l),
(360,480,l),
(360,520,l),
(320,560,l),
(200,520,l),
(0,320,l),
(40,280,l),
(240,480,l),
(280,480,l),
(220,371,l)
);
},
{
closed = 1;
nodes = (
(406,406,l),
(440,440,l),
(520,480,l),
(560,440,l),
(486,307,l),
(577,235,l),
(680,400,l),
(680,520,l),
(560,560,l),
(440,520,l),
(383,463,l)
);
},
{
closed = 1;
nodes = (
(486,307,l),
(360,80,l),
(360,40,l),
(400,0,l),
(480,0,l),
(560,40,l),
(760,240,l),
(720,280,l),
(520,80,l),
(480,80,l),
(577,235,l)
);
},
{
closed = 1;
nodes = (
(383,463,l),
(320,400,l),
(340,440,l),
(220,371,l),
(40,40,l),
(80,0,l),
(160,0,l),
(320,320,l),
(406,406,l)
);
}
);
width = 760;
},
{
hints = (
{
horizontal = 1;
place = (0, 80);
place = (0, 80);
type = Stem;
},
{
horizontal = 1;
place = (560, -20);
target = down;
type = TopGhost;
},
{
place = (560, 120);
place = (560, 120);
type = Stem;
}
);
layerId = "45DABB71-BDAF-41D9-9CB5-36007FEF02C0";
shapes = (
{
closed = 1;
nodes = (
(-1754,2807,l),
(-1761,2851,l),
(-1784,2884,l),
(-1840,2893,l),
(-1914,2791,l),
(-1961,2512,l),
(-1905,2502,l),
(-1858,2781,l),
(-1826,2805,l),
(-1811,2681,l)
);
},
{
closed = 1;
nodes = (
(1763,2476,l),
(1783,2520,l),
(1843,2586,l),
(1894,2564,l),
(1874,2413,l),
(1985,2379,l),
(2021,2570,l),
(1977,2682,l),
(1851,2675,l),
(1754,2595,l),
(1721,2521,l)
);
},
{
closed = 1;
nodes = (
(1550,-2622,l),
(1489,-2873,l),
(1500,-2912,l),
(1549,-2940,l),
(1626,-2919,l),
(1693,-2860,l),
(1832,-2614,l),
(1783,-2586,l),
(1644,-2831,l),
(1605,-2842,l),
(1657,-2667,l)
);
},
{
closed = 1;
nodes = (
(-1906,-2792,l),
(-1981,-2840,l),
(-1953,-2805,l),
(-2085,-2847,l),
(-2330,-3134,l),
(-2299,-3181,l),
(-2221,-3198,l),
(-1997,-2918,l),
(-1896,-2853,l)
);
}
);
width = 760;
}
);
note = n;
unicode = 110;
},
{
glyphname = o;
kernLeft = c;
kernRight = b;
lastChange = "2024-04-03 17:58:46 +0000";
layers = (
{
hints = (
{
horizontal = 1;
place = (0, 80);
place = (0, 80);
type = Stem;
},
{
horizontal = 1;
place = (560, -20);
target = down;
type = TopGhost;
},
{
place = (40, 560);
place = (40, 560);
type = Stem;
},
{
horizontal = 1;
place = (480, 80);
place = (480, 80);
type = Stem;
}
);
layerId = m01;
shapes = (
{
closed = 1;
nodes = (
(596,368,l),
(520,520,l),
(360,560,l),
(268,505,l),
(316,436,l),
(360,480,l),
(440,480,l),
(480,360,l),
(421,243,l)
);
},
{
closed = 1;
nodes = (
(227,0,l),
(280,0,l),
(480,120,l),
(600,360,l),
(596,368,l),
(421,243,l),
(400,200,l),
(280,80,l),
(227,80,l)
);
},
{
closed = 1;
nodes = (
(227,80,l),
(200,80,l),
(160,200,l),
(240,360,l),
(316,436,l),
(268,505,l),
(160,440,l),
(40,200,l),
(120,40,l),
(200,0,l),
(227,0,l)
);
}
);
width = 640;
},
{
hints = (
{
horizontal = 1;
place = (0, 80);
place = (0, 80);
type = Stem;
},
{
horizontal = 1;
place = (560, -20);
target = down;
type = TopGhost;
},
{
place = (40, 560);
place = (40, 560);
type = Stem;
},
{
horizontal = 1;
place = (480, 80);
place = (480, 80);
type = Stem;
}
);
layerId = "45DABB71-BDAF-41D9-9CB5-36007FEF02C0";
shapes = (
{
closed = 1;
nodes = (
(2119,2428,l),
(2006,2556,l),
(1841,2553,l),
(1767,2477,l),
(1831,2422,l),
(1862,2476,l),
(1939,2497,l),
(2009,2391,l),
(1982,2263,l)
);
},
{
closed = 1;
nodes = (
(2086,-2188,l),
(2139,-2183,l),
(2328,-2047,l),
(2428,-1798,l),
(2423,-1790,l),
(2259,-1929,l),
(2242,-1974,l),
(2132,-2104,l),
(2080,-2108,l)
);
},
{
closed = 1;
nodes = (
(-1870,-2016,l),
(-1894,-2027,l),
(-1982,-1936,l),
(-1979,-1757,l),
(-1943,-1656,l),
(-2016,-1614,l),
(-2085,-1719,l),
(-2090,-1988,l),
(-1949,-2098,l),
(-1860,-2099,l),
(-1836,-2088,l)
);
}
);
width = 640;
}
);
note = o;
unicode = 111;
},
{
glyphname = p;
kernLeft = m;
kernRight = b;
lastChange = "2024-04-03 17:59:05 +0000";
layers = (
{
hints = (
{
horizontal = 1;
place = (-280, 40);
place = (-280, 40);
type = Stem;
},
{
horizontal = 1;
place = (0, 80);
place = (0, 80);
type = Stem;
},
{
horizontal = 1;
place = (560, -20);
target = down;
type = TopGhost;
},
{
place = (-160, 840);
place = (-160, 840);
type = Stem;
}
);
layerId = m01;
shapes = (
{
closed = 1;
nodes = (
(496,77,l),
(600,160,l),
(680,360,l),
(640,520,l),
(560,560,l),
(440,520,l),
(397,477,l),
(398,398,l),
(440,440,l),
(520,480,l),
(560,360,l),
(480,200,l),
(424,144,l)
);
},
{
closed = 1;
nodes = (
(397,477,l),
(360,440,l),
(360,520,l),
(320,560,l),
(200,520,l),
(0,320,l),
(40,280,l),
(240,480,l),
(280,480,l),
(172,265,l),
(283,265,l),
(320,320,l),
(398,398,l)
);
},
{
closed = 1;
nodes = (
(85,-139,l),
(200,120,l),
(240,0,l),
(400,0,l),
(496,77,l),
(424,144,l),
(360,80,l),
(280,80,l),
(240,160,l),
(240,200,l),
(283,265,l),
(172,265,l),
(-37,-154,l)
);
},
{
closed = 1;
nodes = (
(-37,-154,l),
(-80,-240,l),
(-160,-240,l),
(-160,-280,l),
(200,-280,l),
(200,-240,l),
(40,-240,l),
(85,-139,l)
);
}
);
width = 720;
},
{
hints = (
{
horizontal = 1;
place = (-280, 40);
place = (-280, 40);
type = Stem;
},
{
horizontal = 1;
place = (0, 80);
place = (0, 80);
type = Stem;
},
{
horizontal = 1;
place = (560, -20);
target = down;
type = TopGhost;
},
{
place = (-160, 840);
place = (-160, 840);
type = Stem;
}
);
layerId = "45DABB71-BDAF-41D9-9CB5-36007FEF02C0";
shapes = (
{
closed = 1;
nodes = (
(2440,1893,l),
(2489,2017,l),
(2459,2230,l),
(2344,2349,l),
(2255,2344,l),
(2171,2249,l),
(2155,2191,l),
(2195,2123,l),
(2211,2180,l),
(2260,2255,l),
(2355,2171,l),
(2365,1992,l),
(2344,1916,l)
);
},
{
closed = 1;
nodes = (
(-698,2421,l),
(-721,2375,l),
(-746,2451,l),
(-797,2476,l),
(-898,2401,l),
(-1027,2149,l),
(-977,2124,l),
(-848,2376,l),
(-810,2388,l),
(-846,2150,l),
(-741,2184,l),
(-723,2248,l),
(-672,2346,l)
);
},
{
closed = 1;
nodes = (
(-3320,-1599,l),
(-3315,-1316,l),
(-3231,-1411,l),
(-3084,-1349,l),
(-3025,-1241,l),
(-3118,-1207,l),
(-3152,-1291,l),
(-3225,-1322,l),
(-3293,-1264,l),
(-3309,-1227,l),
(-3294,-1150,l),
(-3397,-1193,l),
(-3427,-1661,l)
);
},
{
closed = 1;
nodes = (
(-970,-3212,l),
(-1051,-3264,l),
(-1120,-3223,l),
(-1140,-3257,l),
(-831,-3441,l),
(-810,-3407,l),
(-948,-3325,l),
(-857,-3261,l)
);
}
);
width = 720;
}
);
note = p;
unicode = 112;
},
{
glyphname = q;
kernLeft = c;
lastChange = "2024-04-03 17:59:39 +0000";
layers = (
{
hints = (
{
horizontal = 1;
place = (-320, 40);
place = (-320, 40);
type = Stem;
},
{
horizontal = 1;
place = (0, 80);
place = (0, 80);
type = Stem;
},
{
horizontal = 1;
place = (560, -20);
target = down;
type = TopGhost;
},
{
place = (40, 640);
place = (40, 640);
type = Stem;
}
);
layerId = m01;
shapes = (
{
closed = 1;
nodes = (
(298,404,l),
(400,480,l),
(480,440,l),
(520,400,l),
(520,377,l),
(625,411,l),
(680,520,l),
(640,560,l),
(560,440,l),
(480,520,l),
(320,560,l),
(241,497,l)
);
},
{
closed = 1;
nodes = (
(257,-151,l),
(200,-280,l),
(80,-280,l),
(80,-320,l),
(440,-320,l),
(440,-280,l),
(320,-280,l),
(353,-199,l)
);
},
{
closed = 1;
nodes = (
(520,377,l),
(520,360,l),
(400,200,l),
(289,117,l),
(295,36,l),
(360,80,l),
(257,-151,l),
(353,-199,l),
(480,120,l),
(625,411,l)
);
},
{
closed = 1;
nodes = (
(241,497,l),
(120,400,l),
(40,200,l),
(80,40,l),
(160,0,l),
(240,0,l),
(295,36,l),
(289,117,l),
(240,80,l),
(200,80,l),
(160,200,l),
(240,360,l),
(298,404,l)
);
}
);
width = 640;
},
{
hints = (
{
horizontal = 1;
place = (-320, 40);
place = (-320, 40);
type = Stem;
},
{
horizontal = 1;
place = (0, 80);
place = (0, 80);
type = Stem;
},
{
horizontal = 1;
place = (560, -20);
target = down;
type = TopGhost;
},
{
place = (40, 640);
place = (40, 640);
type = Stem;
}
);
layerId = "45DABB71-BDAF-41D9-9CB5-36007FEF02C0";
shapes = (
{
closed = 1;
nodes = (
(1219,2950,l),
(1339,2993,l),
(1404,2931,l),
(1430,2881,l),
(1424,2859,l),
(1534,2861,l),
(1619,2949,l),
(1592,2999,l),
(1480,2908,l),
(1428,3008,l),
(1286,3093,l),
(1192,3056,l)
);
},
{
closed = 1;
nodes = (
(-255,-2600,l),
(-348,-2705,l),
(-463,-2669,l),
(-475,-2707,l),
(-132,-2817,l),
(-120,-2779,l),
(-234,-2742,l),
(-178,-2675,l)
);
},
{
closed = 1;
nodes = (
(2645,-1757,l),
(2642,-1774,l),
(2499,-1913,l),
(2376,-1977,l),
(2369,-2058,l),
(2440,-2025,l),
(2302,-2237,l),
(2389,-2299,l),
(2565,-2004,l),
(2754,-1740,l)
);
},
{
closed = 1;
nodes = (
(-3130,-1533,l),
(-3228,-1653,l),
(-3265,-1865,l),
(-3192,-2013,l),
(-3106,-2036,l),
(-3028,-2019,l),
(-2981,-1973,l),
(-3004,-1895,l),
(-3044,-1941,l),
(-3083,-1949,l),
(-3147,-1840,l),
(-3102,-1667,l),
(-3055,-1612,l)
);
}
);
width = 640;
}
);
note = q;
unicode = 113;
},
{
glyphname = r;
kernLeft = m;
kernRight = r;
lastChange = "2024-04-03 17:59:51 +0000";
layers = (
{
hints = (
{
horizontal = 1;
place = (0, 21);
target = up;
type = BottomGhost;
},
{
horizontal = 1;
place = (560, -20);
target = down;
type = TopGhost;
},
{
place = (0, 600);
place = (0, 600);
type = Stem;
},
{
horizontal = 1;
place = (0, 40);
place = (0, 40);
type = Stem;
}
);
layerId = m01;
shapes = (
{
closed = 1;
nodes = (
(337,543,l),
(320,560,l),
(200,520,l),
(0,320,l),
(40,280,l),
(240,480,l),
(265,480,l)
);
},
{
closed = 1;
nodes = (
(306,291,l),
(320,320,l),
(440,400,l),
(560,400,l),
(600,520,l),
(520,560,l),
(440,520,l),
(320,360,l),
(300,360,l)
);
},
{
closed = 1;
nodes = (
(300,360,l),
(280,360,l),
(360,480,l),
(360,520,l),
(337,543,l),
(265,480,l),
(280,480,l),
(40,40,l),
(80,0,l),
(160,0,l),
(306,291,l)
);
}
);
width = 520;
},
{
hints = (
{
horizontal = 1;
place = (0, 21);
target = up;
type = BottomGhost;
},
{
horizontal = 1;
place = (560, -20);
target = down;
type = TopGhost;
},
{
place = (0, 600);
place = (0, 600);
type = Stem;
},
{
horizontal = 1;
place = (0, 40);
place = (0, 40);
type = Stem;
}
);
layerId = "45DABB71-BDAF-41D9-9CB5-36007FEF02C0";
shapes = (
{
closed = 1;
nodes = (
(-1431,2536,l),
(-1455,2541,l),
(-1532,2440,l),
(-1585,2162,l),
(-1529,2152,l),
(-1476,2429,l),
(-1456,2444,l)
);
},
{
closed = 1;
nodes = (
(1932,-2165,l),
(1941,-2134,l),
(2045,-2034,l),
(2163,-2014,l),
(2182,-1889,l),
(2097,-1863,l),
(2025,-1916,l),
(1934,-2094,l),
(1914,-2098,l)
);
},
{
closed = 1;
nodes = (
(-262,-2267,l),
(-282,-2261,l),
(-171,-2168,l),
(-160,-2130,l),
(-176,-2101,l),
(-262,-2142,l),
(-248,-2146,l),
(-602,-2501,l),
(-574,-2551,l),
(-498,-2573,l),
(-276,-2335,l)
);
}
);
width = 520;
}
);
note = r;
unicode = 114;
},
{
glyphname = s;
kernLeft = s;
lastChange = "2024-04-03 18:00:55 +0000";
layers = (
{
hints = (
{
horizontal = 1;
place = (0, 40);
place = (0, 40);
type = Stem;
},
{
horizontal = 1;
place = (560, -20);
target = down;
type = TopGhost;
},
{
place = (-40, 120);
place = (-40, 120);
type = Stem;
},
{
place = (200, 120);
place = (200, 120);
type = Stem;
},
{
place = (360, 120);
place = (360, 120);
type = Stem;
},
{
place = (160, 120);
place = (160, 120);
type = Stem;
}
);
layerId = m01;
shapes = (
{
closed = 1;
nodes = (
(301,491,l),
(360,520,l),
(360,400,l),
(400,360,l),
(480,400,l),
(480,520,l),
(360,560,l),
(284,541,l)
);
},
{
closed = 1;
nodes = (
(301,294,l),
(280,400,l),
(280,480,l),
(301,491,l),
(284,541,l),
(200,520,l),
(160,440,l),
(160,360,l),
(185,261,l)
);
},
{
closed = 1;
nodes = (
(186,22,l),
(240,40,l),
(320,120,l),
(320,200,l),
(301,294,l),
(185,261,l),
(200,200,l),
(200,120,l),
(150,70,l)
);
},
{
closed = 1;
nodes = (
(150,70,l),
(120,40,l),
(80,40,l),
(80,160,l),
(40,200,l),
(-40,160,l),
(-40,40,l),
(40,0,l),
(120,0,l),
(186,22,l)
);
}
);
width = 480;
},
{
hints = (
{
horizontal = 1;
place = (0, 40);
place = (0, 40);
type = Stem;
},
{
horizontal = 1;
place = (560, -20);
target = down;
type = TopGhost;
},
{
place = (-40, 120);
place = (-40, 120);
type = Stem;
},
{
place = (200, 120);
place = (200, 120);
type = Stem;
},
{
place = (360, 120);
place = (360, 120);
type = Stem;
},
{
place = (160, 120);
place = (160, 120);
type = Stem;
}
);
layerId = "45DABB71-BDAF-41D9-9CB5-36007FEF02C0";
shapes = (
{
closed = 1;
nodes = (
(1471,2880,l),
(1512,2931,l),
(1562,2822,l),
(1615,2802,l),
(1671,2872,l),
(1621,2981,l),
(1495,2967,l),
(1434,2918,l)
);
},
{
closed = 1;
nodes = (
(-1832,1685,l),
(-1822,1793,l),
(-1798,1869,l),
(-1775,1874,l),
(-1777,1927,l),
(-1863,1931,l),
(-1925,1866,l),
(-1948,1789,l),
(-1953,1687,l)
);
},
{
closed = 1;
nodes = (
(2216,-2127,l),
(2272,-2119,l),
(2365,-2053,l),
(2378,-1974,l),
(2375,-1878,l),
(2255,-1891,l),
(2260,-1954,l),
(2246,-2033,l),
(2189,-2074,l)
);
},
{
closed = 1;
nodes = (
(-1180,-2164,l),
(-1195,-2204,l),
(-1231,-2221,l),
(-1282,-2113,l),
(-1335,-2093,l),
(-1391,-2164,l),
(-1339,-2272,l),
(-1250,-2274,l),
(-1178,-2240,l),
(-1127,-2192,l)
);
}
);
width = 480;
}
);
note = s;
unicode = 115;
},
{
glyphname = t;
kernLeft = t;
lastChange = "2024-04-03 18:01:04 +0000";
layers = (
{
hints = (
{
horizontal = 1;
place = (0, 80);
place = (0, 80);
type = Stem;
},
{
horizontal = 1;
place = (480, 40);
place = (480, 40);
type = Stem;
},
{
place = (0, 440);
place = (0, 440);
type = Stem;
}
);
layerId = m01;
shapes = (
{
closed = 1;
nodes = (
(300,439,l),
(320,480,l),
(440,480,l),
(440,520,l),
(320,520,l),
(400,680,l),
(320,680,l),
(280,560,l),
(241,541,l)
);
},
{
closed = 1;
nodes = (
(134,109,l),
(300,439,l),
(241,541,l),
(200,520,l),
(120,520,l),
(120,480,l),
(200,480,l),
(0,80,l),
(0,52,l)
);
},
{
closed = 1;
nodes = (
(0,52,l),
(0,40,l),
(40,0,l),
(120,0,l),
(200,40,l),
(400,240,l),
(360,280,l),
(160,80,l),
(120,80,l),
(134,109,l)
);
}
);
width = 440;
},
{
hints = (
{
horizontal = 1;
place = (0, 80);
place = (0, 80);
type = Stem;
},
{
horizontal = 1;
place = (480, 40);
place = (480, 40);
type = Stem;
},
{
place = (0, 440);
place = (0, 440);
type = Stem;
}
);
layerId = "45DABB71-BDAF-41D9-9CB5-36007FEF02C0";
shapes = (
{
closed = 1;
nodes = (
(1406,2452,l),
(1409,2497,l),
(1521,2542,l),
(1506,2579,l),
(1394,2534,l),
(1409,2713,l),
(1335,2683,l),
(1342,2557,l),
(1313,2525,l)
);
},
{
closed = 1;
nodes = (
(-2312,-1850,l),
(-2462,-1513,l),
(-2579,-1494,l),
(-2588,-1539,l),
(-2639,-1601,l),
(-2608,-1626,l),
(-2557,-1564,l),
(-2375,-1972,l),
(-2353,-1990,l)
);
},
{
closed = 1;
nodes = (
(1497,-2050,l),
(1502,-2061,l),
(1555,-2082,l),
(1628,-2049,l),
(1685,-1981,l),
(1787,-1717,l),
(1735,-1696,l),
(1632,-1960,l),
(1596,-1976,l),
(1597,-1944,l)
);
}
);
width = 440;
}
);
note = t;
unicode = 116;
},
{
glyphname = u;
kernLeft = m;
lastChange = "2024-04-03 18:01:21 +0000";
layers = (
{
hints = (
{
horizontal = 1;
place = (0, 80);
place = (0, 80);
type = Stem;
},
{
horizontal = 1;
place = (480, 40);
place = (480, 40);
type = Stem;
},
{
horizontal = 1;
place = (560, -20);
target = down;
type = TopGhost;
},
{
place = (0, 760);
place = (0, 760);
type = Stem;
}
);
layerId = m01;
shapes = (
{
closed = 1;
nodes = (
(373,436,l),
(400,480,l),
(400,520,l),
(320,560,l),
(200,520,l),
(0,320,l),
(40,280,l),
(240,480,l),
(280,480,l),
(233,405,l)
);
},
{
closed = 1;
nodes = (
(250,80,l),
(240,80,l),
(200,160,l),
(373,436,l),
(233,405,l),
(80,160,l),
(120,40,l),
(200,0,l),
(250,0,l)
);
},
{
closed = 1;
nodes = (
(657,374,l),
(720,480,l),
(680,520,l),
(600,520,l),
(492,331,l)
);
},
{
closed = 1;
nodes = (
(501,80,l),
(480,80,l),
(657,374,l),
(492,331,l),
(440,240,l),
(280,80,l),
(250,80,l),
(250,0,l),
(280,0,l),
(400,120,l),
(400,40,l),
(440,0,l),
(464,0,l)
);
},
{
closed = 1;
nodes = (
(464,0,l),
(480,0,l),
(560,40,l),
(760,240,l),
(720,280,l),
(520,80,l),
(501,80,l)
);
}
);
width = 760;
},
{
hints = (
{
horizontal = 1;
place = (0, 80);
place = (0, 80);
type = Stem;
},
{
horizontal = 1;
place = (480, 40);
place = (480, 40);
type = Stem;
},
{
horizontal = 1;
place = (560, -20);
target = down;
type = TopGhost;
},
{
place = (0, 760);
place = (0, 760);
type = Stem;
}
);
layerId = "45DABB71-BDAF-41D9-9CB5-36007FEF02C0";
shapes = (
{
closed = 1;
nodes = (
(-720,1804,l),
(-705,1854,l),
(-716,1893,l),
(-803,1911,l),
(-909,1842,l),
(-1052,1598,l),
(-1003,1569,l),
(-860,1813,l),
(-821,1823,l),
(-848,1739,l)
);
},
{
closed = 1;
nodes = (
(-1996,-2024,l),
(-2006,-2027,l),
(-2066,-1961,l),
(-1972,-1648,l),
(-2099,-1716,l),
(-2181,-1992,l),
(-2111,-2097,l),
(-2023,-2115,l),
(-1975,-2101,l)
);
},
{
closed = 1;
nodes = (
(1840,2397,l),
(1923,2488,l),
(1891,2535,l),
(1813,2551,l),
(1670,2387,l)
);
},
{
closed = 1;
nodes = (
(-547,-2337,l),
(-567,-2344,l),
(-487,-2010,l),
(-632,-2101,l),
(-654,-2203,l),
(-758,-2404,l),
(-787,-2413,l),
(-763,-2489,l),
(-734,-2480,l),
(-656,-2330,l),
(-632,-2406,l),
(-581,-2432,l),
(-559,-2425,l)
);
},
{
closed = 1;
nodes = (
(2296,-2194,l),
(2309,-2185,l),
(2354,-2107,l),
(2408,-1830,l),
(2352,-1819,l),
(2298,-2096,l),
(2282,-2107,l)
);
}
);
width = 760;
}
);
note = u;
unicode = 117;
},
{
glyphname = v;
kernLeft = m;
kernRight = v;
lastChange = "2024-04-03 18:01:34 +0000";
layers = (
{
hints = (
{
horizontal = 1;
place = (0, 80);
place = (0, 80);
type = Stem;
},
{
horizontal = 1;
place = (400, 120);
place = (400, 120);
type = Stem;
},
{
horizontal = 1;
place = (560, -20);
target = down;
type = TopGhost;
},
{
place = (280, 120);
place = (280, 120);
type = Stem;
},
{
place = (480, 120);
place = (480, 120);
type = Stem;
}
);
layerId = m01;
shapes = (
{
closed = 1;
nodes = (
(288,549,l),
(200,520,l),
(0,320,l),
(40,280,l),
(240,480,l),
(252,480,l)
);
},
{
closed = 1;
nodes = (
(208,152,l),
(400,440,l),
(400,520,l),
(320,560,l),
(288,549,l),
(252,480,l),
(280,480,l),
(58,110,l)
);
},
{
closed = 1;
nodes = (
(434,154,l),
(520,240,l),
(600,400,l),
(600,480,l),
(560,520,l),
(480,520,l),
(440,440,l),
(480,400,l),
(520,400,l),
(480,280,l),
(371,171,l)
);
},
{
closed = 1;
nodes = (
(371,171,l),
(320,120,l),
(200,80,l),
(160,80,l),
(208,152,l),
(58,110,l),
(40,80,l),
(40,40,l),
(80,0,l),
(160,0,l),
(360,80,l),
(434,154,l)
);
}
);
width = 600;
},
{
hints = (
{
horizontal = 1;
place = (0, 80);
place = (0, 80);
type = Stem;
},
{
horizontal = 1;
place = (400, 120);
place = (400, 120);
type = Stem;
},
{
horizontal = 1;
place = (560, -20);
target = down;
type = TopGhost;
},
{
place = (280, 120);
place = (280, 120);
type = Stem;
},
{
place = (480, 120);
place = (480, 120);
type = Stem;
}
);
layerId = "45DABB71-BDAF-41D9-9CB5-36007FEF02C0";
shapes = (
{
closed = 1;
nodes = (
(-1830,2654,l),
(-1897,2590,l),
(-1991,2324,l),
(-1938,2305,l),
(-1843,2571,l),
(-1833,2577,l)
);
},
{
closed = 1;
nodes = (
(-2253,-1899,l),
(-2237,-1554,l),
(-2279,-1485,l),
(-2368,-1492,l),
(-2390,-1518,l),
(-2385,-1596,l),
(-2361,-1581,l),
(-2360,-2013,l)
);
},
{
closed = 1;
nodes = (
(2609,1869,l),
(2670,1975,l),
(2705,2150,l),
(2684,2228,l),
(2635,2256,l),
(2558,2235,l),
(2540,2147,l),
(2589,2119,l),
(2628,2129,l),
(2621,2003,l),
(2544,1869,l)
);
},
{
closed = 1;
nodes = (
(1431,-1834,l),
(1392,-1895,l),
(1284,-1960,l),
(1245,-1969,l),
(1276,-1888,l),
(1139,-1962,l),
(1128,-1995,l),
(1136,-2034,l),
(1184,-2064,l),
(1262,-2047,l),
(1440,-1925,l),
(1496,-1837,l)
);
}
);
width = 600;
}
);
note = v;
unicode = 118;
},
{
glyphname = w;
kernLeft = m;
kernRight = v;
lastChange = "2024-04-03 18:01:51 +0000";
layers = (
{
hints = (
{
horizontal = 1;
place = (0, 80);
place = (0, 80);
type = Stem;
},
{
horizontal = 1;
place = (480, 40);
place = (480, 40);
type = Stem;
},
{
horizontal = 1;
place = (560, -20);
target = down;
type = TopGhost;
},
{
place = (760, 120);
place = (760, 120);
type = Stem;
},
{
horizontal = 1;
place = (40, 40);
place = (40, 40);
type = Stem;
},
{
horizontal = 1;
place = (400, 120);
place = (400, 120);
type = Stem;
}
);
layerId = m01;
shapes = (
{
closed = 1;
nodes = (
(228,543,l),
(160,520,l),
(0,320,l),
(40,280,l),
(200,480,l),
(209,480,l)
);
},
{
closed = 1;
nodes = (
(274,114,l),
(240,80,l),
(200,80,l),
(360,480,l),
(360,520,l),
(280,560,l),
(228,543,l),
(209,480,l),
(240,480,l),
(80,80,l),
(80,40,l),
(120,0,l),
(200,0,l),
(254,27,l)
);
},
{
closed = 1;
nodes = (
(502,136,l),
(640,480,l),
(600,520,l),
(520,520,l),
(440,280,l),
(274,114,l),
(254,27,l),
(280,40,l),
(400,160,l),
(377,90,l)
);
},
{
closed = 1;
nodes = (
(771,211,l),
(800,240,l),
(880,400,l),
(880,480,l),
(840,520,l),
(760,520,l),
(720,440,l),
(760,400,l),
(800,400,l),
(760,280,l),
(708,228,l)
);
},
{
closed = 1;
nodes = (
(708,228,l),
(600,120,l),
(520,80,l),
(480,80,l),
(502,136,l),
(377,90,l),
(360,40,l),
(400,0,l),
(480,0,l),
(640,80,l),
(771,211,l)
);
}
);
width = 880;
},
{
hints = (
{
horizontal = 1;
place = (0, 80);
place = (0, 80);
type = Stem;
},
{
horizontal = 1;
place = (480, 40);
place = (480, 40);
type = Stem;
},
{
horizontal = 1;
place = (560, -20);
target = down;
type = TopGhost;
},
{
place = (760, 120);
place = (760, 120);
type = Stem;
},
{
horizontal = 1;
place = (40, 40);
place = (40, 40);
type = Stem;
},
{
horizontal = 1;
place = (400, 120);
place = (400, 120);
type = Stem;
}
);
layerId = "45DABB71-BDAF-41D9-9CB5-36007FEF02C0";
shapes = (
{
closed = 1;
nodes = (
(-1188,2325,l),
(-1239,2274,l),
(-1294,2024,l),
(-1240,2006,l),
(-1185,2256,l),
(-1177,2260,l)
);
},
{
closed = 1;
nodes = (
(-1332,-1992,l),
(-1356,-2033,l),
(-1395,-2043,l),
(-1343,-1616,l),
(-1353,-1577,l),
(-1441,-1559,l),
(-1487,-1589,l),
(-1489,-1655,l),
(-1459,-1647,l),
(-1511,-2074,l),
(-1501,-2113,l),
(-1452,-2141,l),
(-1375,-2121,l),
(-1329,-2081,l)
);
},
{
closed = 1;
nodes = (
(-1699,-1630,l),
(-1685,-1260,l),
(-1736,-1236,l),
(-1811,-1263,l),
(-1806,-1516,l),
(-1906,-1728,l),
(-1896,-1816,l),
(-1876,-1795,l),
(-1803,-1642,l),
(-1801,-1716,l)
);
},
{
closed = 1;
nodes = (
(1210,2794,l),
(1224,2833,l),
(1229,3012,l),
(1195,3084,l),
(1141,3103,l),
(1069,3069,l),
(1067,2980,l),
(1120,2961,l),
(1156,2978,l),
(1171,2852,l),
(1146,2783,l)
);
},
{
closed = 1;
nodes = (
(1868,-2397,l),
(1780,-2521,l),
(1707,-2574,l),
(1668,-2580,l),
(1680,-2522,l),
(1565,-2588,l),
(1556,-2640,l),
(1602,-2673,l),
(1681,-2659,l),
(1826,-2554,l),
(1933,-2403,l)
);
}
);
width = 880;
}
);
note = w;
unicode = 119;
},
{
glyphname = x;
kernLeft = x;
lastChange = "2024-04-03 18:02:13 +0000";
layers = (
{
hints = (
{
horizontal = 1;
place = (0, 120);
place = (0, 120);
type = Stem;
},
{
horizontal = 1;
place = (560, -20);
target = down;
type = TopGhost;
},
{
place = (280, 40);
place = (280, 40);
type = Stem;
}
);
layerId = m01;
shapes = (
{
closed = 1;
nodes = (
(320,362,l),
(320,520,l),
(280,560,l),
(200,520,l),
(0,320,l),
(40,280,l),
(160,400,l),
(200,400,l),
(252,322,l)
);
},
{
closed = 1;
nodes = (
(360,320,l),
(360,280,l),
(640,480,l),
(560,560,l)
);
},
{
closed = 1;
nodes = (
(346,202,l),
(320,240,l),
(320,362,l),
(252,322,l),
(280,280,l),
(-40,40,l),
(40,-40,l),
(280,240,l),
(280,160,l)
);
},
{
closed = 1;
nodes = (
(280,160,l),
(280,40,l),
(320,0,l),
(400,0,l),
(560,160,l),
(520,200,l),
(440,120,l),
(400,120,l),
(346,202,l)
);
}
);
width = 600;
},
{
hints = (
{
horizontal = 1;
place = (0, 120);
place = (0, 120);
type = Stem;
},
{
horizontal = 1;
place = (560, -20);
target = down;
type = TopGhost;
},
{
place = (280, 40);
place = (280, 40);
type = Stem;
}
);
layerId = "45DABB71-BDAF-41D9-9CB5-36007FEF02C0";
shapes = (
{
closed = 1;
nodes = (
(-1348,1647,l),
(-1384,1800,l),
(-1432,1830,l),
(-1501,1773,l),
(-1650,1533,l),
(-1602,1503,l),
(-1554,1672,l),
(-1474,1656,l),
(-1405,1592,l)
);
},
{
closed = 1;
nodes = (
(1507,1295,l),
(1519,1257,l),
(1726,1532,l),
(1625,1584,l)
);
},
{
closed = 1;
nodes = (
(-1579,-456,l),
(-1619,-433,l),
(-1673,-323,l),
(-1716,-389,l),
(-1673,-414,l),
(-1855,-770,l),
(-1748,-807,l),
(-1655,-450,l),
(-1620,-522,l)
);
},
{
closed = 1;
nodes = (
(1645,-931,l),
(1662,-1049,l),
(1709,-1083,l),
(1788,-1072,l),
(1921,-890,l),
(1877,-856,l),
(1809,-947,l),
(1769,-953,l),
(1705,-880,l)
);
}
);
width = 600;
}
);
note = x;
unicode = 120;
},
{
glyphname = y;
kernLeft = y;
lastChange = "2024-04-03 18:02:36 +0000";
layers = (
{
hints = (
{
horizontal = 1;
place = (-320, 80);
place = (-320, 80);
type = Stem;
},
{
horizontal = 1;
place = (0, 80);
place = (0, 80);
type = Stem;
},
{
horizontal = 1;
place = (480, 40);
place = (480, 40);
type = Stem;
},
{
horizontal = 1;
place = (560, -20);
target = down;
type = TopGhost;
},
{
place = (0, 120);
place = (0, 120);
type = Stem;
}
);
layerId = m01;
shapes = (
{
closed = 1;
nodes = (
(362,405,l),
(400,480,l),
(400,520,l),
(320,560,l),
(200,520,l),
(0,320,l),
(40,280,l),
(240,480,l),
(280,480,l),
(220,360,l)
);
},
{
closed = 1;
nodes = (
(483,111,l),
(720,480,l),
(680,520,l),
(600,520,l),
(480,320,l),
(314,154,l),
(315,75,l),
(440,200,l),
(386,105,l)
);
},
{
closed = 1;
nodes = (
(314,154,l),
(240,80,l),
(200,80,l),
(362,405,l),
(220,360,l),
(80,80,l),
(80,40,l),
(120,0,l),
(200,0,l),
(280,40,l),
(315,75,l)
);
},
{
closed = 1;
nodes = (
(190,-273,l),
(240,-240,l),
(360,-80,l),
(483,111,l),
(386,105,l),
(280,-80,l),
(200,-200,l),
(178,-222,l)
);
},
{
closed = 1;
nodes = (
(178,-222,l),
(160,-240,l),
(120,-240,l),
(120,-160,l),
(80,-120,l),
(0,-160,l),
(0,-280,l),
(80,-320,l),
(120,-320,l),
(190,-273,l)
);
}
);
width = 680;
},
{
hints = (
{
horizontal = 1;
place = (-320, 80);
place = (-320, 80);
type = Stem;
},
{
horizontal = 1;
place = (0, 80);
place = (0, 80);
type = Stem;
},
{
horizontal = 1;
place = (480, 40);
place = (480, 40);
type = Stem;
},
{
horizontal = 1;
place = (560, -20);
target = down;
type = TopGhost;
},
{
place = (0, 120);
place = (0, 120);
type = Stem;
}
);
layerId = "45DABB71-BDAF-41D9-9CB5-36007FEF02C0";
shapes = (
{
closed = 1;
nodes = (
(-1258,1168,l),
(-1249,1252,l),
(-1264,1289,l),
(-1353,1298,l),
(-1451,1217,l),
(-1566,959,l),
(-1514,936,l),
(-1399,1194,l),
(-1362,1209,l),
(-1375,1075,l)
);
},
{
closed = 1;
nodes = (
(2090,1534,l),
(2159,1967,l),
(2106,1988,l),
(2032,1955,l),
(2002,1724,l),
(1919,1505,l),
(1951,1433,l),
(2015,1598,l),
(2004,1489,l)
);
},
{
closed = 1;
nodes = (
(-913,-1165,l),
(-937,-1267,l),
(-971,-1288,l),
(-1005,-927,l),
(-1102,-1040,l),
(-1073,-1352,l),
(-1051,-1386,l),
(-996,-1398,l),
(-928,-1356,l),
(-882,-1280,l),
(-870,-1232,l)
);
},
{
closed = 1;
nodes = (
(1900,-994,l),
(1959,-988,l),
(2139,-901,l),
(2336,-788,l),
(2247,-748,l),
(2068,-864,l),
(1942,-934,l),
(1912,-943,l)
);
},
{
closed = 1;
nodes = (
(360,-2197,l),
(362,-2223,l),
(335,-2253,l),
(275,-2200,l),
(219,-2203,l),
(196,-2290,l),
(286,-2369,l),
(369,-2336,l),
(395,-2306,l),
(406,-2222,l)
);
}
);
width = 680;
}
);
note = y;
unicode = 121;
},
{
glyphname = z;
kernLeft = z;
lastChange = "2024-04-03 18:02:51 +0000";
layers = (
{
hints = (
{
horizontal = 1;
place = (0, 560);
place = (0, 560);
type = Stem;
},
{
place = (-80, 640);
place = (-80, 640);
type = Stem;
},
{
place = (120, 160);
place = (120, 160);
type = Stem;
}
);
layerId = m01;
shapes = (
{
closed = 1;
nodes = (
(235,224,l),
(120,120,l),
(224,94,l),
(234,0,l),
(120,0,l),
(40,80,l),
(-40,0,l),
(-80,40,l),
(229,293,l)
);
},
{
closed = 1;
nodes = (
(224,94,l),
(280,80,l),
(280,160,l),
(360,200,l),
(400,160,l),
(400,40,l),
(320,0,l),
(234,0,l)
);
},
{
closed = 1;
nodes = (
(368,516,l),
(440,480,l),
(520,560,l),
(560,520,l),
(235,224,l),
(229,293,l),
(360,400,l),
(278,416,l)
);
},
{
closed = 1;
nodes = (
(278,416,l),
(160,440,l),
(120,400,l),
(120,320,l),
(80,320,l),
(80,520,l),
(280,560,l),
(368,516,l)
);
}
);
width = 520;
},
{
hints = (
{
horizontal = 1;
place = (0, 560);
place = (0, 560);
type = Stem;
},
{
place = (-80, 640);
place = (-80, 640);
type = Stem;
},
{
place = (120, 160);
place = (120, 160);
type = Stem;
}
);
layerId = "45DABB71-BDAF-41D9-9CB5-36007FEF02C0";
shapes = (
{
closed = 1;
nodes = (
(-1093,-1452,l),
(-1143,-1599,l),
(-1040,-1571,l),
(-985,-1648,l),
(-1084,-1704,l),
(-1193,-1673,l),
(-1224,-1782,l),
(-1278,-1767,l),
(-1132,-1395,l)
);
},
{
closed = 1;
nodes = (
(1999,-1631,l),
(2050,-1658,l),
(2068,-1580,l),
(2156,-1559,l),
(2185,-1608,l),
(2157,-1724,l),
(2070,-1745,l),
(1987,-1725,l)
);
},
{
closed = 1;
nodes = (
(2187,1932,l),
(2268,1932,l),
(2303,2040,l),
(2357,2022,l),
(2200,1611,l),
(2163,1670,l),
(2232,1825,l),
(2152,1802,l)
);
},
{
closed = 1;
nodes = (
(-1177,1828,l),
(-1295,1800,l),
(-1314,1747,l),
(-1280,1675,l),
(-1316,1658,l),
(-1401,1838,l),
(-1237,1959,l),
(-1139,1957,l)
);
}
);
width = 520;
}
);
note = z;
unicode = 122;
},
{
glyphname = period;
kernLeft = period;
kernRight = period;
lastChange = "2024-04-03 18:03:01 +0000";
layers = (
{
hints = (
{
horizontal = 1;
place = (0, 160);
place = (0, 160);
type = Stem;
},
{
place = (0, 160);
place = (0, 160);
type = Stem;
}
);
layerId = m01;
shapes = (
{
closed = 1;
nodes = (
(142,44,l),
(120,0,l),
(80,0,l),
(0,40,l),
(0,80,l),
(28,137,l)
);
},
{
closed = 1;
nodes = (
(28,137,l),
(40,160,l),
(80,160,l),
(160,120,l),
(160,80,l),
(142,44,l)
);
}
);
width = 200;
},
{
hints = (
{
horizontal = 1;
place = (0, 160);
place = (0, 160);
type = Stem;
},
{
place = (0, 160);
place = (0, 160);
type = Stem;
}
);
layerId = "45DABB71-BDAF-41D9-9CB5-36007FEF02C0";
shapes = (
{
closed = 1;
nodes = (
(-871,-1764,l),
(-881,-1812,l),
(-920,-1822,l),
(-1008,-1803,l),
(-1018,-1764,l),
(-1005,-1702,l)
);
},
{
closed = 1;
nodes = (
(1156,2194,l),
(1164,2218,l),
(1204,2224,l),
(1289,2195,l),
(1295,2156,l),
(1282,2118,l)
);
}
);
width = 200;
}
);
note = period;
unicode = 46;
},
{
glyphname = comma;
kernLeft = comma;
kernRight = comma;
lastChange = "2024-04-03 18:03:13 +0000";
layers = (
{
hints = (
{
horizontal = 1;
place = (0, 21);
target = up;
type = BottomGhost;
},
{
place = (0, 200);
place = (0, 200);
type = Stem;
}
);
layerId = m01;
shapes = (
{
closed = 1;
nodes = (
(200,85,l),
(200,40,l),
(120,-120,l),
(0,-120,l),
(0,-80,l),
(80,-80,l),
(120,0,l),
(86,17,l)
);
},
{
closed = 1;
nodes = (
(86,17,l),
(40,40,l),
(40,80,l),
(80,160,l),
(120,160,l),
(200,120,l),
(200,85,l)
);
}
);
width = 240;
},
{
hints = (
{
horizontal = 1;
place = (0, 21);
target = up;
type = BottomGhost;
},
{
place = (0, 200);
place = (0, 200);
type = Stem;
}
);
layerId = "45DABB71-BDAF-41D9-9CB5-36007FEF02C0";
shapes = (
{
closed = 1;
nodes = (
(805,-1951,l),
(784,-1991,l),
(641,-2097,l),
(534,-2043,l),
(552,-2007,l),
(623,-2044,l),
(695,-1990,l),
(672,-1960,l)
);
},
{
closed = 1;
nodes = (
(-1474,2180,l),
(-1525,2186,l),
(-1538,2223,l),
(-1528,2312,l),
(-1490,2326,l),
(-1401,2315,l),
(-1389,2282,l)
);
}
);
width = 240;
}
);
note = comma;
unicode = 44;
},
{
glyphname = colon;
kernLeft = colon;
kernRight = colon;
lastChange = "2024-04-03 18:03:30 +0000";
layers = (
{
hints = (
{
horizontal = 1;
place = (0, 520);
place = (0, 520);
type = Stem;
},
{
place = (0, 280);
place = (0, 280);
type = Stem;
}
);
layerId = m01;
shapes = (
{
closed = 1;
nodes = (
(265,410,l),
(240,360,l),
(200,360,l),
(120,400,l),
(120,440,l),
(133,466,l)
);
},
{
closed = 1;
nodes = (
(96,152,l),
(160,120,l),
(160,80,l),
(120,0,l),
(80,0,l),
(31,24,l)
);
},
{
closed = 1;
nodes = (
(31,24,l),
(0,40,l),
(0,80,l),
(40,160,l),
(80,160,l),
(96,152,l)
);
},
{
closed = 1;
nodes = (
(133,466,l),
(160,520,l),
(200,520,l),
(280,480,l),
(280,440,l),
(265,410,l)
);
}
);
width = 280;
},
{
hints = (
{
horizontal = 1;
place = (0, 520);
place = (0, 520);
type = Stem;
},
{
place = (0, 280);
place = (0, 280);
type = Stem;
}
);
layerId = "45DABB71-BDAF-41D9-9CB5-36007FEF02C0";
shapes = (
{
closed = 1;
nodes = (
(-1568,-629,l),
(-1603,-673,l),
(-1642,-664,l),
(-1712,-609,l),
(-1704,-570,l),
(-1686,-547,l)
);
},
{
closed = 1;
nodes = (
(2192,-1237,l),
(2231,-1296,l),
(2211,-1331,l),
(2136,-1380,l),
(2102,-1360,l),
(2071,-1314,l)
);
},
{
closed = 1;
nodes = (
(-1470,1063,l),
(-1495,1088,l),
(-1483,1126,l),
(-1420,1190,l),
(-1382,1178,l),
(-1369,1165,l)
);
},
{
closed = 1;
nodes = (
(1438,2446,l),
(1489,2479,l),
(1523,2459,l),
(1572,2385,l),
(1552,2350,l),
(1524,2332,l)
);
}
);
width = 280;
}
);
note = colon;
unicode = 58;
},
{
glyphname = semicolon;
kernLeft = colon;
kernRight = colon;
lastChange = "2024-04-03 18:07:11 +0000";
layers = (
{
hints = (
{
horizontal = 1;
place = (0, 21);
target = up;
type = BottomGhost;
},
{
place = (0, 320);
place = (0, 320);
type = Stem;
}
);
layerId = m01;
shapes = (
{
closed = 1;
nodes = (
(304,488,l),
(320,480,l),
(320,440,l),
(280,360,l),
(240,360,l),
(181,390,l)
);
},
{
closed = 1;
nodes = (
(200,54,l),
(200,40,l),
(120,-120,l),
(0,-120,l),
(0,-80,l),
(80,-80,l),
(120,0,l),
(79,20,l)
);
},
{
closed = 1;
nodes = (
(79,20,l),
(40,40,l),
(40,80,l),
(80,160,l),
(120,160,l),
(200,120,l),
(200,54,l)
);
},
{
closed = 1;
nodes = (
(181,390,l),
(160,400,l),
(160,440,l),
(200,520,l),
(240,520,l),
(304,488,l)
);
}
);
width = 320;
},
{
hints = (
{
horizontal = 1;
place = (0, 21);
target = up;
type = BottomGhost;
},
{
place = (0, 320);
place = (0, 320);
type = Stem;
}
);
layerId = "45DABB71-BDAF-41D9-9CB5-36007FEF02C0";
shapes = (
{
closed = 1;
nodes = (
(1250,-1107,l),
(1262,-1119,l),
(1251,-1158,l),
(1189,-1222,l),
(1151,-1210,l),
(1103,-1164,l)
);
},
{
closed = 1;
nodes = (
(-893,-2259,l),
(-896,-2273,l),
(-1012,-2409,l),
(-1128,-2380,l),
(-1119,-2341,l),
(-1041,-2360,l),
(-983,-2292,l),
(-1018,-2263,l)
);
},
{
closed = 1;
nodes = (
(1336,1519,l),
(1306,1551,l),
(1320,1589,l),
(1385,1650,l),
(1423,1636,l),
(1484,1571,l),
(1461,1509,l)
);
},
{
closed = 1;
nodes = (
(-923,2613,l),
(-946,2617,l),
(-957,2656,l),
(-941,2744,l),
(-902,2755,l),
(-832,2742,l)
);
}
);
width = 320;
}
);
note = semicolon;
unicode = 59;
},
{
glyphname = ellipsis;
kernLeft = period;
kernRight = period;
lastChange = "2024-04-03 18:07:36 +0000";
layers = (
{
hints = (
{
horizontal = 1;
place = (0, 160);
place = (0, 160);
type = Stem;
},
{
place = (160, 80);
place = (160, 80);
type = Stem;
},
{
place = (400, 80);
place = (400, 80);
type = Stem;
}
);
layerId = m01;
shapes = (
{
closed = 1;
nodes = (
(132,134,l),
(160,120,l),
(160,80,l),
(120,0,l),
(80,0,l),
(31,24,l)
);
},
{
closed = 1;
nodes = (
(384,47,l),
(360,0,l),
(320,0,l),
(240,40,l),
(240,80,l),
(262,125,l)
);
},
{
closed = 1;
nodes = (
(576,152,l),
(640,120,l),
(640,80,l),
(600,0,l),
(560,0,l),
(529,16,l)
);
},
{
closed = 1;
nodes = (
(31,24,l),
(0,40,l),
(0,80,l),
(40,160,l),
(80,160,l),
(132,134,l)
);
},
{
closed = 1;
nodes = (
(262,125,l),
(280,160,l),
(320,160,l),
(400,120,l),
(400,80,l),
(384,47,l)
);
},
{
closed = 1;
nodes = (
(529,16,l),
(480,40,l),
(480,80,l),
(520,160,l),
(560,160,l),
(576,152,l)
);
}
);
width = 640;
},
{
hints = (
{
horizontal = 1;
place = (0, 160);
place = (0, 160);
type = Stem;
},
{
place = (160, 80);
place = (160, 80);
type = Stem;
},
{
place = (400, 80);
place = (400, 80);
type = Stem;
}
);
layerId = "45DABB71-BDAF-41D9-9CB5-36007FEF02C0";
shapes = (
{
closed = 1;
nodes = (
(-912,-1242,l),
(-893,-1266,l),
(-909,-1303,l),
(-979,-1359,l),
(-1015,-1343,l),
(-1050,-1301,l)
);
},
{
closed = 1;
nodes = (
(-7,-1569,l),
(2,-1621,l),
(-31,-1644,l),
(-119,-1659,l),
(-142,-1627,l),
(-151,-1578,l)
);
},
{
closed = 1;
nodes = (
(1421,-901,l),
(1467,-956,l),
(1451,-992,l),
(1382,-1050,l),
(1346,-1034,l),
(1324,-1007,l)
);
},
{
closed = 1;
nodes = (
(-529,1604,l),
(-555,1627,l),
(-545,1666,l),
(-486,1733,l),
(-447,1722,l),
(-403,1684,l)
);
},
{
closed = 1;
nodes = (
(399,2486,l),
(405,2525,l),
(443,2538,l),
(531,2525,l),
(544,2487,l),
(539,2451,l)
);
},
{
closed = 1;
nodes = (
(-1532,2462,l),
(-1570,2502,l),
(-1556,2539,l),
(-1491,2601,l),
(-1453,2587,l),
(-1441,2574,l)
);
}
);
width = 640;
}
);
note = ellipsis;
unicode = 8230;
},
{
glyphname = hyphen;
kernLeft = hyphen;
kernRight = hyphen;
lastChange = "2024-04-03 18:07:42 +0000";
layers = (
{
hints = (
{
horizontal = 1;
place = (240, 80);
place = (240, 80);
type = Stem;
},
{
place = (40, 240);
place = (40, 240);
type = Stem;
}
);
layerId = m01;
shapes = (
{
closed = 1;
nodes = (
(182,240,l),
(40,240,l),
(40,320,l),
(127,320,l)
);
},
{
closed = 1;
nodes = (
(127,320,l),
(280,320,l),
(280,240,l),
(182,240,l)
);
}
);
width = 320;
},
{
hints = (
{
horizontal = 1;
place = (240, 80);
place = (240, 80);
type = Stem;
},
{
place = (40, 240);
place = (40, 240);
type = Stem;
}
);
layerId = "45DABB71-BDAF-41D9-9CB5-36007FEF02C0";
shapes = (
{
closed = 1;
nodes = (
(-983,-820,l),
(-1120,-858,l),
(-1141,-781,l),
(-1058,-758,l)
);
},
{
closed = 1;
nodes = (
(1398,1755,l),
(1542,1807,l),
(1569,1731,l),
(1477,1698,l)
);
}
);
width = 320;
}
);
note = hyphen;
unicode = 45;
},
{
glyphname = exclam;
lastChange = "2024-04-03 18:07:59 +0000";
layers = (
{
hints = (
{
horizontal = 1;
place = (160, 80);
place = (160, 80);
type = Stem;
},
{
place = (40, 400);
place = (40, 400);
type = Stem;
}
);
layerId = m01;
shapes = (
{
closed = 1;
nodes = (
(294,488,l),
(160,240,l),
(120,240,l),
(231,601,l)
);
},
{
closed = 1;
nodes = (
(184,47,l),
(160,0,l),
(120,0,l),
(40,40,l),
(40,80,l),
(52,105,l)
);
},
{
closed = 1;
nodes = (
(231,601,l),
(280,760,l),
(320,800,l),
(400,800,l),
(440,760,l),
(294,488,l)
);
},
{
closed = 1;
nodes = (
(52,105,l),
(80,160,l),
(120,160,l),
(200,120,l),
(200,80,l),
(184,47,l)
);
}
);
width = 240;
},
{
hints = (
{
horizontal = 1;
place = (160, 80);
place = (160, 80);
type = Stem;
},
{
place = (40, 400);
place = (40, 400);
type = Stem;
}
);
layerId = "45DABB71-BDAF-41D9-9CB5-36007FEF02C0";
shapes = (
{
closed = 1;
nodes = (
(-1914,1027,l),
(-2146,867,l),
(-2182,885,l),
(-1919,1156,l)
);
},
{
closed = 1;
nodes = (
(-618,-1233,l),
(-618,-1286,l),
(-654,-1303,l),
(-743,-1304,l),
(-761,-1268,l),
(-762,-1240,l)
);
},
{
closed = 1;
nodes = (
(809,2857,l),
(800,3023,l),
(823,3073,l),
(898,3102,l),
(950,3078,l),
(908,2772,l)
);
},
{
closed = 1;
nodes = (
(2040,1629,l),
(2080,1676,l),
(2119,1666,l),
(2187,1609,l),
(2178,1570,l),
(2155,1542,l)
);
}
);
width = 240;
}
);
note = exclam;
unicode = 33;
},
{
glyphname = question;
kernRight = question;
lastChange = "2024-04-03 18:08:24 +0000";
layers = (
{
hints = (
{
horizontal = 1;
place = (160, 80);
place = (160, 80);
type = Stem;
},
{
horizontal = 1;
place = (600, -20);
target = down;
type = TopGhost;
},
{
place = (320, 240);
place = (320, 240);
type = Stem;
}
);
layerId = m01;
shapes = (
{
closed = 1;
nodes = (
(502,391,l),
(440,360,l),
(320,320,l),
(280,240,l),
(240,240,l),
(280,360,l),
(400,400,l),
(475,450,l)
);
},
{
closed = 1;
nodes = (
(301,129,l),
(320,120,l),
(320,80,l),
(280,0,l),
(240,0,l),
(194,23,l)
);
},
{
closed = 1;
nodes = (
(194,23,l),
(160,40,l),
(160,80,l),
(200,160,l),
(240,160,l),
(301,129,l)
);
},
{
closed = 1;
nodes = (
(622,727,l),
(680,640,l),
(680,560,l),
(600,440,l),
(502,391,l),
(475,450,l),
(520,480,l),
(560,560,l),
(560,640,l),
(546,669,l)
);
},
{
closed = 1;
nodes = (
(338,676,l),
(320,640,l),
(320,520,l),
(280,520,l),
(200,600,l),
(200,640,l),
(254,721,l)
);
},
{
closed = 1;
nodes = (
(254,721,l),
(280,760,l),
(400,800,l),
(480,800,l),
(600,760,l),
(622,727,l),
(546,669,l),
(520,720,l),
(440,760,l),
(360,720,l),
(338,676,l)
);
}
);
width = 520;
},
{
hints = (
{
horizontal = 1;
place = (160, 80);
place = (160, 80);
type = Stem;
},
{
horizontal = 1;
place = (600, -20);
target = down;
type = TopGhost;
},
{
place = (320, 240);
place = (320, 240);
type = Stem;
}
);
layerId = "45DABB71-BDAF-41D9-9CB5-36007FEF02C0";
shapes = (
{
closed = 1;
nodes = (
(1100,-1140,l),
(1056,-1194,l),
(962,-1279,l),
(959,-1369,l),
(922,-1385,l),
(910,-1259,l),
(1003,-1174,l),
(1051,-1097,l)
);
},
{
closed = 1;
nodes = (
(3237,-591,l),
(3254,-604,l),
(3245,-643,l),
(3188,-712,l),
(3149,-703,l),
(3109,-670,l)
);
},
{
closed = 1;
nodes = (
(-1563,987,l),
(-1599,1001,l),
(-1602,1041,l),
(-1569,1124,l),
(-1529,1127,l),
(-1466,1102,l)
);
},
{
closed = 1;
nodes = (
(1870,-693,l),
(1909,-790,l),
(1892,-868,l),
(1789,-969,l),
(1683,-996,l),
(1669,-933,l),
(1719,-913,l),
(1775,-843,l),
(1791,-765,l),
(1784,-733,l)
);
},
{
closed = 1;
nodes = (
(-824,1655,l),
(-861,1639,l),
(-939,1548,l),
(-970,1574,l),
(-979,1687,l),
(-953,1717,l),
(-859,1744,l)
);
},
{
closed = 1;
nodes = (
(-117,2348,l),
(-104,2393,l),
(0,2466,l),
(76,2489,l),
(203,2485,l),
(233,2460,l),
(177,2382,l),
(138,2424,l),
(50,2439,l),
(-15,2378,l),
(-24,2329,l)
);
}
);
width = 520;
}
);
note = question;
unicode = 63;
},
{
glyphname = quoteleft;
kernLeft = quoteleft;
kernRight = quoteleft;
lastChange = "2024-04-03 18:08:35 +0000";
layers = (
{
hints = (
{
horizontal = 1;
place = (560, -20);
target = down;
type = TopGhost;
},
{
horizontal = 1;
place = (600, -20);
target = down;
type = TopGhost;
},
{
place = (40, 200);
place = (40, 200);
type = Stem;
}
);
layerId = m01;
shapes = (
{
closed = 1;
nodes = (
(183,658,l),
(160,600,l),
(120,560,l),
(80,560,l),
(40,600,l),
(40,640,l),
(68,668,l)
);
},
{
closed = 1;
nodes = (
(68,668,l),
(200,800,l),
(240,800,l),
(183,658,l)
);
}
);
width = 200;
},
{
hints = (
{
horizontal = 1;
place = (560, -20);
target = down;
type = TopGhost;
},
{
horizontal = 1;
place = (600, -20);
target = down;
type = TopGhost;
},
{
place = (40, 200);
place = (40, 200);
type = Stem;
}
);
layerId = "45DABB71-BDAF-41D9-9CB5-36007FEF02C0";
shapes = (
{
closed = 1;
nodes = (
(-981,-1896,l),
(-1023,-1942,l),
(-1075,-1965,l),
(-1112,-1950,l),
(-1135,-1898,l),
(-1121,-1861,l),
(-1084,-1845,l)
);
},
{
closed = 1;
nodes = (
(1180,3014,l),
(1340,3110,l),
(1379,3100,l),
(1289,2976,l)
);
}
);
width = 200;
}
);
note = quoteleft;
unicode = 8216;
},
{
glyphname = quoteright;
kernLeft = quoteright;
lastChange = "2024-04-03 18:08:57 +0000";
layers = (
{
hints = (
{
horizontal = 1;
place = (560, -20);
target = down;
type = TopGhost;
},
{
place = (120, 200);
place = (120, 200);
type = Stem;
}
);
layerId = m01;
shapes = (
{
closed = 1;
nodes = (
(234,634,l),
(160,560,l),
(120,560,l),
(152,640,l)
);
},
{
closed = 1;
nodes = (
(152,640,l),
(200,760,l),
(240,800,l),
(280,800,l),
(320,760,l),
(320,720,l),
(234,634,l)
);
}
);
width = 200;
},
{
hints = (
{
horizontal = 1;
place = (560, -20);
target = down;
type = TopGhost;
},
{
place = (120, 200);
place = (120, 200);
type = Stem;
}
);
layerId = "45DABB71-BDAF-41D9-9CB5-36007FEF02C0";
shapes = (
{
closed = 1;
nodes = (
(1026,-1306,l),
(1013,-1410,l),
(981,-1434,l),
(958,-1351,l)
);
},
{
closed = 1;
nodes = (
(-1912,2646,l),
(-1897,2774,l),
(-1868,2823,l),
(-1829,2834,l),
(-1781,2805,l),
(-1770,2766,l),
(-1832,2661,l)
);
}
);
width = 200;
}
);
note = quoteright;
unicode = 8217;
},
{
glyphname = quotedblleft;
kernLeft = quoteleft;
kernRight = quoteleft;
lastChange = "2024-04-03 18:08:49 +0000";
layers = (
{
hints = (
{
horizontal = 1;
place = (560, -20);
target = down;
type = TopGhost;
},
{
horizontal = 1;
place = (600, -20);
target = down;
type = TopGhost;
},
{
place = (120, 360);
place = (120, 360);
type = Stem;
}
);
layerId = m01;
shapes = (
{
closed = 1;
nodes = (
(226,586,l),
(200,560,l),
(160,560,l),
(120,600,l),
(120,640,l),
(176,696,l)
);
},
{
closed = 1;
nodes = (
(422,654,l),
(400,600,l),
(360,560,l),
(320,560,l),
(280,600,l),
(280,640,l),
(363,723,l)
);
},
{
closed = 1;
nodes = (
(176,696,l),
(280,800,l),
(320,800,l),
(240,600,l),
(226,586,l)
);
},
{
closed = 1;
nodes = (
(363,723,l),
(440,800,l),
(480,800,l),
(422,654,l)
);
}
);
width = 440;
},
{
hints = (
{
horizontal = 1;
place = (560, -20);
target = down;
type = TopGhost;
},
{
horizontal = 1;
place = (600, -20);
target = down;
type = TopGhost;
},
{
place = (120, 360);
place = (120, 360);
type = Stem;
}
);
layerId = "45DABB71-BDAF-41D9-9CB5-36007FEF02C0";
shapes = (
{
closed = 1;
nodes = (
(-2262,-1485,l),
(-2282,-1516,l),
(-2321,-1525,l),
(-2368,-1494,l),
(-2377,-1455,l),
(-2334,-1388,l)
);
},
{
closed = 1;
nodes = (
(-612,-1750,l),
(-614,-1808,l),
(-637,-1860,l),
(-675,-1874,l),
(-726,-1851,l),
(-740,-1813,l),
(-692,-1706,l)
);
},
{
closed = 1;
nodes = (
(142,3340,l),
(226,3461,l),
(266,3468,l),
(222,3257,l),
(211,3240,l)
);
},
{
closed = 1;
nodes = (
(2539,2708,l),
(2633,2764,l),
(2672,2754,l),
(2579,2627,l)
);
}
);
width = 440;
}
);
note = quotedblleft;
unicode = 8220;
},
{
glyphname = quotedblright;
kernLeft = quoteright;
lastChange = "2024-04-03 18:10:31 +0000";
layers = (
{
hints = (
{
horizontal = 1;
place = (560, -20);
target = down;
type = TopGhost;
},
{
place = (120, 360);
place = (120, 360);
type = Stem;
}
);
layerId = m01;
shapes = (
{
closed = 1;
nodes = (
(217,617,l),
(160,560,l),
(120,560,l),
(200,760,l),
(210,770,l)
);
},
{
closed = 1;
nodes = (
(418,658,l),
(320,560,l),
(280,560,l),
(315,648,l)
);
},
{
closed = 1;
nodes = (
(210,770,l),
(240,800,l),
(280,800,l),
(320,760,l),
(320,720,l),
(217,617,l)
);
},
{
closed = 1;
nodes = (
(315,648,l),
(360,760,l),
(400,800,l),
(440,800,l),
(480,760,l),
(480,720,l),
(418,658,l)
);
}
);
width = 360;
},
{
hints = (
{
horizontal = 1;
place = (560, -20);
target = down;
type = TopGhost;
},
{
place = (120, 360);
place = (120, 360);
type = Stem;
}
);
layerId = "45DABB71-BDAF-41D9-9CB5-36007FEF02C0";
shapes = (
{
closed = 1;
nodes = (
(-2057,1260,l),
(-2137,1246,l),
(-2169,1269,l),
(-1988,1386,l),
(-1974,1388,l)
);
},
{
closed = 1;
nodes = (
(1173,-1463,l),
(1160,-1601,l),
(1129,-1626,l),
(1100,-1536,l)
);
},
{
closed = 1;
nodes = (
(-622,2665,l),
(-602,2702,l),
(-564,2714,l),
(-514,2687,l),
(-503,2649,l),
(-571,2520,l)
);
},
{
closed = 1;
nodes = (
(1570,1551,l),
(1651,1640,l),
(1703,1664,l),
(1740,1650,l),
(1764,1599,l),
(1750,1561,l),
(1670,1524,l)
);
}
);
width = 360;
}
);
note = quotedblright;
unicode = 8221;
},
{
glyphname = quotesingle;
kernLeft = quoteright;
lastChange = "2024-04-03 18:10:15 +0000";
layers = (
{
hints = (
{
horizontal = 1;
place = (560, -20);
target = down;
type = TopGhost;
},
{
place = (200, 160);
place = (200, 160);
type = Stem;
}
);
layerId = m01;
shapes = (
{
closed = 1;
nodes = (
(290,650,l),
(200,560,l),
(200,600,l),
(227,707,l)
);
},
{
closed = 1;
nodes = (
(227,707,l),
(240,760,l),
(280,800,l),
(320,800,l),
(360,760,l),
(360,720,l),
(290,650,l)
);
}
);
width = 280;
},
{
hints = (
{
horizontal = 1;
place = (560, -20);
target = down;
type = TopGhost;
},
{
place = (200, 160);
place = (200, 160);
type = Stem;
}
);
layerId = "45DABB71-BDAF-41D9-9CB5-36007FEF02C0";
shapes = (
{
closed = 1;
nodes = (
(-982,-1318,l),
(-1040,-1432,l),
(-1052,-1394,l),
(-1060,-1284,l)
);
},
{
closed = 1;
nodes = (
(1570,3029,l),
(1559,3083,l),
(1578,3136,l),
(1614,3153,l),
(1667,3134,l),
(1685,3098,l),
(1651,3005,l)
);
}
);
width = 280;
}
);
note = quotesingle;
unicode = 39;
},
{
glyphname = quotedbl;
kernLeft = quoteright;
lastChange = "2024-04-03 18:10:07 +0000";
layers = (
{
hints = (
{
horizontal = 1;
place = (560, -20);
target = down;
type = TopGhost;
},
{
place = (200, 320);
place = (200, 320);
type = Stem;
}
);
layerId = m01;
shapes = (
{
closed = 1;
nodes = (
(313,673,l),
(200,560,l),
(200,600,l),
(219,675,l)
);
},
{
closed = 1;
nodes = (
(450,650,l),
(360,560,l),
(360,600,l),
(400,760,l),
(411,771,l)
);
},
{
closed = 1;
nodes = (
(219,675,l),
(240,760,l),
(280,800,l),
(320,800,l),
(360,760,l),
(360,720,l),
(313,673,l)
);
},
{
closed = 1;
nodes = (
(411,771,l),
(440,800,l),
(480,800,l),
(520,760,l),
(520,720,l),
(450,650,l)
);
}
);
width = 440;
},
{
hints = (
{
horizontal = 1;
place = (560, -20);
target = down;
type = TopGhost;
},
{
place = (200, 320);
place = (200, 320);
type = Stem;
}
);
layerId = "45DABB71-BDAF-41D9-9CB5-36007FEF02C0";
shapes = (
{
closed = 1;
nodes = (
(763,-914,l),
(724,-1069,l),
(703,-1034,l),
(681,-960,l)
);
},
{
closed = 1;
nodes = (
(-792,-1867,l),
(-846,-1982,l),
(-860,-1945,l),
(-877,-1781,l),
(-870,-1766,l)
);
},
{
closed = 1;
nodes = (
(862,3018,l),
(897,3098,l),
(943,3131,l),
(982,3125,l),
(1015,3079,l),
(1009,3039,l),
(955,3001,l)
);
},
{
closed = 1;
nodes = (
(2394,3196,l),
(2418,3229,l),
(2457,3236,l),
(2503,3204,l),
(2510,3164,l),
(2453,3083,l)
);
}
);
width = 440;
}
);
note = quotedbl;
unicode = 34;
},
{
glyphname = guillemotleft;
lastChange = "2024-04-03 18:09:36 +0000";
layers = (
{
hints = (
{
horizontal = 1;
place = (40, 560);
place = (40, 560);
type = Stem;
},
{
place = (120, 120);
place = (120, 120);
type = Stem;
}
);
layerId = m01;
shapes = (
{
closed = 1;
nodes = (
(180,370,l),
(120,320,l),
(240,120,l),
(200,40,l),
(40,320,l),
(160,440,l)
);
},
{
closed = 1;
nodes = (
(309,281,l),
(400,160,l),
(360,80,l),
(285,205,l)
);
},
{
closed = 1;
nodes = (
(160,440,l),
(320,600,l),
(360,520,l),
(180,370,l)
);
},
{
closed = 1;
nodes = (
(285,205,l),
(240,280,l),
(240,360,l),
(480,560,l),
(520,480,l),
(280,320,l),
(309,281,l)
);
}
);
width = 520;
},
{
hints = (
{
horizontal = 1;
place = (40, 560);
place = (40, 560);
type = Stem;
},
{
place = (120, 120);
place = (120, 120);
type = Stem;
}
);
layerId = "45DABB71-BDAF-41D9-9CB5-36007FEF02C0";
shapes = (
{
closed = 1;
nodes = (
(-1030,-814,l),
(-1058,-887,l),
(-856,-1004,l),
(-852,-1093,l),
(-1128,-926,l),
(-1081,-763,l)
);
},
{
closed = 1;
nodes = (
(1635,-1628,l),
(1756,-1718,l),
(1741,-1806,l),
(1633,-1708,l)
);
},
{
closed = 1;
nodes = (
(1070,2145,l),
(1182,2342,l),
(1242,2275,l),
(1108,2083,l)
);
},
{
closed = 1;
nodes = (
(-960,1933,l),
(-1017,1999,l),
(-1031,2078,l),
(-829,2316,l),
(-775,2244,l),
(-984,2046,l),
(-949,2012,l)
);
}
);
width = 520;
}
);
note = guillemotleft;
unicode = 171;
},
{
glyphname = guillemotright;
lastChange = "2024-04-03 18:09:49 +0000";
layers = (
{
hints = (
{
horizontal = 1;
place = (40, 560);
place = (40, 560);
type = Stem;
},
{
place = (280, 120);
place = (280, 120);
type = Stem;
}
);
layerId = m01;
shapes = (
{
closed = 1;
nodes = (
(362,202,l),
(200,40,l),
(160,120,l),
(331,262,l)
);
},
{
closed = 1;
nodes = (
(253,406,l),
(280,360,l),
(280,280,l),
(40,80,l),
(0,160,l),
(240,320,l),
(208,363,l)
);
},
{
closed = 1;
nodes = (
(208,363,l),
(120,480,l),
(160,560,l),
(253,406,l)
);
},
{
closed = 1;
nodes = (
(331,262,l),
(400,320,l),
(280,520,l),
(320,600,l),
(480,320,l),
(362,202,l)
);
}
);
width = 520;
},
{
hints = (
{
horizontal = 1;
place = (40, 560);
place = (40, 560);
type = Stem;
},
{
place = (280, 120);
place = (280, 120);
type = Stem;
}
);
layerId = "45DABB71-BDAF-41D9-9CB5-36007FEF02C0";
shapes = (
{
closed = 1;
nodes = (
(1242,-1131,l),
(1150,-1340,l),
(1083,-1281,l),
(1191,-1086,l)
);
},
{
closed = 1;
nodes = (
(-829,-1228,l),
(-824,-1281,l),
(-857,-1354,l),
(-1158,-1437,l),
(-1161,-1348,l),
(-876,-1301,l),
(-888,-1249,l)
);
},
{
closed = 1;
nodes = (
(-345,1974,l),
(-376,2117,l),
(-307,2173,l),
(-286,1994,l)
);
},
{
closed = 1;
nodes = (
(2002,1855,l),
(2019,1944,l),
(1799,2023,l),
(1780,2111,l),
(2081,1994,l),
(2064,1828,l)
);
}
);
width = 520;
}
);
note = guillemotright;
unicode = 187;
},
{
glyphname = parenleft;
kernRight = parenleft;
lastChange = "2024-04-03 18:06:54 +0000";
layers = (
{
hints = (
{
horizontal = 1;
place = (-120, 920);
place = (-120, 920);
type = Stem;
},
{
place = (80, 480);
place = (80, 480);
type = Stem;
}
);
layerId = m01;
shapes = (
{
closed = 1;
nodes = (
(200,151,l),
(200,80,l),
(280,-80,l),
(240,-120,l),
(120,40,l),
(105,85,l)
);
},
{
closed = 1;
nodes = (
(195,580,l),
(240,640,l),
(400,760,l),
(520,800,l),
(560,760,l),
(440,720,l),
(320,600,l),
(274,509,l)
);
},
{
closed = 1;
nodes = (
(105,85,l),
(80,160,l),
(80,320,l),
(120,480,l),
(195,580,l),
(274,509,l),
(240,440,l),
(200,280,l),
(200,151,l)
);
}
);
width = 480;
},
{
hints = (
{
horizontal = 1;
place = (-120, 920);
place = (-120, 920);
type = Stem;
},
{
place = (80, 480);
place = (80, 480);
type = Stem;
}
);
layerId = "45DABB71-BDAF-41D9-9CB5-36007FEF02C0";
shapes = (
{
closed = 1;
nodes = (
(1148,-1387,l),
(1171,-1454,l),
(1300,-1579,l),
(1275,-1630,l),
(1109,-1519,l),
(1080,-1481,l)
);
},
{
closed = 1;
nodes = (
(-1262,2203,l),
(-1249,2277,l),
(-1160,2456,l),
(-1071,2546,l),
(-1017,2529,l),
(-1106,2439,l),
(-1159,2278,l),
(-1159,2176,l)
);
},
{
closed = 1;
nodes = (
(-1363,-1642,l),
(-1412,-1580,l),
(-1466,-1429,l),
(-1483,-1265,l),
(-1446,-1146,l),
(-1348,-1186,l),
(-1356,-1262,l),
(-1340,-1426,l),
(-1296,-1547,l)
);
}
);
width = 480;
}
);
note = parenleft;
unicode = 40;
},
{
glyphname = parenright;
kernLeft = parenright;
lastChange = "2024-04-03 18:06:44 +0000";
layers = (
{
hints = (
{
horizontal = 1;
place = (-120, 920);
place = (-120, 920);
type = Stem;
},
{
place = (-80, 480);
place = (-80, 480);
type = Stem;
}
);
layerId = m01;
shapes = (
{
closed = 1;
nodes = (
(272,82,l),
(240,40,l),
(80,-80,l),
(-40,-120,l),
(-80,-80,l),
(40,-40,l),
(160,80,l),
(197,153,l)
);
},
{
closed = 1;
nodes = (
(280,496,l),
(280,600,l),
(200,760,l),
(240,800,l),
(360,640,l),
(384,569,l)
);
},
{
closed = 1;
nodes = (
(197,153,l),
(240,240,l),
(280,400,l),
(280,496,l),
(384,569,l),
(400,520,l),
(400,360,l),
(360,200,l),
(272,82,l)
);
}
);
width = 480;
},
{
hints = (
{
horizontal = 1;
place = (-120, 920);
place = (-120, 920);
type = Stem;
},
{
place = (-80, 480);
place = (-80, 480);
type = Stem;
}
);
layerId = "45DABB71-BDAF-41D9-9CB5-36007FEF02C0";
shapes = (
{
closed = 1;
nodes = (
(793,-2061,l),
(754,-2097,l),
(576,-2189,l),
(451,-2208,l),
(418,-2162,l),
(543,-2143,l),
(682,-2044,l),
(730,-1978,l)
);
},
{
closed = 1;
nodes = (
(552,2189,l),
(516,2287,l),
(386,2409,l),
(409,2460,l),
(578,2352,l),
(625,2294,l)
);
},
{
closed = 1;
nodes = (
(2028,-1414,l),
(2109,-1361,l),
(2225,-1243,l),
(2273,-1161,l),
(2400,-1150,l),
(2389,-1201,l),
(2308,-1339,l),
(2192,-1456,l),
(2056,-1513,l)
);
}
);
width = 480;
}
);
note = parenright;
unicode = 41;
},
{
glyphname = braceleft;
lastChange = "2024-04-03 18:06:28 +0000";
layers = (
{
hints = (
{
horizontal = 1;
place = (-120, 920);
place = (-120, 920);
type = Stem;
},
{
place = (0, 560);
place = (0, 560);
type = Stem;
}
);
layerId = m01;
shapes = (
{
closed = 1;
nodes = (
(200,174,l),
(200,80,l),
(280,-80,l),
(240,-120,l),
(120,40,l),
(94,117,l)
);
},
{
closed = 1;
nodes = (
(252,516,l),
(240,480,l),
(200,440,l),
(120,400,l),
(200,320,l),
(200,174,l),
(94,117,l),
(80,160,l),
(80,320,l),
(0,400,l),
(80,440,l),
(120,480,l),
(172,585,l)
);
},
{
closed = 1;
nodes = (
(172,585,l),
(200,640,l),
(360,760,l),
(520,800,l),
(560,760,l),
(400,720,l),
(280,600,l),
(252,516,l)
);
}
);
width = 480;
},
{
hints = (
{
horizontal = 1;
place = (-120, 920);
place = (-120, 920);
type = Stem;
},
{
place = (0, 560);
place = (0, 560);
type = Stem;
}
);
layerId = "45DABB71-BDAF-41D9-9CB5-36007FEF02C0";
shapes = (
{
closed = 1;
nodes = (
(1570,-1844,l),
(1592,-1936,l),
(1706,-2073,l),
(1676,-2121,l),
(1523,-1993,l),
(1480,-1924,l)
);
},
{
closed = 1;
nodes = (
(-1384,-1301,l),
(-1382,-1339,l),
(-1406,-1391,l),
(-1466,-1457,l),
(-1363,-1503,l),
(-1311,-1640,l),
(-1390,-1730,l),
(-1418,-1695,l),
(-1475,-1546,l),
(-1578,-1499,l),
(-1518,-1433,l),
(-1495,-1382,l),
(-1483,-1265,l)
);
},
{
closed = 1;
nodes = (
(-1012,2554,l),
(-962,2591,l),
(-766,2627,l),
(-605,2591,l),
(-587,2537,l),
(-748,2573,l),
(-909,2519,l),
(-971,2457,l)
);
}
);
width = 480;
}
);
note = braceleft;
unicode = 123;
},
{
glyphname = braceright;
lastChange = "2024-04-03 18:06:12 +0000";
layers = (
{
hints = (
{
horizontal = 1;
place = (-120, 920);
place = (-120, 920);
type = Stem;
},
{
place = (-80, 560);
place = (-80, 560);
type = Stem;
}
);
layerId = m01;
shapes = (
{
closed = 1;
nodes = (
(304,87,l),
(280,40,l),
(120,-80,l),
(-40,-120,l),
(-80,-80,l),
(80,-40,l),
(200,80,l),
(215,126,l)
);
},
{
closed = 1;
nodes = (
(280,527,l),
(280,600,l),
(200,760,l),
(240,800,l),
(360,640,l),
(380,580,l)
);
},
{
closed = 1;
nodes = (
(215,126,l),
(240,200,l),
(280,240,l),
(360,280,l),
(280,360,l),
(280,527,l),
(380,580,l),
(400,520,l),
(400,360,l),
(480,280,l),
(400,240,l),
(360,200,l),
(304,87,l)
);
}
);
width = 480;
},
{
hints = (
{
horizontal = 1;
place = (-120, 920);
place = (-120, 920);
type = Stem;
},
{
place = (-80, 560);
place = (-80, 560);
type = Stem;
}
);
layerId = "45DABB71-BDAF-41D9-9CB5-36007FEF02C0";
shapes = (
{
closed = 1;
nodes = (
(-829,-1785,l),
(-871,-1817,l),
(-1067,-1857,l),
(-1229,-1824,l),
(-1248,-1771,l),
(-1086,-1803,l),
(-926,-1746,l),
(-893,-1711,l)
);
},
{
closed = 1;
nodes = (
(650,1971,l),
(635,2042,l),
(525,2183,l),
(556,2230,l),
(706,2097,l),
(737,2042,l)
);
},
{
closed = 1;
nodes = (
(1588,-1137,l),
(1655,-1098,l),
(1712,-1094,l),
(1799,-1116,l),
(1791,-1003,l),
(1900,-877,l),
(2010,-903,l),
(1986,-961,l),
(1881,-1082,l),
(1889,-1195,l),
(1802,-1172,l),
(1746,-1176,l),
(1630,-1225,l)
);
}
);
width = 480;
}
);
note = braceright;
unicode = 125;
},
{
glyphname = bracketleft;
kernRight = parenleft;
lastChange = "2024-04-03 18:06:01 +0000";
layers = (
{
hints = (
{
horizontal = 1;
place = (-160, 960);
place = (-160, 960);
type = Stem;
},
{
place = (-80, 560);
place = (-80, 560);
type = Stem;
}
);
layerId = m01;
shapes = (
{
closed = 1;
nodes = (
(92,156,l),
(40,0,l),
(40,-80,l),
(160,-120,l),
(160,-160,l),
(-80,-160,l),
(1,82,l)
);
},
{
closed = 1;
nodes = (
(183,630,l),
(240,800,l),
(480,800,l),
(480,760,l),
(280,720,l),
(234,582,l)
);
},
{
closed = 1;
nodes = (
(1,82,l),
(183,630,l),
(234,582,l),
(92,156,l)
);
}
);
width = 360;
},
{
hints = (
{
horizontal = 1;
place = (-160, 960);
place = (-160, 960);
type = Stem;
},
{
place = (-80, 560);
place = (-80, 560);
type = Stem;
}
);
layerId = "45DABB71-BDAF-41D9-9CB5-36007FEF02C0";
shapes = (
{
closed = 1;
nodes = (
(1225,-1441,l),
(1228,-1606,l),
(1255,-1681,l),
(1381,-1679,l),
(1394,-1717,l),
(1168,-1797,l),
(1164,-1542,l)
);
},
{
closed = 1;
nodes = (
(-632,2518,l),
(-498,2638,l),
(-290,2519,l),
(-309,2485,l),
(-503,2548,l),
(-611,2451,l)
);
},
{
closed = 1;
nodes = (
(-1937,1442,l),
(-1649,1943,l),
(-1609,1886,l),
(-1833,1497,l)
);
}
);
width = 360;
}
);
note = bracketleft;
unicode = 91;
},
{
glyphname = bracketright;
kernLeft = parenright;
lastChange = "2024-04-03 18:05:49 +0000";
layers = (
{
hints = (
{
horizontal = 1;
place = (-160, 960);
place = (-160, 960);
type = Stem;
},
{
place = (-120, 560);
place = (-120, 560);
type = Stem;
}
);
layerId = m01;
shapes = (
{
closed = 1;
nodes = (
(226,158,l),
(120,-160,l),
(-120,-160,l),
(-120,-120,l),
(80,-80,l),
(209,308,l)
);
},
{
closed = 1;
nodes = (
(320,691,l),
(320,720,l),
(200,760,l),
(200,800,l),
(440,800,l),
(410,710,l)
);
},
{
closed = 1;
nodes = (
(209,308,l),
(320,640,l),
(320,691,l),
(410,710,l),
(226,158,l)
);
}
);
width = 360;
},
{
hints = (
{
horizontal = 1;
place = (-160, 960);
place = (-160, 960);
type = Stem;
},
{
place = (-120, 560);
place = (-120, 560);
type = Stem;
}
);
layerId = "45DABB71-BDAF-41D9-9CB5-36007FEF02C0";
shapes = (
{
closed = 1;
nodes = (
(-400,-1812,l),
(-293,-2130,l),
(-484,-2275,l),
(-508,-2243,l),
(-373,-2090,l),
(-504,-1703,l)
);
},
{
closed = 1;
nodes = (
(798,2127,l),
(792,2155,l),
(666,2167,l),
(657,2206,l),
(891,2260,l),
(882,2166,l)
);
},
{
closed = 1;
nodes = (
(1977,-800,l),
(2236,-565,l),
(2261,-520,l),
(2349,-548,l),
(1918,-939,l)
);
}
);
width = 360;
}
);
note = bracketright;
unicode = 93;
},
{
glyphname = underscore;
lastChange = "2024-04-03 18:05:32 +0000";
layers = (
{
hints = (
{
horizontal = 1;
place = (-120, 40);
place = (-120, 40);
type = Stem;
},
{
place = (80, 640);
place = (80, 640);
type = Stem;
}
);
layerId = m01;
shapes = (
{
closed = 1;
nodes = (
(556,-120,l),
(257,-120,l),
(283,-80,l),
(531,-80,l)
);
},
{
closed = 1;
nodes = (
(257,-120,l),
(80,-120,l),
(80,-80,l),
(283,-80,l)
);
},
{
closed = 1;
nodes = (
(531,-80,l),
(720,-80,l),
(720,-120,l),
(556,-120,l)
);
}
);
width = 800;
},
{
hints = (
{
horizontal = 1;
place = (-120, 40);
place = (-120, 40);
type = Stem;
},
{
place = (80, 640);
place = (80, 640);
type = Stem;
}
);
layerId = "45DABB71-BDAF-41D9-9CB5-36007FEF02C0";
shapes = (
{
closed = 1;
nodes = (
(642,-2129,l),
(387,-2285,l),
(388,-2237,l),
(599,-2108,l)
);
},
{
closed = 1;
nodes = (
(-1006,-1514,l),
(-1153,-1612,l),
(-1175,-1579,l),
(-1006,-1467,l)
);
},
{
closed = 1;
nodes = (
(2245,1558,l),
(2431,1525,l),
(2424,1486,l),
(2262,1514,l)
);
}
);
width = 800;
}
);
note = underscore;
unicode = 95;
},
{
glyphname = endash;
kernLeft = hyphen;
kernRight = hyphen;
lastChange = "2024-04-03 18:05:23 +0000";
layers = (
{
hints = (
{
horizontal = 1;
place = (280, 40);
place = (280, 40);
type = Stem;
},
{
place = (80, 320);
place = (80, 320);
type = Stem;
}
);
layerId = m01;
shapes = (
{
closed = 1;
nodes = (
(250,280,l),
(80,280,l),
(80,320,l),
(224,320,l)
);
},
{
closed = 1;
nodes = (
(224,320,l),
(400,320,l),
(400,280,l),
(250,280,l)
);
}
);
width = 480;
},
{
hints = (
{
horizontal = 1;
place = (280, 40);
place = (280, 40);
type = Stem;
},
{
place = (80, 320);
place = (80, 320);
type = Stem;
}
);
layerId = "45DABB71-BDAF-41D9-9CB5-36007FEF02C0";
shapes = (
{
closed = 1;
nodes = (
(-978,-1339,l),
(-1134,-1406,l),
(-1150,-1369,l),
(-1017,-1312,l)
);
},
{
closed = 1;
nodes = (
(2137,1353,l),
(2308,1312,l),
(2299,1273,l),
(2153,1308,l)
);
}
);
width = 480;
}
);
note = endash;
unicode = 8211;
},
{
glyphname = emdash;
kernLeft = hyphen;
kernRight = hyphen;
lastChange = "2024-04-03 18:05:16 +0000";
layers = (
{
hints = (
{
horizontal = 1;
place = (280, 40);
place = (280, 40);
type = Stem;
},
{
place = (80, 640);
place = (80, 640);
type = Stem;
}
);
layerId = m01;
shapes = (
{
closed = 1;
nodes = (
(514,280,l),
(236,280,l),
(264,320,l),
(479,320,l)
);
},
{
closed = 1;
nodes = (
(236,280,l),
(80,280,l),
(80,320,l),
(264,320,l)
);
},
{
closed = 1;
nodes = (
(479,320,l),
(720,320,l),
(720,280,l),
(514,280,l)
);
}
);
width = 800;
},
{
hints = (
{
horizontal = 1;
place = (280, 40);
place = (280, 40);
type = Stem;
},
{
place = (80, 640);
place = (80, 640);
type = Stem;
}
);
layerId = "45DABB71-BDAF-41D9-9CB5-36007FEF02C0";
shapes = (
{
closed = 1;
nodes = (
(602,-1944,l),
(340,-2039,l),
(353,-1991,l),
(556,-1919,l)
);
},
{
closed = 1;
nodes = (
(-1061,1341,l),
(-1199,1415,l),
(-1180,1450,l),
(-1018,1363,l)
);
},
{
closed = 1;
nodes = (
(3207,1598,l),
(3402,1740,l),
(3425,1708,l),
(3259,1586,l)
);
}
);
width = 800;
}
);
note = emdash;
unicode = 8212;
},
{
glyphname = bullet;
kernLeft = bullet;
kernRight = bullet;
lastChange = "2024-04-03 18:05:08 +0000";
layers = (
{
hints = (
{
horizontal = 1;
place = (160, 280);
place = (160, 280);
type = Stem;
},
{
place = (80, 280);
place = (80, 280);
type = Stem;
}
);
layerId = m01;
shapes = (
{
closed = 1;
nodes = (
(301,192,l),
(280,160,l),
(200,160,l),
(80,240,l),
(80,320,l),
(94,341,l)
);
},
{
closed = 1;
nodes = (
(288,408,l),
(360,360,l),
(360,280,l),
(333,240,l)
);
},
{
closed = 1;
nodes = (
(94,341,l),
(160,440,l),
(240,440,l),
(288,408,l),
(333,240,l),
(301,192,l)
);
}
);
width = 440;
},
{
hints = (
{
horizontal = 1;
place = (160, 280);
place = (160, 280);
type = Stem;
},
{
place = (80, 280);
place = (80, 280);
type = Stem;
}
);
layerId = "45DABB71-BDAF-41D9-9CB5-36007FEF02C0";
shapes = (
{
closed = 1;
nodes = (
(-922,-1874,l),
(-948,-1902,l),
(-1027,-1889,l),
(-1132,-1791,l),
(-1119,-1712,l),
(-1102,-1693,l)
);
},
{
closed = 1;
nodes = (
(1864,2422,l),
(1948,2402,l),
(1976,2328,l),
(1965,2281,l)
);
},
{
closed = 1;
nodes = (
(-845,2304,l),
(-813,2419,l),
(-737,2444,l),
(-681,2428,l),
(-586,2283,l),
(-602,2227,l)
);
}
);
width = 440;
}
);
note = bullet;
unicode = 8226;
},
{
glyphname = periodcentered;
kernRight = periodcentered;
lastChange = "2024-04-03 18:04:56 +0000";
layers = (
{
hints = (
{
horizontal = 1;
place = (200, 160);
place = (200, 160);
type = Stem;
},
{
place = (0, 160);
place = (0, 160);
type = Stem;
}
);
layerId = m01;
shapes = (
{
closed = 1;
nodes = (
(142,245,l),
(120,200,l),
(80,200,l),
(0,240,l),
(0,280,l),
(15,310,l)
);
},
{
closed = 1;
nodes = (
(15,310,l),
(40,360,l),
(80,360,l),
(160,320,l),
(160,280,l),
(142,245,l)
);
}
);
width = 200;
},
{
hints = (
{
horizontal = 1;
place = (200, 160);
place = (200, 160);
type = Stem;
},
{
place = (0, 160);
place = (0, 160);
type = Stem;
}
);
layerId = "45DABB71-BDAF-41D9-9CB5-36007FEF02C0";
shapes = (
{
closed = 1;
nodes = (
(-350,-1829,l),
(-356,-1879,l),
(-393,-1892,l),
(-482,-1881,l),
(-496,-1844,l),
(-492,-1810,l)
);
},
{
closed = 1;
nodes = (
(1246,2968,l),
(1257,3023,l),
(1296,3033,l),
(1384,3014,l),
(1394,2976,l),
(1385,2937,l)
);
}
);
width = 200;
}
);
note = periodcentered;
unicode = 183;
},
{
glyphname = asterisk;
kernRight = asterisk;
lastChange = "2024-04-03 18:04:47 +0000";
layers = (
{
hints = (
{
horizontal = 1;
place = (560, -20);
target = down;
type = TopGhost;
},
{
horizontal = 1;
place = (600, -20);
target = down;
type = TopGhost;
},
{
place = (80, 120);
place = (80, 120);
type = Stem;
}
);
layerId = m01;
shapes = (
{
closed = 1;
nodes = (
(263,768,l),
(360,800,l),
(400,760,l),
(400,720,l),
(360,680,l),
(240,720,l),
(240,600,l),
(200,560,l),
(160,560,l),
(120,600,l),
(183,695,l)
);
},
{
closed = 1;
nodes = (
(135,698,l),
(80,680,l),
(40,720,l),
(40,760,l),
(80,800,l),
(149,777,l)
);
},
{
closed = 1;
nodes = (
(183,695,l),
(200,720,l),
(135,698,l),
(149,777,l),
(200,760,l),
(200,880,l),
(240,920,l),
(280,920,l),
(320,880,l),
(240,760,l),
(263,768,l)
);
}
);
width = 440;
},
{
hints = (
{
horizontal = 1;
place = (560, -20);
target = down;
type = TopGhost;
},
{
horizontal = 1;
place = (600, -20);
target = down;
type = TopGhost;
},
{
place = (80, 120);
place = (80, 120);
type = Stem;
}
);
layerId = "45DABB71-BDAF-41D9-9CB5-36007FEF02C0";
shapes = (
{
closed = 1;
nodes = (
(1578,-1462,l),
(1679,-1477,l),
(1697,-1531,l),
(1678,-1567,l),
(1625,-1584,l),
(1536,-1494,l),
(1481,-1601,l),
(1428,-1618,l),
(1392,-1600,l),
(1374,-1547,l),
(1474,-1491,l)
);
},
{
closed = 1;
nodes = (
(-966,1539,l),
(-1024,1543,l),
(-1046,1595,l),
(-1031,1633,l),
(-979,1655,l),
(-924,1607,l)
);
},
{
closed = 1;
nodes = (
(1161,1564,l),
(1184,1583,l),
(1116,1581,l),
(1152,1652,l),
(1196,1621,l),
(1230,1736,l),
(1280,1763,l),
(1319,1752,l),
(1345,1702,l),
(1234,1610,l),
(1259,1611,l)
);
}
);
width = 440;
}
);
note = asterisk;
unicode = 42;
},
{
glyphname = at;
lastChange = "2024-04-03 18:04:09 +0000";
layers = (
{
hints = (
{
horizontal = 1;
place = (-160, 840);
place = (-160, 840);
type = Stem;
},
{
place = (0, 880);
place = (0, 880);
type = Stem;
}
);
layerId = m01;
shapes = (
{
closed = 1;
nodes = (
(467,67,l),
(400,0,l),
(320,0,l),
(240,40,l),
(200,200,l),
(280,400,l),
(397,470,l),
(451,394,l),
(400,360,l),
(320,200,l),
(360,80,l),
(400,80,l),
(458,138,l)
);
},
{
closed = 1;
nodes = (
(714,63,l),
(680,40,l),
(560,0,l),
(520,40,l),
(520,120,l),
(467,67,l),
(458,138,l),
(520,200,l),
(600,320,l),
(600,360,l),
(560,440,l),
(520,440,l),
(451,394,l),
(397,470,l),
(480,520,l),
(600,480,l),
(640,400,l),
(680,480,l),
(720,440,l),
(600,80,l),
(640,80,l),
(679,119,l)
);
},
{
closed = 1;
nodes = (
(611,660,l),
(760,600,l),
(840,520,l),
(880,360,l),
(840,200,l),
(800,120,l),
(714,63,l),
(679,119,l),
(720,160,l),
(760,240,l),
(760,360,l),
(720,520,l),
(640,600,l),
(586,618,l)
);
},
{
closed = 1;
nodes = (
(252,-26,l),
(360,-80,l),
(560,-120,l),
(520,-160,l),
(280,-120,l),
(210,-85,l)
);
},
{
closed = 1;
nodes = (
(48,344,l),
(80,440,l),
(240,600,l),
(480,680,l),
(560,680,l),
(611,660,l),
(586,618,l),
(520,640,l),
(320,560,l),
(200,440,l),
(161,343,l)
);
},
{
closed = 1;
nodes = (
(210,-85,l),
(120,-40,l),
(0,200,l),
(48,344,l),
(161,343,l),
(120,240,l),
(200,0,l),
(252,-26,l)
);
}
);
width = 920;
},
{
hints = (
{
horizontal = 1;
place = (-160, 840);
place = (-160, 840);
type = Stem;
},
{
place = (0, 880);
place = (0, 880);
type = Stem;
}
);
layerId = "45DABB71-BDAF-41D9-9CB5-36007FEF02C0";
shapes = (
{
closed = 1;
nodes = (
(-2183,1882,l),
(-2268,1840,l),
(-2344,1866,l),
(-2407,1929,l),
(-2394,2093,l),
(-2254,2257,l),
(-2121,2286,l),
(-2094,2197,l),
(-2153,2181,l),
(-2280,2055,l),
(-2281,1929,l),
(-2243,1916,l),
(-2169,1952,l)
);
},
{
closed = 1;
nodes = (
(2841,-2327,l),
(2801,-2335,l),
(2674,-2328,l),
(2652,-2276,l),
(2682,-2202,l),
(2613,-2231,l),
(2631,-2162,l),
(2712,-2128,l),
(2830,-2046,l),
(2845,-2009,l),
(2838,-1919,l),
(2801,-1905,l),
(2719,-1922,l),
(2697,-1831,l),
(2793,-1816,l),
(2890,-1897,l),
(2897,-1986,l),
(2964,-1927,l),
(2986,-1979,l),
(2741,-2269,l),
(2778,-2283,l),
(2829,-2262,l)
);
},
{
closed = 1;
nodes = (
(1965,2398,l),
(2121,2436,l),
(2232,2419,l),
(2359,2314,l),
(2422,2162,l),
(2438,2073,l),
(2402,1976,l),
(2340,2000,l),
(2349,2058,l),
(2334,2145,l),
(2263,2242,l),
(2136,2348,l),
(2024,2365,l),
(1969,2348,l)
);
},
{
closed = 1;
nodes = (
(-176,-1977,l),
(-98,-2069,l),
(71,-2183,l),
(19,-2205,l),
(-187,-2075,l),
(-238,-2015,l)
);
},
{
closed = 1;
nodes = (
(-1066,2150,l),
(-1051,2250,l),
(-922,2435,l),
(-700,2556,l),
(-621,2570,l),
(-567,2559,l),
(-584,2513,l),
(-653,2524,l),
(-836,2410,l),
(-933,2271,l),
(-955,2168,l)
);
},
{
closed = 1;
nodes = (
(-1494,-2864,l),
(-1584,-2910,l),
(-1847,-2864,l),
(-1936,-2741,l),
(-1868,-2651,l),
(-1809,-2744,l),
(-1569,-2822,l),
(-1517,-2796,l)
);
}
);
width = 920;
}
);
note = at;
unicode = 64;
},
{
glyphname = numbersign;
lastChange = "2024-04-03 18:04:34 +0000";
layers = (
{
hints = (
{
horizontal = 1;
place = (240, 80);
place = (240, 80);
type = Stem;
},
{
horizontal = 1;
place = (480, 80);
place = (480, 80);
type = Stem;
},
{
place = (40, 720);
place = (40, 720);
type = Stem;
}
);
layerId = m01;
shapes = (
{
closed = 1;
nodes = (
(485,560,l),
(440,560,l),
(560,720,l),
(480,720,l),
(360,560,l),
(240,560,l),
(200,480,l),
(320,480,l),
(242,376,l),
(330,387,l),
(400,480,l),
(475,480,l)
);
},
{
closed = 1;
nodes = (
(214,339,l),
(200,320,l),
(120,320,l),
(80,240,l),
(160,240,l),
(40,80,l),
(120,80,l),
(240,240,l),
(270,240,l)
);
},
{
closed = 1;
nodes = (
(462,403,l),
(400,320,l),
(280,320,l),
(330,387,l),
(242,376,l),
(214,339,l),
(270,240,l),
(360,240,l),
(240,80,l),
(320,80,l),
(440,240,l),
(560,240,l),
(600,320,l),
(480,320,l),
(550,413,l)
);
},
{
closed = 1;
nodes = (
(475,480,l),
(520,480,l),
(462,403,l),
(550,413,l),
(600,480,l),
(680,480,l),
(720,560,l),
(640,560,l),
(760,720,l),
(680,720,l),
(560,560,l),
(485,560,l)
);
}
);
width = 680;
},
{
hints = (
{
horizontal = 1;
place = (240, 80);
place = (240, 80);
type = Stem;
},
{
horizontal = 1;
place = (480, 80);
place = (480, 80);
type = Stem;
},
{
place = (40, 720);
place = (40, 720);
type = Stem;
}
);
layerId = "45DABB71-BDAF-41D9-9CB5-36007FEF02C0";
shapes = (
{
closed = 1;
nodes = (
(-862,1930,l),
(-906,1919,l),
(-825,2102,l),
(-903,2084,l),
(-984,1901,l),
(-1100,1874,l),
(-1121,1787,l),
(-1004,1814,l),
(-1057,1695,l),
(-973,1726,l),
(-926,1832,l),
(-853,1849,l)
);
},
{
closed = 1;
nodes = (
(-931,-1094,l),
(-949,-1110,l),
(-1027,-1092,l),
(-1083,-1162,l),
(-1005,-1179,l),
(-1157,-1309,l),
(-1079,-1327,l),
(-927,-1196,l),
(-898,-1203,l)
);
},
{
closed = 1;
nodes = (
(1253,-1220,l),
(1165,-1275,l),
(1053,-1232,l),
(1124,-1188,l),
(1038,-1166,l),
(998,-1191,l),
(1015,-1303,l),
(1099,-1335,l),
(930,-1442,l),
(1004,-1471,l),
(1174,-1364,l),
(1286,-1407,l),
(1352,-1347,l),
(1240,-1304,l),
(1338,-1242,l)
);
},
{
closed = 1;
nodes = (
(2034,1523,l),
(2077,1536,l),
(2045,1445,l),
(2125,1482,l),
(2153,1561,l),
(2229,1585,l),
(2243,1673,l),
(2167,1649,l),
(2232,1838,l),
(2156,1814,l),
(2090,1625,l),
(2019,1602,l)
);
}
);
width = 680;
}
);
note = numbersign;
unicode = 35;
},
{
glyphname = backslash;
kernRight = backslash;
lastChange = "2024-04-03 18:04:18 +0000";
layers = (
{
hints = (
{
horizontal = 1;
place = (-80, 840);
place = (-80, 840);
type = Stem;
},
{
place = (40, 80);
place = (40, 80);
type = Stem;
}
);
layerId = m01;
shapes = (
{
closed = 1;
nodes = (
(120,196,l),
(120,-80,l),
(40,-80,l),
(40,136,l)
);
},
{
closed = 1;
nodes = (
(120,582,l),
(120,196,l),
(40,136,l),
(40,547,l)
);
},
{
closed = 1;
nodes = (
(40,547,l),
(40,760,l),
(120,760,l),
(120,582,l)
);
}
);
width = 160;
},
{
hints = (
{
horizontal = 1;
place = (-80, 840);
place = (-80, 840);
type = Stem;
},
{
place = (40, 80);
place = (40, 80);
type = Stem;
}
);
layerId = "45DABB71-BDAF-41D9-9CB5-36007FEF02C0";
shapes = (
{
closed = 1;
nodes = (
(1939,-1610,l),
(1978,-1884,l),
(1898,-1895,l),
(1868,-1681,l)
);
},
{
closed = 1;
nodes = (
(2207,1464,l),
(2367,1113,l),
(2319,1025,l),
(2149,1399,l)
);
},
{
closed = 1;
nodes = (
(-1348,2271,l),
(-1381,2481,l),
(-1302,2493,l),
(-1275,2318,l)
);
}
);
width = 160;
}
);
note = backslash;
unicode = 92;
},
{
glyphname = slash;
kernLeft = slash;
kernRight = slash;
lastChange = "2024-04-03 18:03:45 +0000";
layers = (
{
hints = (
{
horizontal = 1;
place = (-80, 840);
place = (-80, 840);
type = Stem;
},
{
place = (-120, 560);
place = (-120, 560);
type = Stem;
}
);
layerId = m01;
shapes = (
{
closed = 1;
nodes = (
(121,201,l),
(-40,-80,l),
(-120,-80,l),
(94,294,l)
);
},
{
closed = 1;
nodes = (
(354,609,l),
(121,201,l),
(94,294,l),
(258,581,l)
);
},
{
closed = 1;
nodes = (
(258,581,l),
(360,760,l),
(440,760,l),
(354,609,l)
);
}
);
width = 320;
},
{
hints = (
{
horizontal = 1;
place = (-80, 840);
place = (-80, 840);
type = Stem;
},
{
place = (-120, 560);
place = (-120, 560);
type = Stem;
}
);
layerId = "45DABB71-BDAF-41D9-9CB5-36007FEF02C0";
shapes = (
{
closed = 1;
nodes = (
(-768,-1941,l),
(-796,-2264,l),
(-869,-2297,l),
(-832,-1868,l)
);
},
{
closed = 1;
nodes = (
(1797,-607,l),
(1438,-910,l),
(1445,-814,l),
(1698,-601,l)
);
},
{
closed = 1;
nodes = (
(-265,1676,l),
(-241,1881,l),
(-168,1912,l),
(-188,1740,l)
);
}
);
width = 320;
}
);
note = slash;
unicode = 47;
},
{
glyphname = bar;
lastChange = "2024-04-03 17:56:30 +0000";
layers = (
{
hints = (
{
horizontal = 1;
place = (-80, 840);
place = (-80, 840);
type = Stem;
},
{
place = (-80, 320);
place = (-80, 320);
type = Stem;
}
);
layerId = m01;
shapes = (
{
closed = 1;
nodes = (
(116,389,l),
(240,760,l),
(200,760,l),
(96,448,l)
);
},
{
closed = 1;
nodes = (
(-41,36,l),
(-80,-80,l),
(-40,-80,l),
(5,54,l)
);
},
{
closed = 1;
nodes = (
(96,448,l),
(-41,36,l),
(5,54,l),
(116,389,l)
);
}
);
width = 160;
},
{
hints = (
{
horizontal = 1;
place = (-80, 840);
place = (-80, 840);
type = Stem;
},
{
place = (-80, 320);
place = (-80, 320);
type = Stem;
}
);
layerId = "45DABB71-BDAF-41D9-9CB5-36007FEF02C0";
shapes = (
{
closed = 1;
nodes = (
(783,2335,l),
(1000,2661,l),
(961,2672,l),
(779,2398,l)
);
},
{
closed = 1;
nodes = (
(-2338,-3541,l),
(-2358,-3662,l),
(-2319,-3655,l),
(-2296,-3516,l)
);
},
{
closed = 1;
nodes = (
(1926,-840,l),
(1662,-1185,l),
(1712,-1183,l),
(1926,-902,l)
);
}
);
width = 160;
}
);
note = bar;
unicode = 124;
},
{
glyphname = asciicircum;
lastChange = "2024-04-03 17:50:17 +0000";
layers = (
{
hints = (
{
horizontal = 1;
place = (520, 160);
place = (520, 160);
type = Stem;
},
{
place = (160, 320);
place = (160, 320);
type = Stem;
}
);
layerId = m01;
shapes = (
{
closed = 1;
nodes = (
(422,680,l),
(480,680,l),
(480,520,l),
(430,520,l),
(430,610,l),
(387,593,l)
);
},
{
closed = 1;
nodes = (
(387,593,l),
(200,520,l),
(160,520,l),
(400,680,l),
(422,680,l)
);
}
);
width = 833;
},
{
hints = (
{
horizontal = 1;
place = (520, 160);
place = (520, 160);
type = Stem;
},
{
place = (160, 320);
place = (160, 320);
type = Stem;
}
);
layerId = "45DABB71-BDAF-41D9-9CB5-36007FEF02C0";
shapes = (
{
closed = 1;
nodes = (
(1843,2088,l),
(1901,2082,l),
(1884,1923,l),
(1834,1928,l),
(1844,2018,l),
(1799,2005,l)
);
},
{
closed = 1;
nodes = (
(-1253,837,l),
(-1360,667,l),
(-1392,644,l),
(-1294,915,l),
(-1276,928,l)
);
}
);
width = 833;
}
);
note = asciicircum;
unicode = 94;
},
{
glyphname = asciitilde;
lastChange = "2024-04-03 17:50:41 +0000";
layers = (
{
hints = (
{
horizontal = 1;
place = (280, 120);
place = (280, 120);
type = Stem;
},
{
place = (80, 440);
place = (80, 440);
type = Stem;
}
);
layerId = m01;
shapes = (
{
closed = 1;
nodes = (
(216,344,l),
(120,280,l),
(80,320,l),
(200,400,l),
(216,400,l)
);
},
{
closed = 1;
nodes = (
(382,335,l),
(480,400,l),
(520,360,l),
(400,280,l),
(361,280,l)
);
},
{
closed = 1;
nodes = (
(361,280,l),
(320,280,l),
(240,360,l),
(216,344,l),
(216,400,l),
(280,400,l),
(360,320,l),
(382,335,l)
);
}
);
width = 600;
},
{
hints = (
{
horizontal = 1;
place = (280, 120);
place = (280, 120);
type = Stem;
},
{
place = (80, 440);
place = (80, 440);
type = Stem;
}
);
layerId = "45DABB71-BDAF-41D9-9CB5-36007FEF02C0";
shapes = (
{
closed = 1;
nodes = (
(-633,1524,l),
(-695,1427,l),
(-748,1447,l),
(-670,1569,l),
(-655,1575,l)
);
},
{
closed = 1;
nodes = (
(1504,-874,l),
(1592,-796,l),
(1637,-830,l),
(1530,-926,l),
(1491,-932,l)
);
},
{
closed = 1;
nodes = (
(-128,-1428,l),
(-169,-1422,l),
(-236,-1331,l),
(-262,-1343,l),
(-253,-1288,l),
(-190,-1297,l),
(-123,-1389,l),
(-99,-1377,l)
);
}
);
width = 600;
}
);
note = asciitilde;
unicode = 126;
},
{
glyphname = dollar;
lastChange = "2024-04-03 17:49:48 +0000";
layers = (
{
hints = (
{
horizontal = 1;
place = (0, 21);
target = up;
type = BottomGhost;
},
{
horizontal = 1;
place = (560, -20);
target = down;
type = TopGhost;
},
{
horizontal = 1;
place = (760, 120);
place = (760, 120);
type = Stem;
},
{
place = (400, 120);
place = (400, 120);
type = Stem;
},
{
horizontal = 1;
place = (-80, 120);
place = (-80, 120);
type = Stem;
}
);
layerId = m01;
shapes = (
{
closed = 1;
nodes = (
(440,640,l),
(480,760,l),
(520,760,l),
(640,600,l),
(680,600,l),
(640,840,l),
(560,800,l),
(498,813,l),
(520,880,l),
(480,880,l),
(460,820,l),
(360,840,l),
(240,760,l),
(216,689,l),
(345,689,l),
(360,720,l),
(400,760,l),
(440,760,l),
(408,666,l)
);
},
{
closed = 1;
nodes = (
(400,0,l),
(480,40,l),
(520,200,l),
(480,360,l),
(438,443,l),
(283,394,l),
(304,352,l),
(232,137,l),
(264,111,l),
(329,307,l),
(400,200,l),
(400,120,l),
(360,80,l),
(324,62,l)
);
},
{
closed = 1;
nodes = (
(438,443,l),
(400,520,l),
(440,640,l),
(408,666,l),
(373,560,l),
(320,640,l),
(345,689,l),
(216,689,l),
(200,640,l),
(240,480,l),
(283,394,l)
);
},
{
closed = 1;
nodes = (
(324,62,l),
(280,40,l),
(240,40,l),
(264,111,l),
(232,137,l),
(200,40,l),
(160,40,l),
(40,240,l),
(0,240,l),
(40,-40,l),
(120,0,l),
(183,-13,l),
(160,-80,l),
(200,-80,l),
(220,-20,l),
(320,-40,l),
(400,0,l)
);
}
);
width = 600;
},
{
hints = (
{
horizontal = 1;
place = (0, 21);
target = up;
type = BottomGhost;
},
{
horizontal = 1;
place = (560, -20);
target = down;
type = TopGhost;
},
{
horizontal = 1;
place = (760, 120);
place = (760, 120);
type = Stem;
},
{
place = (400, 120);
place = (400, 120);
type = Stem;
},
{
horizontal = 1;
place = (-80, 120);
place = (-80, 120);
type = Stem;
}
);
layerId = "45DABB71-BDAF-41D9-9CB5-36007FEF02C0";
shapes = (
{
closed = 1;
nodes = (
(433,2458,l),
(427,2584,l),
(465,2598,l),
(634,2492,l),
(671,2506,l),
(548,2716,l),
(488,2650,l),
(425,2640,l),
(421,2710,l),
(384,2696,l),
(387,2633,l),
(286,2616,l),
(203,2498,l),
(206,2423,l),
(327,2469,l),
(330,2504,l),
(353,2555,l),
(390,2570,l),
(394,2471,l)
);
},
{
closed = 1;
nodes = (
(2843,-1324,l),
(2932,-1327,l),
(3044,-1206,l),
(3087,-1047,l),
(3090,-954,l),
(2930,-922,l),
(2929,-969,l),
(2762,-1123,l),
(2777,-1161,l),
(2929,-1020,l),
(2939,-1148,l),
(2901,-1218,l),
(2846,-1234,l),
(2806,-1233,l)
);
},
{
closed = 1;
nodes = (
(-1544,1495,l),
(-1541,1581,l),
(-1448,1667,l),
(-1463,1705,l),
(-1545,1629,l),
(-1553,1725,l),
(-1507,1756,l),
(-1620,1818,l),
(-1658,1782,l),
(-1700,1623,l),
(-1704,1527,l)
);
},
{
closed = 1;
nodes = (
(-1566,-1119,l),
(-1613,-1132,l),
(-1652,-1125,l),
(-1616,-1060,l),
(-1642,-1028,l),
(-1692,-1118,l),
(-1731,-1110,l),
(-1812,-892,l),
(-1851,-884,l),
(-1864,-1167,l),
(-1778,-1142,l),
(-1718,-1167,l),
(-1753,-1228,l),
(-1714,-1236,l),
(-1683,-1180,l),
(-1588,-1218,l),
(-1502,-1194,l)
);
}
);
width = 600;
}
);
note = dollar;
unicode = 36;
},
{
glyphname = zero;
lastChange = "2024-02-26 21:25:42 +0000";
layers = (
{
hints = (
{
horizontal = 1;
place = (0, 800);
place = (0, 800);
type = Stem;
},
{
place = (40, 600);
place = (40, 600);
type = Stem;
}
);
layerId = m01;
shapes = (
{
closed = 1;
nodes = (
(175,181,l),
(200,80,l),
(280,40,l),
(360,80,l),
(440,240,l),
(504,494,l),
(640,519,l),
(640,400,l),
(560,200,l),
(480,80,l),
(320,0,l),
(240,0,l),
(80,80,l),
(68,115,l)
);
},
{
closed = 1;
nodes = (
(504,494,l),
(520,560,l),
(480,720,l),
(400,760,l),
(320,720,l),
(293,665,l),
(245,743,l),
(360,800,l),
(440,800,l),
(600,720,l),
(640,600,l),
(640,519,l)
);
},
{
closed = 1;
nodes = (
(68,115,l),
(40,200,l),
(40,400,l),
(120,600,l),
(200,720,l),
(245,743,l),
(293,665,l),
(240,560,l),
(160,240,l),
(175,181,l)
);
}
);
width = 680;
},
{
hints = (
{
horizontal = 1;
place = (0, 800);
place = (0, 800);
type = Stem;
},
{
place = (40, 600);
place = (40, 600);
type = Stem;
}
);
layerId = "45DABB71-BDAF-41D9-9CB5-36007FEF02C0";
shapes = (
{
closed = 1;
nodes = (
(1670,-2115,l),
(1724,-2204,l),
(1813,-2217,l),
(1877,-2155,l),
(1904,-1978,l),
(1887,-1717,l),
(2009,-1651,l),
(2045,-1764,l),
(2030,-1979,l),
(1991,-2118,l),
(1863,-2243,l),
(1787,-2268,l),
(1610,-2241,l),
(1588,-2211,l)
);
},
{
closed = 1;
nodes = (
(1669,2860,l),
(1671,2928,l),
(1601,3077,l),
(1515,3101,l),
(1444,3046,l),
(1428,2987,l),
(1366,3054,l),
(1468,3132,l),
(1547,3148,l),
(1719,3100,l),
(1781,2990,l),
(1797,2911,l)
);
},
{
closed = 1;
nodes = (
(-4519,1807,l),
(-4476,1885,l),
(-4330,2022,l),
(-4129,2100,l),
(-3987,2123,l),
(-3939,2106,l),
(-3963,2018,l),
(-4076,1985,l),
(-4365,1825,l),
(-4398,1774,l)
);
}
);
width = 680;
}
);
note = zero;
unicode = 48;
},
{
glyphname = one;
kernRight = one;
lastChange = "2024-04-03 17:50:49 +0000";
layers = (
{
hints = (
{
horizontal = 1;
place = (560, -20);
target = down;
type = TopGhost;
},
{
place = (-40, 480);
place = (-40, 480);
type = Stem;
}
);
layerId = m01;
shapes = (
{
closed = 1;
nodes = (
(228,165,l),
(200,80,l),
(280,0,l),
(-40,0,l),
(80,80,l),
(116,188,l)
);
},
{
closed = 1;
nodes = (
(212,477,l),
(240,560,l),
(120,560,l),
(120,600,l),
(280,680,l),
(360,760,l),
(440,800,l),
(337,491,l)
);
},
{
closed = 1;
nodes = (
(116,188,l),
(212,477,l),
(337,491,l),
(228,165,l)
);
}
);
width = 480;
},
{
hints = (
{
horizontal = 1;
place = (560, -20);
target = down;
type = TopGhost;
},
{
place = (-40, 480);
place = (-40, 480);
type = Stem;
}
);
layerId = "45DABB71-BDAF-41D9-9CB5-36007FEF02C0";
shapes = (
{
closed = 1;
nodes = (
(-1022,-1570,l),
(-1071,-1645,l),
(-1015,-1743,l),
(-1324,-1659,l),
(-1187,-1614,l),
(-1124,-1519,l)
);
},
{
closed = 1;
nodes = (
(-344,1813,l),
(-338,1901,l),
(-454,1870,l),
(-465,1909,l),
(-330,2027,l),
(-273,2125,l),
(-206,2184,l),
(-227,1859,l)
);
},
{
closed = 1;
nodes = (
(2042,-891,l),
(2058,-587,l),
(2175,-540,l),
(2156,-884,l)
);
}
);
width = 480;
}
);
note = one;
unicode = 49;
},
{
glyphname = two;
kernLeft = two;
kernRight = two;
lastChange = "2024-02-26 21:25:30 +0000";
layers = (
{
hints = (
{
horizontal = 1;
place = (-40, 840);
place = (-40, 840);
type = Stem;
},
{
place = (-80, 680);
place = (-80, 680);
type = Stem;
}
);
layerId = m01;
shapes = (
{
closed = 1;
nodes = (
(264,732,l),
(240,720,l),
(200,640,l),
(200,480,l),
(160,480,l),
(80,600,l),
(120,720,l),
(239,780,l)
);
},
{
closed = 1;
nodes = (
(248,52,l),
(320,40,l),
(480,240,l),
(520,240,l),
(440,-40,l),
(320,0,l),
(211,0,l)
);
},
{
closed = 1;
nodes = (
(432,464,l),
(480,560,l),
(440,720,l),
(320,760,l),
(264,732,l),
(239,780,l),
(280,800,l),
(400,800,l),
(560,720,l),
(600,600,l),
(600,520,l),
(523,424,l)
);
},
{
closed = 1;
nodes = (
(211,0,l),
(-80,0,l),
(-80,40,l),
(280,280,l),
(400,400,l),
(432,464,l),
(523,424,l),
(440,320,l),
(280,200,l),
(80,80,l),
(248,52,l)
);
}
);
width = 640;
},
{
hints = (
{
horizontal = 1;
place = (-40, 840);
place = (-40, 840);
type = Stem;
},
{
place = (-80, 680);
place = (-80, 680);
type = Stem;
}
);
layerId = "45DABB71-BDAF-41D9-9CB5-36007FEF02C0";
shapes = (
{
closed = 1;
nodes = (
(-2786,3055,l),
(-2813,3059,l),
(-2891,3015,l),
(-2981,2883,l),
(-3014,2905,l),
(-3013,3049,l),
(-2912,3126,l),
(-2780,3109,l)
);
},
{
closed = 1;
nodes = (
(2877,-2044,l),
(2943,-2013,l),
(2964,-1758,l),
(2997,-1736,l),
(3088,-2012,l),
(2966,-2046,l),
(2875,-2107,l)
);
},
{
closed = 1;
nodes = (
(2700,2184,l),
(2772,2263,l),
(2776,2428,l),
(2671,2499,l),
(2610,2487,l),
(2598,2540,l),
(2643,2548,l),
(2759,2516,l),
(2892,2396,l),
(2898,2270,l),
(2877,2193,l),
(2777,2121,l)
);
},
{
closed = 1;
nodes = (
(-4415,-552,l),
(-4604,-332,l),
(-4574,-306,l),
(-4157,-422,l),
(-3988,-435,l),
(-3919,-418,l),
(-3890,-513,l),
(-4023,-518,l),
(-4218,-475,l),
(-4439,-401,l),
(-4351,-547,l)
);
}
);
width = 640;
}
);
note = two;
unicode = 50;
},
{
glyphname = three;
kernRight = three;
lastChange = "2024-04-03 17:49:31 +0000";
layers = (
{
hints = (
{
horizontal = 1;
place = (320, 80);
place = (320, 80);
type = Stem;
},
{
horizontal = 1;
place = (480, 80);
place = (480, 80);
type = Stem;
},
{
horizontal = 1;
place = (600, -20);
target = down;
type = TopGhost;
},
{
place = (0, 640);
place = (0, 640);
type = Stem;
},
{
place = (120, 320);
place = (120, 320);
type = Stem;
}
);
layerId = m01;
shapes = (
{
closed = 1;
nodes = (
(371,746,l),
(320,720,l),
(280,640,l),
(280,560,l),
(200,560,l),
(120,640,l),
(160,720,l),
(320,800,l),
(363,800,l)
);
},
{
closed = 1;
nodes = (
(373,46,l),
(280,0,l),
(200,0,l),
(40,80,l),
(0,200,l),
(80,320,l),
(120,320,l),
(120,160,l),
(160,80,l),
(240,40,l),
(320,80,l),
(354,114,l)
);
},
{
closed = 1;
nodes = (
(427,502,l),
(480,520,l),
(520,600,l),
(480,720,l),
(400,760,l),
(371,746,l),
(363,800,l),
(440,800,l),
(600,720,l),
(640,600,l),
(560,480,l),
(476,459,l)
);
},
{
closed = 1;
nodes = (
(354,114,l),
(440,200,l),
(440,320,l),
(360,400,l),
(200,400,l),
(240,480,l),
(360,480,l),
(427,502,l),
(476,459,l),
(400,440,l),
(520,400,l),
(560,320,l),
(560,200,l),
(440,80,l),
(373,46,l)
);
}
);
width = 680;
},
{
hints = (
{
horizontal = 1;
place = (320, 80);
place = (320, 80);
type = Stem;
},
{
horizontal = 1;
place = (480, 80);
place = (480, 80);
type = Stem;
},
{
horizontal = 1;
place = (600, -20);
target = down;
type = TopGhost;
},
{
place = (0, 640);
place = (0, 640);
type = Stem;
},
{
place = (120, 320);
place = (120, 320);
type = Stem;
}
);
layerId = "45DABB71-BDAF-41D9-9CB5-36007FEF02C0";
shapes = (
{
closed = 1;
nodes = (
(-255,2414,l),
(-312,2420,l),
(-389,2376,l),
(-434,2310,l),
(-500,2354,l),
(-522,2465,l),
(-445,2509,l),
(-267,2487,l),
(-231,2463,l)
);
},
{
closed = 1;
nodes = (
(-530,-1513,l),
(-607,-1583,l),
(-684,-1605,l),
(-860,-1571,l),
(-931,-1467,l),
(-887,-1330,l),
(-848,-1319,l),
(-805,-1473,l),
(-744,-1539,l),
(-657,-1555,l),
(-591,-1495,l),
(-567,-1453,l)
);
},
{
closed = 1;
nodes = (
(2250,2026,l),
(2280,2073,l),
(2263,2161,l),
(2157,2231,l),
(2069,2213,l),
(2055,2184,l),
(2016,2222,l),
(2076,2269,l),
(2252,2305,l),
(2357,2235,l),
(2368,2091,l),
(2315,2023,l)
);
},
{
closed = 1;
nodes = (
(2683,-758,l),
(2793,-706,l),
(2833,-593,l),
(2785,-491,l),
(2634,-437,l),
(2699,-375,l),
(2812,-416,l),
(2882,-417,l),
(2914,-474,l),
(2836,-467,l),
(2936,-545,l),
(2946,-634,l),
(2906,-747,l),
(2753,-819,l),
(2678,-829,l)
);
}
);
width = 680;
}
);
note = three;
unicode = 51;
},
{
glyphname = four;
kernLeft = four;
kernRight = four;
lastChange = "2024-02-26 21:25:57 +0000";
layers = (
{
hints = (
{
horizontal = 1;
place = (0, 800);
place = (0, 800);
type = Stem;
},
{
place = (-40, 720);
place = (-40, 720);
type = Stem;
}
);
layerId = m01;
shapes = (
{
closed = 1;
nodes = (
(244,160,l),
(40,160,l),
(-40,240,l),
(200,440,l),
(243,505,l),
(301,471,l),
(280,440,l),
(120,240,l),
(240,220,l)
);
},
{
closed = 1;
nodes = (
(243,505,l),
(280,560,l),
(320,800,l),
(440,800,l),
(360,560,l),
(301,471,l)
);
},
{
closed = 1;
nodes = (
(430,410,l),
(560,800,l),
(680,800,l),
(572,475,l)
);
},
{
closed = 1;
nodes = (
(240,220,l),
(360,200,l),
(430,410,l),
(572,475,l),
(440,80,l),
(520,0,l),
(200,0,l),
(320,80,l),
(360,160,l),
(244,160,l)
);
}
);
width = 640;
},
{
hints = (
{
horizontal = 1;
place = (0, 800);
place = (0, 800);
type = Stem;
},
{
place = (-40, 720);
place = (-40, 720);
type = Stem;
}
);
layerId = "45DABB71-BDAF-41D9-9CB5-36007FEF02C0";
shapes = (
{
closed = 1;
nodes = (
(-4077,1695,l),
(-4266,1773,l),
(-4309,1877,l),
(-4011,1970,l),
(-3946,2014,l),
(-3905,1960,l),
(-3937,1939,l),
(-4161,1816,l),
(-4058,1752,l)
);
},
{
closed = 1;
nodes = (
(-1210,3883,l),
(-1185,3944,l),
(-1194,4187,l),
(-1076,4211,l),
(-1106,3960,l),
(-1146,3861,l)
);
},
{
closed = 1;
nodes = (
(2060,3705,l),
(2274,4056,l),
(2391,4029,l),
(2213,3736,l)
);
},
{
closed = 1;
nodes = (
(2693,-926,l),
(2811,-898,l),
(2794,-677,l),
(2900,-562,l),
(2931,-978,l),
(3036,-1020,l),
(2741,-1144,l),
(2821,-1024,l),
(2827,-935,l),
(2720,-980,l)
);
}
);
width = 640;
}
);
note = four;
unicode = 52;
},
{
glyphname = five;
kernLeft = five;
kernRight = five;
lastChange = "2024-04-03 17:51:06 +0000";
layers = (
{
hints = (
{
horizontal = 1;
place = (320, 40);
place = (320, 40);
type = Stem;
},
{
place = (0, 640);
place = (0, 640);
type = Stem;
},
{
place = (120, 320);
place = (120, 320);
type = Stem;
}
);
layerId = m01;
shapes = (
{
closed = 1;
nodes = (
(190,65,l),
(240,40,l),
(320,80,l),
(440,200,l),
(440,306,l),
(542,387,l),
(560,360,l),
(560,200,l),
(440,80,l),
(280,0,l),
(200,0,l),
(166,17,l)
);
},
{
closed = 1;
nodes = (
(152,580,l),
(240,800,l),
(640,800,l),
(600,680,l),
(280,680,l),
(226,571,l)
);
},
{
closed = 1;
nodes = (
(440,306,l),
(440,360,l),
(360,440,l),
(280,440,l),
(120,360,l),
(80,400,l),
(152,580,l),
(226,571,l),
(160,440,l),
(240,480,l),
(360,520,l),
(480,480,l),
(542,387,l)
);
},
{
closed = 1;
nodes = (
(166,17,l),
(40,80,l),
(0,200,l),
(80,320,l),
(120,320,l),
(120,160,l),
(160,80,l),
(190,65,l)
);
}
);
width = 640;
},
{
hints = (
{
horizontal = 1;
place = (320, 40);
place = (320, 40);
type = Stem;
},
{
place = (0, 640);
place = (0, 640);
type = Stem;
},
{
place = (120, 320);
place = (120, 320);
type = Stem;
}
);
layerId = "45DABB71-BDAF-41D9-9CB5-36007FEF02C0";
shapes = (
{
closed = 1;
nodes = (
(1430,-1241,l),
(1469,-1281,l),
(1558,-1270,l),
(1711,-1197,l),
(1746,-1097,l),
(1870,-1055,l),
(1877,-1086,l),
(1824,-1237,l),
(1671,-1310,l),
(1493,-1332,l),
(1418,-1305,l),
(1392,-1278,l)
);
},
{
closed = 1;
nodes = (
(-639,2117,l),
(-600,2351,l),
(-210,2436,l),
(-223,2310,l),
(-536,2242,l),
(-565,2124,l)
);
},
{
closed = 1;
nodes = (
(2621,1753,l),
(2646,1800,l),
(2612,1908,l),
(2540,1945,l),
(2362,1947,l),
(2344,2001,l),
(2491,2128,l),
(2553,2086,l),
(2434,2000,l),
(2523,1999,l),
(2648,1979,l),
(2737,1889,l),
(2749,1778,l)
);
},
{
closed = 1;
nodes = (
(-1953,-830,l),
(-2087,-786,l),
(-2144,-673,l),
(-2083,-543,l),
(-2043,-537,l),
(-2020,-695,l),
(-1968,-768,l),
(-1936,-779,l)
);
}
);
width = 640;
}
);
note = five;
unicode = 53;
},
{
glyphname = six;
kernLeft = six;
kernRight = six;
lastChange = "2024-04-03 17:51:28 +0000";
layers = (
{
hints = (
{
horizontal = 1;
place = (560, -20);
target = down;
type = TopGhost;
},
{
place = (40, 640);
place = (40, 640);
type = Stem;
},
{
place = (160, 320);
place = (160, 320);
type = Stem;
}
);
layerId = m01;
shapes = (
{
closed = 1;
nodes = (
(177,149,l),
(200,80,l),
(280,40,l),
(360,80,l),
(436,156,l),
(520,120,l),
(480,80,l),
(320,0,l),
(240,0,l),
(80,80,l),
(73,101,l)
);
},
{
closed = 1;
nodes = (
(332,746,l),
(440,800,l),
(520,800,l),
(680,720,l),
(680,680,l),
(600,560,l),
(560,560,l),
(560,720,l),
(480,760,l),
(400,720,l),
(358,668,l)
);
},
{
closed = 1;
nodes = (
(40,317,l),
(40,360,l),
(120,560,l),
(280,720,l),
(332,746,l),
(358,668,l),
(240,520,l),
(200,439,l)
);
},
{
closed = 1;
nodes = (
(73,101,l),
(40,200,l),
(40,317,l),
(200,439,l),
(160,360,l),
(280,480,l),
(400,520,l),
(520,480,l),
(600,360,l),
(600,200,l),
(520,120,l),
(436,156,l),
(480,200,l),
(480,360,l),
(400,440,l),
(320,440,l),
(160,280,l),
(160,200,l),
(177,149,l)
);
}
);
width = 680;
},
{
hints = (
{
horizontal = 1;
place = (560, -20);
target = down;
type = TopGhost;
},
{
place = (40, 640);
place = (40, 640);
type = Stem;
},
{
place = (160, 320);
place = (160, 320);
type = Stem;
}
);
layerId = "45DABB71-BDAF-41D9-9CB5-36007FEF02C0";
shapes = (
{
closed = 1;
nodes = (
(1566,-1601,l),
(1617,-1653,l),
(1706,-1654,l),
(1761,-1583,l),
(1796,-1481,l),
(1887,-1477,l),
(1868,-1530,l),
(1760,-1672,l),
(1688,-1707,l),
(1509,-1706,l),
(1494,-1690,l)
);
},
{
closed = 1;
nodes = (
(2217,2440,l),
(2338,2433,l),
(2407,2393,l),
(2505,2243,l),
(2485,2209,l),
(2356,2145,l),
(2321,2165,l),
(2402,2303,l),
(2352,2378,l),
(2263,2384,l),
(2201,2360,l)
);
},
{
closed = 1;
nodes = (
(-1763,1469,l),
(-1780,1508,l),
(-1787,1724,l),
(-1705,1934,l),
(-1668,1979,l),
(-1612,1918,l),
(-1661,1735,l),
(-1665,1645,l)
);
},
{
closed = 1;
nodes = (
(-1343,-1732,l),
(-1446,-1747,l),
(-1561,-1726,l),
(-1652,-1546,l),
(-1582,-1600,l),
(-1678,-1460,l),
(-1696,-1335,l),
(-1635,-1224,l),
(-1502,-1167,l),
(-1345,-1196,l),
(-1280,-1289,l),
(-1331,-1365,l),
(-1366,-1314,l),
(-1524,-1285,l),
(-1617,-1349,l),
(-1631,-1428,l),
(-1503,-1614,l),
(-1424,-1629,l),
(-1371,-1621,l)
);
}
);
width = 680;
}
);
note = six;
unicode = 54;
},
{
glyphname = seven;
kernLeft = seven;
kernRight = seven;
lastChange = "2024-04-03 17:52:01 +0000";
layers = (
{
hints = (
{
horizontal = 1;
place = (560, -20);
target = down;
type = TopGhost;
},
{
place = (0, 600);
place = (0, 600);
type = Stem;
}
);
layerId = m01;
shapes = (
{
closed = 1;
nodes = (
(334,401,l),
(280,320,l),
(160,0,l),
(0,0,l),
(200,360,l),
(257,429,l)
);
},
{
closed = 1;
nodes = (
(420,760,l),
(280,760,l),
(200,720,l),
(200,560,l),
(160,560,l),
(80,680,l),
(80,800,l),
(444,800,l)
);
},
{
closed = 1;
nodes = (
(257,429,l),
(400,600,l),
(560,760,l),
(420,760,l),
(444,800,l),
(600,800,l),
(600,760,l),
(440,560,l),
(334,401,l)
);
}
);
width = 520;
},
{
hints = (
{
horizontal = 1;
place = (560, -20);
target = down;
type = TopGhost;
},
{
place = (0, 600);
place = (0, 600);
type = Stem;
}
);
layerId = "45DABB71-BDAF-41D9-9CB5-36007FEF02C0";
shapes = (
{
closed = 1;
nodes = (
(-1319,-1954,l),
(-1393,-2017,l),
(-1596,-2292,l),
(-1750,-2248,l),
(-1459,-1957,l),
(-1385,-1906,l)
);
},
{
closed = 1;
nodes = (
(182,3101,l),
(46,3134,l),
(-41,3114,l),
(-80,2959,l),
(-119,2969,l),
(-167,3104,l),
(-139,3221,l),
(215,3134,l)
);
},
{
closed = 1;
nodes = (
(3654,-1123,l),
(3744,-919,l),
(3854,-721,l),
(3719,-759,l),
(3731,-714,l),
(3881,-671,l),
(3892,-709,l),
(3794,-946,l),
(3736,-1128,l)
);
}
);
width = 520;
}
);
note = seven;
unicode = 55;
},
{
glyphname = eight;
kernRight = eight;
lastChange = "2024-04-03 17:51:50 +0000";
layers = (
{
hints = (
{
horizontal = 1;
place = (0, 800);
place = (0, 800);
type = Stem;
},
{
place = (280, 240);
place = (280, 240);
type = Stem;
}
);
layerId = m01;
shapes = (
{
closed = 1;
nodes = (
(498,107,l),
(480,80,l),
(280,0,l),
(200,0,l),
(40,80,l),
(0,200,l),
(40,320,l),
(74,354,l),
(149,284,l),
(120,240,l),
(120,160,l),
(160,80,l),
(240,40,l),
(360,80,l),
(406,148,l)
);
},
{
closed = 1;
nodes = (
(490,499,l),
(520,560,l),
(520,680,l),
(440,760,l),
(357,732,l),
(315,778,l),
(360,800,l),
(440,800,l),
(560,760,l),
(640,640,l),
(640,560,l),
(600,480,l),
(564,462,l)
);
},
{
closed = 1;
nodes = (
(406,148,l),
(440,200,l),
(440,280,l),
(400,360,l),
(320,400,l),
(200,360,l),
(149,284,l),
(74,354,l),
(120,400,l),
(280,440,l),
(200,480,l),
(160,560,l),
(160,640,l),
(200,720,l),
(315,778,l),
(357,732,l),
(320,720,l),
(280,640,l),
(280,520,l),
(360,440,l),
(480,480,l),
(490,499,l),
(564,462,l),
(520,440,l),
(400,400,l),
(520,360,l),
(560,280,l),
(560,200,l),
(498,107,l)
);
}
);
width = 640;
},
{
hints = (
{
horizontal = 1;
place = (0, 800);
place = (0, 800);
type = Stem;
},
{
place = (280, 240);
place = (280, 240);
type = Stem;
}
);
layerId = "45DABB71-BDAF-41D9-9CB5-36007FEF02C0";
shapes = (
{
closed = 1;
nodes = (
(1748,-1750,l),
(1758,-1781,l),
(1698,-1988,l),
(1649,-2051,l),
(1487,-2128,l),
(1368,-2086,l),
(1298,-1980,l),
(1292,-1932,l),
(1394,-1916,l),
(1410,-1966,l),
(1474,-2016,l),
(1561,-2033,l),
(1642,-1995,l),
(1684,-1876,l),
(1659,-1798,l)
);
},
{
closed = 1;
nodes = (
(2294,2630,l),
(2298,2697,l),
(2251,2808,l),
(2146,2850,l),
(2081,2792,l),
(2024,2818,l),
(2057,2856,l),
(2131,2887,l),
(2257,2897,l),
(2377,2818,l),
(2409,2744,l),
(2403,2655,l),
(2377,2624,l)
);
},
{
closed = 1;
nodes = (
(-960,2490,l),
(-992,2543,l),
(-1064,2577,l),
(-1154,2575,l),
(-1224,2520,l),
(-1240,2395,l),
(-1193,2316,l),
(-1288,2278,l),
(-1310,2340,l),
(-1277,2501,l),
(-1348,2446,l),
(-1437,2445,l),
(-1510,2479,l),
(-1565,2550,l),
(-1568,2678,l),
(-1508,2696,l),
(-1513,2658,l),
(-1458,2587,l),
(-1350,2536,l),
(-1243,2574,l),
(-1228,2699,l),
(-1240,2716,l),
(-1175,2767,l),
(-1174,2718,l),
(-1190,2592,l),
(-1102,2684,l),
(-1013,2685,l),
(-940,2651,l),
(-883,2555,l)
);
}
);
width = 640;
}
);
note = eight;
unicode = 56;
},
{
glyphname = nine;
kernLeft = nine;
kernRight = nine;
lastChange = "2024-04-03 17:52:23 +0000";
layers = (
{
hints = (
{
horizontal = 1;
place = (600, -20);
target = down;
type = TopGhost;
},
{
place = (0, 640);
place = (0, 640);
type = Stem;
},
{
place = (200, 320);
place = (200, 320);
type = Stem;
}
);
layerId = m01;
shapes = (
{
closed = 1;
nodes = (
(438,358,l),
(400,320,l),
(280,280,l),
(160,320,l),
(80,440,l),
(80,600,l),
(200,720,l),
(252,746,l),
(288,688,l),
(200,600,l),
(200,440,l),
(280,360,l),
(360,360,l),
(414,414,l)
);
},
{
closed = 1;
nodes = (
(512,624,l),
(480,720,l),
(400,760,l),
(320,720,l),
(288,688,l),
(252,746,l),
(360,800,l),
(440,800,l),
(600,720,l),
(622,655,l)
);
},
{
closed = 1;
nodes = (
(450,130,l),
(400,80,l),
(240,0,l),
(160,0,l),
(0,80,l),
(0,120,l),
(80,240,l),
(120,240,l),
(120,80,l),
(200,40,l),
(280,80,l),
(346,163,l)
);
},
{
closed = 1;
nodes = (
(346,163,l),
(440,280,l),
(520,440,l),
(438,358,l),
(414,414,l),
(520,520,l),
(520,600,l),
(512,624,l),
(622,655,l),
(640,600,l),
(640,440,l),
(560,240,l),
(450,130,l)
);
}
);
width = 680;
},
{
hints = (
{
horizontal = 1;
place = (600, -20);
target = down;
type = TopGhost;
},
{
place = (0, 640);
place = (0, 640);
type = Stem;
},
{
place = (200, 320);
place = (200, 320);
type = Stem;
}
);
layerId = "45DABB71-BDAF-41D9-9CB5-36007FEF02C0";
shapes = (
{
closed = 1;
nodes = (
(-2334,-2471,l),
(-2362,-2516,l),
(-2469,-2584,l),
(-2595,-2573,l),
(-2701,-2475,l),
(-2739,-2320,l),
(-2650,-2175,l),
(-2606,-2137,l),
(-2557,-2185,l),
(-2622,-2292,l),
(-2584,-2447,l),
(-2488,-2506,l),
(-2410,-2487,l),
(-2370,-2422,l)
);
},
{
closed = 1;
nodes = (
(341,3339,l),
(278,3418,l),
(189,3428,l),
(128,3362,l),
(109,3321,l),
(55,3363,l),
(138,3451,l),
(213,3479,l),
(390,3459,l),
(434,3406,l)
);
},
{
closed = 1;
nodes = (
(1327,-2433,l),
(1308,-2501,l),
(1206,-2649,l),
(1136,-2687,l),
(958,-2695,l),
(938,-2660,l),
(950,-2516,l),
(985,-2497,l),
(1063,-2637,l),
(1152,-2633,l),
(1203,-2559,l),
(1220,-2455,l)
);
},
{
closed = 1;
nodes = (
(4940,1652,l),
(4974,1799,l),
(4978,1977,l),
(4939,1868,l),
(4893,1908,l),
(4943,2050,l),
(4909,2122,l),
(4891,2140,l),
(4977,2215,l),
(5017,2173,l),
(5086,2029,l),
(5100,1814,l),
(5048,1668,l)
);
}
);
width = 680;
}
);
note = nine;
unicode = 57;
},
{
glyphname = percent;
lastChange = "2024-04-03 17:52:48 +0000";
layers = (
{
hints = (
{
horizontal = 1;
place = (560, -20);
target = down;
type = TopGhost;
},
{
place = (160, 160);
place = (160, 160);
type = Stem;
},
{
place = (440, 160);
place = (440, 160);
type = Stem;
}
);
layerId = m01;
shapes = (
{
closed = 1;
nodes = (
(497,500,l),
(80,-40,l),
(0,-40,l),
(322,377,l)
);
},
{
closed = 1;
nodes = (
(367,519,l),
(320,440,l),
(200,400,l),
(120,400,l),
(80,440,l),
(40,560,l),
(114,683,l),
(190,620,l),
(160,560,l),
(160,480,l),
(200,440,l),
(240,480,l),
(279,558,l)
);
},
{
closed = 1;
nodes = (
(683,179,l),
(600,40,l),
(480,0,l),
(400,0,l),
(360,40,l),
(320,160,l),
(380,259,l),
(472,225,l),
(440,160,l),
(440,80,l),
(480,40,l),
(520,80,l),
(564,169,l)
);
},
{
closed = 1;
nodes = (
(279,558,l),
(320,640,l),
(320,720,l),
(280,760,l),
(240,720,l),
(190,620,l),
(114,683,l),
(160,760,l),
(280,800,l),
(360,800,l),
(400,760,l),
(440,640,l),
(367,519,l)
);
},
{
closed = 1;
nodes = (
(322,377,l),
(680,840,l),
(760,840,l),
(497,500,l)
);
},
{
closed = 1;
nodes = (
(564,169,l),
(600,240,l),
(600,320,l),
(560,360,l),
(520,320,l),
(472,225,l),
(380,259,l),
(440,360,l),
(560,400,l),
(640,400,l),
(680,360,l),
(720,240,l),
(683,179,l)
);
}
);
width = 760;
},
{
hints = (
{
horizontal = 1;
place = (560, -20);
target = down;
type = TopGhost;
},
{
place = (160, 160);
place = (160, 160);
type = Stem;
},
{
place = (440, 160);
place = (440, 160);
type = Stem;
}
);
layerId = "45DABB71-BDAF-41D9-9CB5-36007FEF02C0";
shapes = (
{
closed = 1;
nodes = (
(-937,-1649,l),
(-1575,-1890,l),
(-1643,-1848,l),
(-1150,-1662,l)
);
},
{
closed = 1;
nodes = (
(-1888,-809,l),
(-1954,-873,l),
(-2081,-880,l),
(-2158,-859,l),
(-2186,-810,l),
(-2193,-684,l),
(-2089,-585,l),
(-2033,-665,l),
(-2077,-716,l),
(-2098,-793,l),
(-2070,-842,l),
(-2021,-814,l),
(-1963,-749,l)
);
},
{
closed = 1;
nodes = (
(1337,-1103,l),
(1416,-1244,l),
(1390,-1368,l),
(1350,-1438,l),
(1295,-1452,l),
(1171,-1426,l),
(1116,-1325,l),
(1191,-1262,l),
(1232,-1323,l),
(1301,-1363,l),
(1356,-1348,l),
(1341,-1294,l),
(1286,-1211,l)
);
},
{
closed = 1;
nodes = (
(-69,2538,l),
(-93,2626,l),
(-146,2686,l),
(-202,2689,l),
(-205,2633,l),
(-176,2525,l),
(-275,2522,l),
(-292,2610,l),
(-229,2719,l),
(-169,2772,l),
(-112,2769,l),
(-3,2706,l),
(23,2567,l)
);
},
{
closed = 1;
nodes = (
(1710,2987,l),
(2213,3285,l),
(2288,3256,l),
(1918,3037,l)
);
},
{
closed = 1;
nodes = (
(2482,1513,l),
(2549,1555,l),
(2591,1623,l),
(2578,1678,l),
(2523,1665,l),
(2432,1609,l),
(2371,1686,l),
(2475,1741,l),
(2598,1712,l),
(2667,1671,l),
(2680,1616,l),
(2652,1492,l),
(2588,1460,l)
);
}
);
width = 760;
}
);
note = percent;
unicode = 37;
},
{
glyphname = plus;
kernLeft = plus;
lastChange = "2024-04-03 17:52:58 +0000";
layers = (
{
hints = (
{
horizontal = 1;
place = (40, 560);
place = (40, 560);
type = Stem;
},
{
place = (0, 560);
place = (0, 560);
type = Stem;
}
);
layerId = m01;
shapes = (
{
closed = 1;
nodes = (
(320,252,l),
(320,40,l),
(240,40,l),
(240,280,l),
(0,280,l),
(0,360,l),
(163,360,l)
);
},
{
closed = 1;
nodes = (
(240,438,l),
(240,600,l),
(320,600,l),
(320,474,l)
);
},
{
closed = 1;
nodes = (
(163,360,l),
(240,360,l),
(240,438,l),
(320,474,l),
(320,360,l),
(560,360,l),
(560,280,l),
(320,280,l),
(320,252,l)
);
}
);
width = 600;
},
{
hints = (
{
horizontal = 1;
place = (40, 560);
place = (40, 560);
type = Stem;
},
{
place = (0, 560);
place = (0, 560);
type = Stem;
}
);
layerId = "45DABB71-BDAF-41D9-9CB5-36007FEF02C0";
shapes = (
{
closed = 1;
nodes = (
(-908,-1468,l),
(-994,-1661,l),
(-1067,-1629,l),
(-969,-1409,l),
(-1189,-1312,l),
(-1156,-1239,l),
(-1007,-1305,l)
);
},
{
closed = 1;
nodes = (
(-288,1984,l),
(-361,2129,l),
(-289,2165,l),
(-233,2052,l)
);
},
{
closed = 1;
nodes = (
(2177,-1144,l),
(2251,-1163,l),
(2271,-1088,l),
(2357,-1073,l),
(2329,-1183,l),
(2561,-1243,l),
(2541,-1320,l),
(2309,-1261,l),
(2302,-1288,l)
);
}
);
width = 600;
}
);
note = plus;
unicode = 43;
},
{
glyphname = minus;
kernLeft = hyphen;
kernRight = hyphen;
lastChange = "2024-04-03 17:53:04 +0000";
layers = (
{
hints = (
{
horizontal = 1;
place = (280, 80);
place = (280, 80);
type = Stem;
},
{
place = (40, 480);
place = (40, 480);
type = Stem;
}
);
layerId = m01;
shapes = (
{
closed = 1;
nodes = (
(313,360,l),
(520,360,l),
(520,280,l),
(248,280,l)
);
},
{
closed = 1;
nodes = (
(248,280,l),
(40,280,l),
(40,360,l),
(313,360,l)
);
}
);
width = 560;
},
{
hints = (
{
horizontal = 1;
place = (280, 80);
place = (280, 80);
type = Stem;
},
{
place = (40, 480);
place = (40, 480);
type = Stem;
}
);
layerId = "45DABB71-BDAF-41D9-9CB5-36007FEF02C0";
shapes = (
{
closed = 1;
nodes = (
(1989,-775,l),
(2180,-855,l),
(2149,-929,l),
(1898,-824,l)
);
},
{
closed = 1;
nodes = (
(-608,1576,l),
(-801,1652,l),
(-772,1726,l),
(-518,1627,l)
);
}
);
width = 560;
}
);
note = minus;
unicode = 8722;
},
{
glyphname = plusminus;
lastChange = "2024-04-03 17:53:20 +0000";
layers = (
{
hints = (
{
horizontal = 1;
place = (80, 80);
place = (80, 80);
type = Stem;
},
{
place = (0, 560);
place = (0, 560);
type = Stem;
}
);
layerId = m01;
shapes = (
{
closed = 1;
nodes = (
(320,374,l),
(320,160,l),
(240,160,l),
(240,400,l),
(0,400,l),
(0,480,l),
(185,480,l)
);
},
{
closed = 1;
nodes = (
(305,0,l),
(40,0,l),
(40,80,l),
(245,80,l)
);
},
{
closed = 1;
nodes = (
(364,480,l),
(560,480,l),
(560,400,l),
(398,400,l)
);
},
{
closed = 1;
nodes = (
(185,480,l),
(240,480,l),
(240,720,l),
(320,720,l),
(320,480,l),
(364,480,l),
(398,400,l),
(320,400,l),
(320,374,l)
);
},
{
closed = 1;
nodes = (
(245,80,l),
(520,80,l),
(520,0,l),
(305,0,l)
);
}
);
width = 600;
},
{
hints = (
{
horizontal = 1;
place = (80, 80);
place = (80, 80);
type = Stem;
},
{
place = (0, 560);
place = (0, 560);
type = Stem;
}
);
layerId = "45DABB71-BDAF-41D9-9CB5-36007FEF02C0";
shapes = (
{
closed = 1;
nodes = (
(-1726,-355,l),
(-1684,-565,l),
(-1763,-580,l),
(-1810,-345,l),
(-2045,-392,l),
(-2061,-314,l),
(-1879,-277,l)
);
},
{
closed = 1;
nodes = (
(-856,-1461,l),
(-1057,-1633,l),
(-1109,-1572,l),
(-953,-1439,l)
);
},
{
closed = 1;
nodes = (
(1672,1335,l),
(1857,1400,l),
(1884,1325,l),
(1731,1271,l)
);
},
{
closed = 1;
nodes = (
(-492,2330,l),
(-443,2354,l),
(-548,2570,l),
(-476,2605,l),
(-371,2389,l),
(-331,2409,l),
(-266,2352,l),
(-336,2317,l),
(-324,2294,l)
);
},
{
closed = 1;
nodes = (
(2158,1300,l),
(2413,1402,l),
(2443,1328,l),
(2243,1248,l)
);
}
);
width = 600;
}
);
note = plusminus;
unicode = 177;
},
{
glyphname = multiply;
lastChange = "2024-04-03 17:53:30 +0000";
layers = (
{
hints = (
{
horizontal = 1;
place = (80, 480);
place = (80, 480);
type = Stem;
},
{
place = (80, 481);
place = (80, 481);
type = Stem;
}
);
layerId = m01;
shapes = (
{
closed = 1;
nodes = (
(452,248,l),
(561,160,l),
(481,80,l),
(385,201,l)
);
},
{
closed = 1;
nodes = (
(240,353,l),
(80,480,l),
(161,560,l),
(277,415,l)
);
},
{
closed = 1;
nodes = (
(385,201,l),
(321,280,l),
(161,80,l),
(81,160,l),
(281,320,l),
(240,353,l),
(277,415,l),
(321,360,l),
(481,560,l),
(561,480,l),
(361,320,l),
(452,248,l)
);
}
);
width = 641;
},
{
hints = (
{
horizontal = 1;
place = (80, 480);
place = (80, 480);
type = Stem;
},
{
place = (80, 481);
place = (80, 481);
type = Stem;
}
);
layerId = "45DABB71-BDAF-41D9-9CB5-36007FEF02C0";
shapes = (
{
closed = 1;
nodes = (
(1070,-1145,l),
(1203,-1190,l),
(1155,-1293,l),
(1024,-1212,l)
);
},
{
closed = 1;
nodes = (
(-584,2171,l),
(-684,2349,l),
(-579,2393,l),
(-526,2215,l)
);
},
{
closed = 1;
nodes = (
(-1601,-1034,l),
(-1554,-943,l),
(-1801,-876,l),
(-1760,-771,l),
(-1533,-891,l),
(-1519,-840,l),
(-1448,-849,l),
(-1480,-911,l),
(-1233,-978,l),
(-1275,-1084,l),
(-1501,-964,l),
(-1531,-1076,l)
);
}
);
width = 641;
}
);
note = multiply;
unicode = 215;
},
{
glyphname = divide;
kernLeft = plus;
lastChange = "2024-04-03 17:54:03 +0000";
layers = (
{
hints = (
{
horizontal = 1;
place = (200, 80);
place = (200, 80);
type = Stem;
},
{
horizontal = 1;
place = (320, 80);
place = (320, 80);
type = Stem;
},
{
place = (80, 360);
place = (80, 360);
type = Stem;
}
);
layerId = m01;
shapes = (
{
closed = 1;
nodes = (
(297,503,l),
(320,480,l),
(320,440,l),
(280,400,l),
(240,400,l),
(219,421,l)
);
},
{
closed = 1;
nodes = (
(254,280,l),
(80,280,l),
(80,320,l),
(217,320,l)
);
},
{
closed = 1;
nodes = (
(303,103,l),
(280,80,l),
(240,80,l),
(200,120,l),
(200,160,l),
(211,171,l)
);
},
{
closed = 1;
nodes = (
(217,320,l),
(440,320,l),
(440,280,l),
(254,280,l)
);
},
{
closed = 1;
nodes = (
(219,421,l),
(200,440,l),
(200,480,l),
(240,520,l),
(280,520,l),
(297,503,l)
);
},
{
closed = 1;
nodes = (
(211,171,l),
(240,200,l),
(280,200,l),
(320,160,l),
(320,120,l),
(303,103,l)
);
}
);
width = 480;
},
{
hints = (
{
horizontal = 1;
place = (200, 80);
place = (200, 80);
type = Stem;
},
{
horizontal = 1;
place = (320, 80);
place = (320, 80);
type = Stem;
},
{
place = (80, 360);
place = (80, 360);
type = Stem;
}
);
layerId = "45DABB71-BDAF-41D9-9CB5-36007FEF02C0";
shapes = (
{
closed = 1;
nodes = (
(1813,1835,l),
(1845,1831,l),
(1870,1799,l),
(1862,1743,l),
(1830,1718,l),
(1801,1722,l)
);
},
{
closed = 1;
nodes = (
(-1114,-866,l),
(-1282,-914,l),
(-1292,-875,l),
(-1161,-838,l)
);
},
{
closed = 1;
nodes = (
(-475,-1239,l),
(-494,-1265,l),
(-533,-1271,l),
(-579,-1238,l),
(-586,-1199,l),
(-577,-1186,l)
);
},
{
closed = 1;
nodes = (
(1230,-673,l),
(1389,-830,l),
(1361,-859,l),
(1228,-728,l)
);
},
{
closed = 1;
nodes = (
(-1516,1421,l),
(-1540,1433,l),
(-1553,1471,l),
(-1527,1522,l),
(-1489,1534,l),
(-1467,1523,l)
);
},
{
closed = 1;
nodes = (
(2552,1077,l),
(2591,1090,l),
(2627,1071,l),
(2644,1018,l),
(2626,982,l),
(2603,975,l)
);
}
);
width = 480;
}
);
note = divide;
unicode = 247;
},
{
glyphname = equal;
lastChange = "2024-04-03 17:54:21 +0000";
layers = (
{
hints = (
{
horizontal = 1;
place = (280, 80);
place = (280, 80);
type = Stem;
},
{
place = (40, 480);
place = (40, 480);
type = Stem;
}
);
layerId = m01;
shapes = (
{
closed = 1;
nodes = (
(288,360,l),
(40,360,l),
(40,440,l),
(242,440,l)
);
},
{
closed = 1;
nodes = (
(344,280,l),
(520,280,l),
(520,200,l),
(279,200,l)
);
},
{
closed = 1;
nodes = (
(279,200,l),
(40,200,l),
(40,280,l),
(344,280,l)
);
},
{
closed = 1;
nodes = (
(242,440,l),
(520,440,l),
(520,360,l),
(288,360,l)
);
}
);
width = 560;
},
{
hints = (
{
horizontal = 1;
place = (280, 80);
place = (280, 80);
type = Stem;
},
{
place = (40, 480);
place = (40, 480);
type = Stem;
}
);
layerId = "45DABB71-BDAF-41D9-9CB5-36007FEF02C0";
shapes = (
{
closed = 1;
nodes = (
(-1476,-341,l),
(-1712,-419,l),
(-1737,-343,l),
(-1545,-279,l)
);
},
{
closed = 1;
nodes = (
(1797,-1332,l),
(1946,-1425,l),
(1904,-1493,l),
(1699,-1366,l)
);
},
{
closed = 1;
nodes = (
(-1008,2404,l),
(-1220,2514,l),
(-1183,2585,l),
(-913,2445,l)
);
},
{
closed = 1;
nodes = (
(2331,2733,l),
(2576,2865,l),
(2614,2795,l),
(2410,2684,l)
);
}
);
width = 560;
}
);
note = equal;
unicode = 61;
},
{
glyphname = approxequal;
lastChange = "2024-04-03 17:54:34 +0000";
layers = (
{
hints = (
{
horizontal = 1;
place = (320, 40);
place = (320, 40);
type = Stem;
},
{
place = (200, 440);
place = (200, 440);
type = Stem;
}
);
layerId = m01;
shapes = (
{
closed = 1;
nodes = (
(443,477,l),
(480,440,l),
(600,520,l),
(640,480,l),
(520,360,l),
(440,360,l),
(398,402,l)
);
},
{
closed = 1;
nodes = (
(447,273,l),
(480,240,l),
(600,320,l),
(640,280,l),
(520,160,l),
(440,160,l),
(422,178,l)
);
},
{
closed = 1;
nodes = (
(398,402,l),
(360,440,l),
(240,360,l),
(200,400,l),
(320,520,l),
(400,520,l),
(443,477,l)
);
},
{
closed = 1;
nodes = (
(422,178,l),
(360,240,l),
(240,160,l),
(200,200,l),
(320,320,l),
(400,320,l),
(447,273,l)
);
}
);
width = 833;
},
{
hints = (
{
horizontal = 1;
place = (320, 40);
place = (320, 40);
type = Stem;
},
{
place = (200, 440);
place = (200, 440);
type = Stem;
}
);
layerId = "45DABB71-BDAF-41D9-9CB5-36007FEF02C0";
shapes = (
{
closed = 1;
nodes = (
(2528,1314,l),
(2577,1295,l),
(2653,1418,l),
(2706,1398,l),
(2645,1239,l),
(2573,1206,l),
(2517,1227,l)
);
},
{
closed = 1;
nodes = (
(1448,-808,l),
(1466,-851,l),
(1608,-822,l),
(1630,-874,l),
(1473,-940,l),
(1399,-910,l),
(1389,-886,l)
);
},
{
closed = 1;
nodes = (
(-751,1463,l),
(-800,1485,l),
(-883,1366,l),
(-935,1389,l),
(-867,1545,l),
(-792,1574,l),
(-736,1549,l)
);
},
{
closed = 1;
nodes = (
(-1050,-1107,l),
(-1133,-1078,l),
(-1206,-1202,l),
(-1260,-1183,l),
(-1203,-1023,l),
(-1131,-988,l),
(-1068,-1010,l)
);
}
);
width = 833;
}
);
note = approxequal;
unicode = 8776;
},
{
glyphname = less;
kernLeft = less;
lastChange = "2024-04-03 17:54:47 +0000";
layers = (
{
hints = (
{
horizontal = 1;
place = (40, 560);
place = (40, 560);
type = Stem;
},
{
place = (80, 360);
place = (80, 360);
type = Stem;
}
);
layerId = m01;
shapes = (
{
closed = 1;
nodes = (
(279,131,l),
(80,280,l),
(80,359,l),
(230,472,l),
(282,421,l),
(120,320,l),
(269,227,l)
);
},
{
closed = 1;
nodes = (
(230,472,l),
(400,600,l),
(440,520,l),
(282,421,l)
);
},
{
closed = 1;
nodes = (
(269,227,l),
(440,120,l),
(400,40,l),
(279,131,l)
);
}
);
width = 480;
},
{
hints = (
{
horizontal = 1;
place = (40, 560);
place = (40, 560);
type = Stem;
},
{
place = (80, 360);
place = (80, 360);
type = Stem;
}
);
layerId = "45DABB71-BDAF-41D9-9CB5-36007FEF02C0";
shapes = (
{
closed = 1;
nodes = (
(-956,905,l),
(-1097,1110,l),
(-1072,1184,l),
(-894,1244,l),
(-861,1179,l),
(-1046,1135,l),
(-935,999,l)
);
},
{
closed = 1;
nodes = (
(651,2572,l),
(774,2746,l),
(837,2682,l),
(716,2539,l)
);
},
{
closed = 1;
nodes = (
(884,-999,l),
(956,-1188,l),
(875,-1227,l),
(834,-1082,l)
);
}
);
width = 480;
}
);
note = less;
unicode = 60;
},
{
glyphname = greater;
kernRight = greater;
lastChange = "2024-04-03 17:54:57 +0000";
layers = (
{
hints = (
{
horizontal = 1;
place = (40, 560);
place = (40, 560);
type = Stem;
},
{
place = (40, 360);
place = (40, 360);
type = Stem;
}
);
layerId = m01;
shapes = (
{
closed = 1;
nodes = (
(329,227,l),
(80,40,l),
(40,120,l),
(234,241,l)
);
},
{
closed = 1;
nodes = (
(167,440,l),
(40,520,l),
(80,600,l),
(223,492,l)
);
},
{
closed = 1;
nodes = (
(234,241,l),
(360,320,l),
(167,440,l),
(223,492,l),
(400,359,l),
(400,280,l),
(329,227,l)
);
}
);
width = 480;
},
{
hints = (
{
horizontal = 1;
place = (40, 560);
place = (40, 560);
type = Stem;
},
{
place = (40, 360);
place = (40, 360);
type = Stem;
}
);
layerId = "45DABB71-BDAF-41D9-9CB5-36007FEF02C0";
shapes = (
{
closed = 1;
nodes = (
(-944,-1143,l),
(-1221,-1285,l),
(-1247,-1199,l),
(-1035,-1113,l)
);
},
{
closed = 1;
nodes = (
(-705,2077,l),
(-853,2103,l),
(-846,2192,l),
(-673,2147,l)
);
},
{
closed = 1;
nodes = (
(1901,1482,l),
(1964,1617,l),
(1737,1612,l),
(1755,1687,l),
(1976,1672,l),
(2019,1606,l),
(1989,1522,l)
);
}
);
width = 480;
}
);
note = greater;
unicode = 62;
},
{
glyphname = lessequal;
lastChange = "2024-04-03 17:55:15 +0000";
layers = (
{
hints = (
{
horizontal = 1;
place = (80, 40);
place = (80, 40);
type = Stem;
},
{
horizontal = 1;
place = (600, -20);
target = down;
type = TopGhost;
},
{
place = (40, 480);
place = (40, 480);
type = Stem;
}
);
layerId = m01;
shapes = (
{
closed = 1;
nodes = (
(338,279,l),
(480,200,l),
(440,120,l),
(224,264,l)
);
},
{
closed = 1;
nodes = (
(273,0,l),
(40,0,l),
(40,80,l),
(200,80,l)
);
},
{
closed = 1;
nodes = (
(190,512,l),
(440,680,l),
(480,600,l),
(269,483,l)
);
},
{
closed = 1;
nodes = (
(224,264,l),
(80,360,l),
(80,439,l),
(190,512,l),
(269,483,l),
(120,400,l),
(338,279,l)
);
},
{
closed = 1;
nodes = (
(200,80,l),
(520,80,l),
(520,0,l),
(273,0,l)
);
}
);
width = 520;
},
{
hints = (
{
horizontal = 1;
place = (80, 40);
place = (80, 40);
type = Stem;
},
{
horizontal = 1;
place = (600, -20);
target = down;
type = TopGhost;
},
{
place = (40, 480);
place = (40, 480);
type = Stem;
}
);
layerId = "45DABB71-BDAF-41D9-9CB5-36007FEF02C0";
shapes = (
{
closed = 1;
nodes = (
(1880,-693,l),
(2040,-721,l),
(2029,-810,l),
(1778,-745,l)
);
},
{
closed = 1;
nodes = (
(-579,-628,l),
(-805,-684,l),
(-824,-606,l),
(-668,-568,l)
);
},
{
closed = 1;
nodes = (
(-561,2002,l),
(-508,2298,l),
(-423,2271,l),
(-485,2038,l)
);
},
{
closed = 1;
nodes = (
(-1977,-1318,l),
(-2148,-1291,l),
(-2181,-1220,l),
(-2111,-1107,l),
(-2027,-1101,l),
(-2128,-1238,l),
(-1880,-1257,l)
);
},
{
closed = 1;
nodes = (
(1278,-997,l),
(1569,-1130,l),
(1536,-1202,l),
(1311,-1100,l)
);
}
);
width = 520;
}
);
note = lessequal;
unicode = 8804;
},
{
glyphname = greaterequal;
lastChange = "2024-04-03 17:55:34 +0000";
layers = (
{
hints = (
{
horizontal = 1;
place = (80, 40);
place = (80, 40);
type = Stem;
},
{
place = (0, 480);
place = (0, 480);
type = Stem;
}
);
layerId = m01;
shapes = (
{
closed = 1;
nodes = (
(255,237,l),
(80,120,l),
(40,200,l),
(175,275,l)
);
},
{
closed = 1;
nodes = (
(284,0,l),
(0,0,l),
(0,80,l),
(244,80,l)
);
},
{
closed = 1;
nodes = (
(237,491,l),
(40,600,l),
(80,680,l),
(309,527,l)
);
},
{
closed = 1;
nodes = (
(175,275,l),
(400,400,l),
(237,491,l),
(309,527,l),
(440,439,l),
(440,360,l),
(255,237,l)
);
},
{
closed = 1;
nodes = (
(244,80,l),
(480,80,l),
(480,0,l),
(284,0,l)
);
}
);
width = 520;
},
{
hints = (
{
horizontal = 1;
place = (80, 40);
place = (80, 40);
type = Stem;
},
{
place = (0, 480);
place = (0, 480);
type = Stem;
}
);
layerId = "45DABB71-BDAF-41D9-9CB5-36007FEF02C0";
shapes = (
{
closed = 1;
nodes = (
(-1940,-427,l),
(-2128,-522,l),
(-2158,-438,l),
(-2015,-380,l)
);
},
{
closed = 1;
nodes = (
(-1554,-1418,l),
(-1830,-1484,l),
(-1848,-1406,l),
(-1611,-1350,l)
);
},
{
closed = 1;
nodes = (
(-458,2417,l),
(-604,2589,l),
(-538,2649,l),
(-378,2425,l)
);
},
{
closed = 1;
nodes = (
(1980,1663,l),
(2073,1903,l),
(1890,1868,l),
(1922,1942,l),
(2079,1958,l),
(2129,1898,l),
(2066,1685,l)
);
},
{
closed = 1;
nodes = (
(2423,490,l),
(2624,614,l),
(2666,547,l),
(2500,443,l)
);
}
);
width = 520;
}
);
note = greaterequal;
unicode = 8805;
},
{
glyphname = degree;
kernRight = degree;
lastChange = "2024-04-03 17:55:41 +0000";
layers = (
{
hints = (
{
horizontal = 1;
place = (560, 40);
place = (560, 40);
type = Stem;
},
{
horizontal = 1;
place = (840, 40);
place = (840, 40);
type = Stem;
},
{
place = (80, 80);
place = (80, 80);
type = Stem;
},
{
place = (320, 80);
place = (320, 80);
type = Stem;
}
);
layerId = m01;
shapes = (
{
closed = 1;
nodes = (
(347,627,l),
(400,680,l),
(400,760,l),
(280,880,l),
(200,880,l),
(144,824,l),
(181,781,l),
(240,840,l),
(320,760,l),
(320,680,l),
(281,641,l)
);
},
{
closed = 1;
nodes = (
(281,641,l),
(240,600,l),
(160,680,l),
(160,760,l),
(181,781,l),
(144,824,l),
(80,760,l),
(80,680,l),
(200,560,l),
(280,560,l),
(347,627,l)
);
}
);
width = 480;
},
{
hints = (
{
horizontal = 1;
place = (560, 40);
place = (560, 40);
type = Stem;
},
{
horizontal = 1;
place = (840, 40);
place = (840, 40);
type = Stem;
},
{
place = (80, 80);
place = (80, 80);
type = Stem;
},
{
place = (320, 80);
place = (320, 80);
type = Stem;
}
);
layerId = "45DABB71-BDAF-41D9-9CB5-36007FEF02C0";
shapes = (
{
closed = 1;
nodes = (
(988,2482,l),
(1015,2552,l),
(984,2625,l),
(827,2689,l),
(753,2657,l),
(724,2584,l),
(774,2559,l),
(806,2636,l),
(910,2594,l),
(942,2520,l),
(921,2469,l)
);
},
{
closed = 1;
nodes = (
(-1175,-1406,l),
(-1197,-1459,l),
(-1302,-1416,l),
(-1333,-1343,l),
(-1321,-1315,l),
(-1372,-1290,l),
(-1406,-1373,l),
(-1376,-1447,l),
(-1219,-1512,l),
(-1145,-1481,l),
(-1109,-1393,l)
);
}
);
width = 480;
}
);
note = degree;
unicode = 176;
},
